<mxfile host="app.diagrams.net" modified="2020-12-29T06:50:24.731Z" agent="5.0 (X11; Linux x86_64) AppleWebKit/537.36 (KHTML, like Gecko) Chrome/87.0.4280.88 Safari/537.36" etag="aG-kWGdA87WWmjifW6ll" version="14.1.1" type="github">
  <diagram id="FrPtFNA_TW-e0RV-xI3X" name="Page-1">
    <mxGraphModel dx="1822" dy="1186" grid="1" gridSize="10" guides="1" tooltips="1" connect="1" arrows="1" fold="1" page="0" pageScale="1" pageWidth="827" pageHeight="1169" math="0" shadow="0">
      <root>
        <mxCell id="0" />
        <mxCell id="1" parent="0" />
        <mxCell id="ouYBEClxOfQiudUIluGu-13" style="edgeStyle=orthogonalEdgeStyle;rounded=0;orthogonalLoop=1;jettySize=auto;html=1;strokeWidth=3;" edge="1" parent="1" source="ouYBEClxOfQiudUIluGu-1">
          <mxGeometry relative="1" as="geometry">
            <mxPoint x="-170" y="190" as="targetPoint" />
          </mxGeometry>
        </mxCell>
        <mxCell id="ouYBEClxOfQiudUIluGu-1" value="" style="shape=actor;whiteSpace=wrap;html=1;strokeWidth=3;" vertex="1" parent="1">
          <mxGeometry x="-210" y="250" width="80" height="120" as="geometry" />
        </mxCell>
        <mxCell id="ouYBEClxOfQiudUIluGu-2" value="" style="shape=process;whiteSpace=wrap;html=1;backgroundOutline=1;strokeWidth=3;" vertex="1" parent="1">
          <mxGeometry x="-223" y="120" width="120" height="60" as="geometry" />
        </mxCell>
        <mxCell id="ouYBEClxOfQiudUIluGu-3" value="&lt;b&gt;&lt;font style=&quot;font-size: 13px&quot;&gt;DEV&lt;/font&gt;&lt;/b&gt;" style="rounded=1;whiteSpace=wrap;html=1;strokeWidth=3;opacity=0;" vertex="1" parent="1">
          <mxGeometry x="-230" y="300" width="120" height="60" as="geometry" />
        </mxCell>
        <mxCell id="ouYBEClxOfQiudUIluGu-4" value="&lt;b&gt;&lt;font style=&quot;font-size: 13px&quot;&gt;LOCALWP&lt;/font&gt;&lt;/b&gt;" style="rounded=1;whiteSpace=wrap;html=1;strokeWidth=3;opacity=0;" vertex="1" parent="1">
          <mxGeometry x="-223" y="120" width="120" height="60" as="geometry" />
        </mxCell>
        <mxCell id="ouYBEClxOfQiudUIluGu-7" value="&lt;b&gt;&lt;font style=&quot;font-size: 13px&quot;&gt;REPO&lt;/font&gt;&lt;/b&gt;" style="rounded=1;whiteSpace=wrap;html=1;strokeWidth=3;opacity=0;" vertex="1" parent="1">
          <mxGeometry x="30" y="60" width="120" height="60" as="geometry" />
        </mxCell>
        <mxCell id="ouYBEClxOfQiudUIluGu-14" style="edgeStyle=orthogonalEdgeStyle;rounded=0;orthogonalLoop=1;jettySize=auto;html=1;strokeWidth=3;" edge="1" parent="1" source="ouYBEClxOfQiudUIluGu-8">
          <mxGeometry relative="1" as="geometry">
            <mxPoint x="210" y="90" as="targetPoint" />
          </mxGeometry>
        </mxCell>
        <mxCell id="ouYBEClxOfQiudUIluGu-8" value="" style="shape=process;whiteSpace=wrap;html=1;backgroundOutline=1;strokeWidth=3;fillColor=none;" vertex="1" parent="1">
          <mxGeometry x="30" y="60" width="120" height="60" as="geometry" />
        </mxCell>
        <mxCell id="ouYBEClxOfQiudUIluGu-9" value="" style="edgeStyle=elbowEdgeStyle;elbow=horizontal;endArrow=classic;html=1;strokeWidth=3;exitX=1;exitY=0.5;exitDx=0;exitDy=0;" edge="1" parent="1" source="ouYBEClxOfQiudUIluGu-4">
          <mxGeometry width="50" height="50" relative="1" as="geometry">
            <mxPoint x="-90" y="140" as="sourcePoint" />
            <mxPoint x="30" y="90" as="targetPoint" />
          </mxGeometry>
        </mxCell>
        <mxCell id="ouYBEClxOfQiudUIluGu-10" value="" style="shape=process;whiteSpace=wrap;html=1;backgroundOutline=1;strokeWidth=3;fillColor=none;" vertex="1" parent="1">
          <mxGeometry x="540" y="200" width="120" height="60" as="geometry" />
        </mxCell>
        <mxCell id="ouYBEClxOfQiudUIluGu-11" value="&lt;b&gt;&lt;font style=&quot;font-size: 13px&quot;&gt;COMMIT&lt;/font&gt;&lt;/b&gt;" style="rounded=1;whiteSpace=wrap;html=1;strokeWidth=3;opacity=0;" vertex="1" parent="1">
          <mxGeometry x="-90" y="140" width="120" height="60" as="geometry" />
        </mxCell>
        <mxCell id="ouYBEClxOfQiudUIluGu-15" value="" style="shape=process;whiteSpace=wrap;html=1;backgroundOutline=1;strokeWidth=3;fillColor=none;" vertex="1" parent="1">
          <mxGeometry x="620" y="9" width="120" height="60" as="geometry" />
        </mxCell>
        <mxCell id="ouYBEClxOfQiudUIluGu-16" value="&lt;b&gt;&lt;font style=&quot;font-size: 13px&quot;&gt;PROD&lt;/font&gt;&lt;/b&gt;" style="rounded=1;whiteSpace=wrap;html=1;strokeWidth=3;opacity=0;" vertex="1" parent="1">
          <mxGeometry x="620" y="9" width="120" height="60" as="geometry" />
        </mxCell>
        <mxCell id="ouYBEClxOfQiudUIluGu-17" value="&lt;b&gt;&lt;font style=&quot;font-size: 13px&quot;&gt;SANDBOX&lt;/font&gt;&lt;/b&gt;" style="rounded=1;whiteSpace=wrap;html=1;strokeWidth=3;opacity=0;" vertex="1" parent="1">
          <mxGeometry x="540" y="200" width="120" height="60" as="geometry" />
        </mxCell>
        <mxCell id="ouYBEClxOfQiudUIluGu-18" value="" style="edgeStyle=segmentEdgeStyle;endArrow=classic;html=1;strokeWidth=3;" edge="1" parent="1">
          <mxGeometry width="50" height="50" relative="1" as="geometry">
            <mxPoint x="510" y="90" as="sourcePoint" />
            <mxPoint x="590" y="200" as="targetPoint" />
          </mxGeometry>
        </mxCell>
        <mxCell id="ouYBEClxOfQiudUIluGu-19" value="" style="shape=image;verticalLabelPosition=bottom;labelBackgroundColor=#ffffff;verticalAlign=top;aspect=fixed;imageAspect=0;image=data:image/png,iVBORw0KGgoAAAANSUhEUgAAAXgAAAIICAYAAABkV/X6AAAgAElEQVR4XuxdB3gUVdd+Z3Y3vRcSSNuE0EIXpaqICCjFHxGQIiACUkWwgSBgAayABVHUT7Cg2BVFBQTpvYSWAmmbSkghvW2Z/zkTAilbZja7ySaZ8z15wmfu3HLuzJkz577nPQwkkTTQfDXAREREKHJychSOjo4KmUxmJysvV2g4O2eOVfszLOvDAa0ZjvEBw/mBgy/DML7gODeOYTwBODFAK4HqKeSAG+A4NQMmHfRvFnk6jkthgTwOyOB0bBbDqTMYnX2e1k6r1mg0Fc5lzupyl3J1UlKSGoBW4FhSM0kDgjTACGolNZI0YPsaYMPCwlyZigpfRibzhY5ppWF0fizgD7CtwSIAHIIYoDUAXwBsIy2JA1DEAekAl8qCSdZxuM7Q/6ffMmRAp8vSymQ5iYmJOQA0jTRPadhmoAHJwDeDTWyhS2BCQkL85Rp01MkRwYDpzBtvjvMBeeGAHwB3AE3pHi8FkAkOWWCQTb85IIaD7hKj08UkpKYmASBPXxJJA4I00JRufkELkho1Xw0olUoHRqu9i2Fk9wPcEAYIAcM4coAjAzg0olduLaWTt18OoOzmTy6n4/brwOwprSg9mpmZmQWA2kgiaUCvBiQDL90YNqmB8PBw+7KyMmc78shZxQCwGAWOG8owjLNNTrjhJ6XmOO4Ew2CHTsseYO3ZpNLS0qL09HT6CpCMfsPvh02OKBl4m9yWljmpiIgIu7KCghCWkUfoGPQE0A/g7mYYxqllakTwqisA7hLHMYc4ne60TMZEoVARF5cbVyC4B6lhs9SAZOCb5bY2rUWF+/v7ws7xPo7RDQXQCWA6AvBqYvFzW1E6hXRiwSGGYbiDOo1mT0Ja2lXJq7eV7WnYeUgGvmH1LY1WTQPBwcERcmAqA2YsGMYHgGszjKM31p5zHFDCgKCaOMrpNB8lpaYekVA5jbUdjTOuZOAbR+8tcVTGz8/PyUXm4sUpNPcwYJ4CmAEAJ2+JymiMNXNAJMMxG8q0FfscHR2z4uLiyNuXpBlrQDLwzXhzbWRp8rCwsDBGrevJsRwZ9ocAhNnI3FriNHQUwtHpuJ8A3b/lWu3p9PT0kpaoiJawZsnAt4RdboQ1hoeHu3FlZf05mWwUA6YHgAgAHo0wFWlIPRrgAB0DLgEcdxgs+31pRcVBydA3v1tFMvDNb08bdUVeXl5u7q6uU1gO0zmGCWMANwCyRp2UyMEVcjncXJ3h7eUBF2cnODk5wMnRgf9dPW9Kq9HgRn4htFodiopLUFBYjMLCIv6/cRQBbxqiA7gbHLBLp1a/npSeHtM0pi3NUogGJAMvREtSG2MaYDr4+LioHRyUjEz2GAdmLlOJgLFJYRgGdnYKONjbwd7eDr7enmjfNgShIW0QrgxG27Ag+Pl6QS43/2hArdYgK+cG0jKuIyk5DaqUa0hJv4bUtEzk5ReiQq1GRYWa/63RaGAz7wKO0+iADRzLbPL29k47c+aMlDVrk3ex8ElJBl64rqSWNTXAhAcEBGhlsr4s2BEAN/ImEsbm9MSyDDzd3RAY4IfQ4EC0DQ3kjXqH8BD4eBOnWMPJjbwCJKdmIDn1GlLSrvEvgcysXFzPzkVObh7yC4oabjL6R+LAcVEAt1mm0/1yJTU1rbEnJI1vvgYkA2++7lrslUFBQW0UkD0GBg8yDHrbamzdTqFA14h26Ne7GyI6tEVQgD+C2vhBLrediJFWq0VWTh6ysnORnZuH9IwsXIqOQ/SVRCSlpPMefuMIV8RxzDGGw6b4lKSdEgdO4+xCfUeVDHx9NdiyrleEBgc/wYJZDIZRAnC0xeW7ujhj8L29MXnscLT294WzkyMUCvNDLg25Rp1Oh9KycpSVlSOvoAhHT57HgSOnceHyVZSUEgtBg0uOjsM2ViFbEx8ff73BR5cGrJcGJANfL/W1iIsZpVLpLtdioI7FWwzQwRZXzR+MurlgyMC+mDZxFO+tNycpKCjCoRPn8O/+47yHX1hUgtLSMmh1hHpsEPlPp1EvTkxLuywlSzWIvi0yiGTgLaLG5tlJmzZtnBwUivsYjpnGMRjBADZH9CVjWYQpAzGgTw/83/BBaBcW3Dw34+aqCJ2TnZOH05GXEXkpFrFXk5CgSkNeXgF0Vj+t5dI4nW61nU73Y0xaGnHVS2LjGpAMvI1vUCNNTxYWFHQHWHYOAwwDmIBGmofRYVv7+eCRkYNxX/9eCA8L5tExLUnI2Kddy0J8QgouXI7FkZORfOyeYJtWlEKOwzYtw72tUqkSrTiO1LUFNCAZeAsosTl14evr6+Lq6PwcA8wAgza2iGEnbPqjDz+AiWMeRCtfL9BhaksXgl0SFj9RlYbtv+7CoWNn+f9vJakAcLRcq5mVmpoaZ6UxpG4toAHJwFtAic2gC1apVLoxWu29LCt7B0B7S6yJZVnY29uDfpeVlYEQI+YK4dfJsPfo0h4LZ09Gp/ah5nbVIq4j+OXPf+zFP3uP8PDLktIyyydfcVwqo9WMc/f3PyNh5m3ztpIMvG3uS4PNKtzLyw1uboM4DtMAjABgV5/ByZh7eXkhMDAASqUSbdu2hb2DA06eOInDhw/zhl6sUFbpnT0i8PCD9+H+e3vzLwxJhGmAsmv3HTyJwyfO4fylWGRkZgu7UHirTB245TKF4se4OIl/XrjaGqalZOAbRs+2OIpcqVTezeh0c1iGvQeVxajNvh9cXFwQERGBXr3uQIgyBAEBAfDx8blljPPzC7B161b8tfMvUbro1SMC4/5vCPr26spTB5AnL4l4DVACVczVJBw/fR679h1FSlqmJT36TI7DpsLS4vVZWVmNnqklXjvN9wrpaWm+e2twZUqlUslquZcZlhkFgApUm30f+Pv7Y+iwobj77rvh7e0FR0dHyGT6E4n+9/n/8MMPPwrSuI+3B+Y9+RiGDurH88JIXrsgtZlsRLF6ypr9c9cBfLn9Dx5uaSEpBcdti09WzZOSoiykUQt0Y/aDbYGxpS4aVgOycP9wL52DZiw4rGAqPXbRQhwtrq6uaNe+HUaOHIk+fSiR1bhQ7D01JRUvv7wC168bz5WhJCWCPC58aiKCA82aoqnpNMDfOb4qaiXd2E3SsZsQRo7HrRMbADXQVf6VI76vqtb032sRlTEM6H+VwgAsW/n/6WuGYcHyv2/+8C1utuV/GX7Ec/Py8cmWH7Fn/3EQhYJGY/4ZyS2lcvhdJ2NmJyYm0kY3Gca1BrgpGmUIycA3itobdFAmKCiotYJlH2TAzALQ15zRKQSjVIagW/fu6NevLx9bN+SpV/VfWlqKaxnXEBUdjX/+/gdXr141GBZwdHRA9y7t8cjw+zFkUF+bR8ZUskXeNNJVxpp+68ho6wAdGXEd/8Mb8mpG3Bz9m76GDD8DhpGBYVgwdE5Bv2/+8C+Fqn9XC3PpdByuJqjw+1//4eCxs0hKTjc9lNEWDLGn/QVOuzw+JSUKIGVI0lgakAx8Y2m+YcZVhAaHPsIyuicApj8Ad7HDOjg4oG+/vujbty86dGiPNm0IOWlcioqKcfToEZw+dQZpaWlISUlBebn+4kEUUw8O9Mf40UMxbFB/+PtR5T7bkkpvWwvyvjkd/dZWM9w1jbxtzbzK6b9p3NlKj59hZWBYBVhWBtC/GQbl5RU8hn7P/mP4Y9cB5N6oV71uNcdxB6GVzUtIS7hikzppIZOSDHwz3ejQwMBuDCt/h2HQB5Wc7KL2mgx7v/79MHHCBPi28uVj60IOOIkca8fvO/DNN9tQUlJskgp38MA+WDirMhxjK3wxlYZcDU6rgU6rBqfT1Ay5WD1jtAFuyqqwD/2W20MmtwcrV6CsvAJRsfH4YPO3OHshGuThmyl0ZZwW3GiVShVtZh/SZfXUgKiHvp5jSZdbXwNsSEiIn4xjnmAYLL55gCp4VDrIpPh69+7dMGnyJB7mKMSo0wBEkkVe+oH9B7Fx40ao1YapxCm0E+Dvi1lTH8UjI+8XPD+LN+Q4ioZXhlI0ZMwrwPEG3QKxaItPtgE6ZFjIFGTo7VGu1uKzr3/F97/u4guZmFvAhAMSWXBj41SqSClc0wB7WGsIycA3vM6tMmLbtm1bcRrNEIbDHDDM3WIGIcPeyq8VunfrjvsGDUT37t1Nxter+qcD1JzcXCQlJvE4973/7jVKcVvF9DjlsZE8J7vQF4iY9RhreyvEQmEWrRo6nYb31CWpqQFGJgcrs8Pxs1H44rs/EHnxKl+gxAyh752TDKd7Lj45+TiAFvr2NENzFrhEMvAWUGIjdyELD1Tew7Fk2EEFrSkcI1jo8PS++wbi3nvvRcdOHfnMUyFCoZi0tHRcuRKH+Pg4nD59Gmmpqbwnb0hCQwIwd/o49O/dAx7urkKGsUibSg9dDa2m4mYsvTKOLolpDXBgkJqRjW9//Re/7zqC8gqzjDydMp/TsszzSUlJ+02PKrWwlAYkA28pTTZCP0ql0oHVYQnDgLDH3mJ4Y8hzvvOuO/HEE9MQGBgIirkLETLgKlUyzp49h+ycHGSkZ+DihfMoLjb8GS+XyTBscH8smDkRAa1bgSosWV04jvfOteoycOqKSmRLc4idW11x+gcoKS3Hn/8ew7pPfzIbTskB19Q67ZCUlJRLjbSMFjdsAzxpLU6nVl9weHi4vaZU01Mm4zaBYXqKGZBw7IFBgZg4cQKfnCSk9ijFXysqKpCRcQ2nT59BWnoGH2NPSU5GbEy00fisl4cbJo8fgSnjR/KFq60rlfhynaYC2opSPgQjiWU1cPjURaz98Dtcz84zKy4vxeQtux+mepMMvCkN2djflUqlv0ynmwqGnQ9AMPk5eeyUdXrPvffgwQeH8VQCQoSKSiSnpODKlau8506hmcLCAiTEJ+BaRrrBkAwdpHaLaIdpEx/G/ffcZdVMVDLqfDydfjTlUkxdyMaa2YaoiI+duYyNW3cgLinNHCNPsJzjWi0WJ6UmnZIOXs3cCIGXSQZeoKJsoBkTrlT20XHcywBzn5jiGxR+ufueuzF06FB06dJZ0AEqeeiJSSrERMci49q1WyRh2VlZiI2NQUF+vsGHmzz1UcPuxeRxI/hiHNaSSsNeAa2ajHoLRr9YS8EG+tVotbgQnYC3N32Pq4lm1eSmmPwx6LRPxEt0w1bdPcnAW1W9luk8IiLCrrS4eCoLZgWAIDGYdk9PT8yaNZPHtAvBsldWDMrBsWMnkJ6ezifAVElqSjKio6KhVt/+b7VXSMZ9/szH8OioIXBxtl7JVp1GDU150U2MutlYbctsUAvspbLYSDbmL/8QqRlZ5miAcPIXmLLSYfGZmVKtV3M0KOAaycALUFJjNgkICPC2k8sXM2AWM4CT0LmQ196tezc888wz8PGh81fjQg9sSUkJoqJjcOrUmRo4djpYTU5WITY62iCnOx2ctvLxxooXnsLA/r1MDWfe3/mDUy20FcXQqfVnxprXsXSVuRog4/7865sRn5RuVslAjsMhNaedkJKSUl+OBHOX0Kyvkwy87W4vExoa2pXR6ZYyYB4DIIgEnU/9Dw7GyJEjMOzBYYJgj8TRnqRSITLyAmo7U2Tc09JScSU2FuUGuNypotJdd3TGojlUiCPMChrloKOsUnU5tOpSCQ1jBQ2b2yU5BhdjEvHOJz8g+mqyGTF5TgOO+Rmaihfi09NTzJ2HdJ1+DUgG3jbvDLZtoHIoJ8MrDHiqAUFCxr1fv34YN34c2rdvJwghk5OTg9Onz/IHqKV6DHhuTg7OR0aitFQ/rSzRC4wYeg+emvooggL8LZ64RBh2QsSQcecpAySxOQ0QncGZi1ew5v1tSDEvXFPC6bgtDmUlS6MkPnmL7q9k4C2qTot0xoYGBY1kWXYDwFBdOkF7RAlKjz8+GcNHDAclL5kS8syjo2Nx9NhxEOujvlR0Omg9evgQj3E3JNMmPIy5T47jy+lZWgjuqCkr5Em+JOZZS2vXsv2Rkb8QHY+FKz5Ccan4ql0AyqDj1sanqF637Mxadm+CjEfLVlGDrl4WFhLyIMPhSzCM6cA5WX+GQevWrfHkjCcxYEB/k3BEMuQFhYU4fvwEn4VqKPOU/vvlSxd5rLs+IYNOBTmmThhpcQVRlqmmogS6CjIU0gGqxRVsxQ6PnLqEFe9sRX6hYafA6PAMpnskJW07A0hJDBbYJ8nAW0CJluiCkpd0avVYgNnIAB5C+iTj3qNHD0yaPBFdu3Y1GR4h3hg+C/VcJE8zYEyuZVRmqOojDWvt54OZU8bgkRH3w85OIWSqwtrQISrBHstLeEy7JE1PA2q1Bj//fQifbfsLeQVmVO/juByOwexgler3/YAUk6vnLSAZ+Hoq0BKXV4NBrgbgJ6RPhUKBYcOG4dGxYwRxtBPTIxn2qMvRKDIScqGxCU1z+eIFZGXVhb/5envyh6lD7+8PRwdhvDVC1kNhmCp0DF8cQ5ImqwEqA/jF9/9g++//oUIt2kYTocRFLbi5KpXqmPQJV7/bQDLw9dOfJa6+GXOXfSg0M5Xi7ePHj8foR0bDxcXZ5BzIoB86dATx8QkGYY5VnVAIJ1mlQnTU5TrhG2cnR3zw5lLc0b0jFHK5yXGFNiA2R8K0U8xdkuahgcLiUix/6wtQyMYMoTf8QZSVPiZh5M3QXrVLJANfP/3V++rAwMCuDjL5DxzQUUhnzs7OGDtuLMaOfRR2dnYmL8nNvYH9+w8iJTXVZFtqUFpSglMnT6KoqLBGe29Pd7z96mL06dVVUD/CGhFvjBrqskJAYncUprIm1KqoqBQzX3gXcUnpZp2kcOD+p2OYBUlJSWad2jYhVVltqpKBt5pqTXesVCqVMo77FmD6mW4NeHh48CRhI0eNNAmBrExOSsGRI8f4zFQhQt47ee5JiYk1mlPMff6MxzBi2L0W89x5+KO6DNryYgnXLmRzmmgbwsavfHcrEpIzzFsBp1ti7+LyXlRUlPR5Z4YGJQNvhtIscUlgYKCXnUz2GQNmjJD+vL29MXPWDAwaNEjQYWpMTCxOnDyFwkLhB13EM3P2zOkaBTucnZ2waPZkjB4xyGIxd0LJaCtKoJVQMkK2vkm3oYP9PYfO4v3Pf8H1nDzxa+G4bB24uYnJyT9L8Xjx6pMMvHidWeIKeduQkJcAZhkAkxy65LnPnvMUBg4caJIorBLfHoOjR4+jpLRU8FwJLXPi+DGeRKy6LHxqIqZN/D/YWwgtQ4ephG0n1kdJWoYGCFmzedtOfPPLv6B/ixT6sDzF6ZhZiamJF0Re2+KbSwa+4W8Bpm1IyCAAnwJMW1PDU9LStCemYdSokSY9dzLusbFXsXfffyYPU6uPS09QQlwcrl69cutgVS6X4ZERg7Hqxdmmpij475SJqi6hxCUJAilYaU21YVVRb5YFw8pRptbh2ZXv4/ipC2bG4/GxorhoSWx2ds3Doaaqnwaat2TgG0jRVcPwoRlWtplhmLGmhia0zISJEzB+/DiTMXfywKOiYnDo8BFRxp3mkHfjBo95LyysfHZkMhaD7r4LryyZa7HSejz7I5+VKtqDM6Um6e82pAGGlYGVKcDIFGDlCt64V0laxnUsWvYOoq8kiJ4xx3ElDMfMj09J2ir64hZ8gWTgG3jz2wYHzwLDvg/AKJcuVVp67LHxvIE3hZahOOfFi5dx/MRJEN5djFABD8pYTU+7Xbyhc8e2WPXiHHRqH2ryq0HIWJWUAzepfYVcILVpchogQ87aOYKlYt1k1Bn9puV05GUsX70RZOxFC4cUnU4zMjE1VQrVCFSeZOAFKsoSzdr6+bWCg+NFAK2M9UcZqlR1aeasmSZ5ZSi8QpQDBw4e4jllxAph3qMuX7oVmnF1ccKqJXMx9L6+JmkPhIxFGanq0gIJBilEWU2yDQPWzgFyOyeQ925KqFjITzv+xfqPvkKJWZw13P6isrKRmZmZZnIhmJph8/q7ZOAbbj9lbYNDNoBhnjZl3Dt36YxnnlnI0/6akvT0DPz19y6jhGCG+qDQzLFjR2+SeYEvhv34uJF4ceETpoYV9HdKYKooyQOkzFRB+mpyjRgWCgcXsAqTOIEaSysqKsFbH2zBjr/3Q8sTyYmSEnB4KT456SMAWlFXtsDGkoFvoE0PDQztzcq4PwH4GhvSy8sLixYvQp8+vU3O7Pr1LPyzazdu3BAHPyOvn4z7hQvnUVx0G0ZJSUwb31oKRwsUxybPXVNaAIJEStL8NEAxdjkZd5l5XERJqjQsW/0hLkRdNUM53GlOq30yITWVvoYlMaIBycA3wO3BE4lVVLzJVBbKNvhEUGhmxown8ciYR0wequbl5WHPv/tAHrwYIeN+40YuYqKjkZ+Xd4smmJKZ1q9+Hl0j2onpTm9b3rhTzF0iDKu3Lm2xA4q388ZdbjqT2tj8z1++gqeXvIncGzWhuQLWXAEd95ZWxqyVslyNa0sy8ALupvo2CQ0M7cbKuC0A7jDWV99+fbF8+TKTh6rlFRU4eOAQomNiRVXQIeNOLJEx0VF8Ee0qDniZTMZnqk6f9H+gAh71ER7nXlrAs0JK0gw1wDCQO7hCJjIso08TRAS9e98xLH3tPXPw8ZnlWs3dqVLRbqM3mWTgrf8Msm2Dg2eAYYlMzCD9ImWqvv3OWwgMDDQ4I0LLkGG+cOEidu/+F1nZWbwXXlhQcMtgE1eNi6sr3Nzc+VCLXKEAdByf9JSWmorCwoI6/ffo2gGvvTQfYSEB9dMGx0FdVtB49VIZlkf98BA9guoxMkDG8lQIFCritBU89w3PVkmchZKI1gDF2xWObqKu02p10JL+qcz2zRoGLMvycFwq6r7x8+345sed0GjEhfM4MJsSVIkLpAxXw9shGXhRt6r4xkql0kOmowIeeNjQ1QSDnDRpIk8iRjTA1YUv0JFfwNdMjYuLQ0x0DCIjI1FQUNdQi58d4OBgj2dmT8Lj40bUCxJJ89SWF/Hl9RpWyKDLeYNOIQM+JmwAolc5Lw5adQV06rKb7JWSoRe6Xwwdqjp7gWGNlwcmRyQ3rwCp6ZlIz7iOnNx8FBaXoLSUvhoBe3sFiJnU3dUFrVp58d77F9t+w4XLV8V+kRarOV3flJQUsygrha67KbeTDLyVd69dSEgnHRjitXY3NFTHjh3w3PPP1UDNED5dpVLh5ImTiIqK5v99/fp1UQ+AkKUR1n3z+hXw8jQ4PdPdkHGvKIWGiMPMylM0PYS+FqzMjkdwVCbUmIbo1Xxx6ngjrykvkVA+AtUvs3eG3N44PXVsXBJ27TuKyzHxlQb+WpbR8IuXhxv8Wvkgv7AQGdeyRd/fOg5fJSYnTQcgGo4jcNlNuplk4K28faFBIc+xLPOuMe994qSJmDDhMR53np2djVOnTuHfPXuRmpaK4qJivVWVLDXtt1Y9gxFD761Xd1p1ObSUpdpAcEgy5mRsyGMnr7I+QklYPE6/geZen7k26rUMCztnT4Mv0rz8Anz65c/YufsQCvh7tmEyljkgg+F0o+KTk880qn5sdHDJwFt3Y4h35jTAGDxcdXV1xZSpU/gwzIkTJ3D1qjmwMfMW4enuhoM7v6hfaEanhbo0H4R5t7owDMhrJwSHWI+9am6Eu6abnl6mt/5bBXnyhVJc3sgGsnJ7yB3d6twrVGw75moi1q7/HJGXYq1+C+gZoILjdOsSkpNXSLj4utqRDLwVb0mlv7+StbOPY/jTPtsTIhT79av1CA0xfLBrdNZ0qEqImQZghiRonszOkf8RKmTMc3PzkZmVg+vZuaBSckSfTKghJydHeHq4IbBNK/j5esOeraQwlkS/BirDM050RFqjQeTFGKxZ/z+z+GUsp2vuCKfVTk9ITW0478hyk7dqT5KBt5J6K0nF2BcZhl1ipSEs0u20CaPwwtPmZa4S1r0hjCKrsIfMzpnnOREiBYXFOHchGoeOnUVKWiZv4DOzclFUXFINGsrC3c0Vga1bISSoDe7rfwf69QyHvaJ+IR8h82t6bRjIHetCIzMys/HM0rcQZQZ5mIV1UMBpuXkJqarvpFh8Tc1KBt7CdxoAeVulciSnw0sMgy4AyO1pUCGiMg9PDxD0kuiGM9IzkJ6erncOQQF++P5/b8PN1UXUHKkaExl4a8euyWOX27uYQMZUTr2srBx/7j6EbT/tROb1HBQVl9apK6tvkSzD8B59x7ZBWL5wEoIDjFIFidJTc2hM5xwUnqme2ETU1C+s2sAfqNqEcNzXckeH+bGxsRKdcLUNkQy85e5OWUhISLCcY1aCgXkusYi5UJiB4JWOTo7w8fZBSEgI2ndoj86dIxAUFHQrWYoexH/++QcfbdxUo1JT1VBurs54c+UzuLd/L8GjE6acQjNWzVSlhBp7Z8jsjL8fCZ5J3CZHT0Vi3aZveFhefcTF2RHLn56EQQN6QiG3ychafZZn1rV03sEb+Gq0BKfPXcai5e8gL99m7GkWQSaTk5PFcxGbpZWmcZFk4C2wTxG+vi4Vjo4P6Rj2dQboYIEu9XZBnrm3txdCQpQIDg5CYFAQunfvhjZt2hgdMioqCuveXYfU1LQ67ShzdebjYzBvxnhhh60cx8MhrRmaIY9RZu8ImcLJqOdOzISRF2Lww++7se/QKd6Dt4S09vPGs7PGYmDfbnwyTksXnprA0fWWgSen4f3N3+LL7TtEJydZU5ccp1uUkJxMVNyS3NSAZODreSv4+fk5Ozs6LmQ4EEtk63p2p/dyCrN07dYV/fv1g5+/H4+XpzJ+lLUpRIi3hgz8yZOn9DYfOqgfXntpHlycTUeT6EBVXUqIEyvBjhmG99qJftZYwlJeQSG+3P4Hdu09iuRUcXw8QnTWMTwYG1bNRSsfDyHNm3Ub3oN3oBBNZRIeee3L12zEgSOnbWrdHMddSkhW9ZDQNLe3RZiFsKlttKnJMGHBwesZhn3KGrF2N3d3PPDAYIwYMQIeHu4gGgKhRr26liiMsXnzp9jx+w691Z66d2mP1csXIDTYOFUB4dwrim9YldudT4V3cDVq3FWpGXjng+JJ5g0AACAASURBVK04cjLSanhr0vOzT43FpNH329QN1yiToQxW8uDllUwbScnpeHnNxjqwSNIZnV90Cg9G106hCGztCxnL8Nmr2TcKcDkmEVcS06BKy0RBQbE1UuJ0DIMBcUlJxxtFTzY4qGTgzdwU3nO3t1/NMOwiM7vQexlRFbTya4XBg+/Ho48+CgcHcVzb+jqlT+o9e/bg402f6C0K0sbflzfwve+gM2HDoqZi2VakIiAOGTsnD4PGnTDXlCn5ylsf85mS1pb+d0bgw9eN0vdbewo20z/lHlSdh1DJPTLwsXEqPoTVytsD/e/sjCmPPoCgNqYPqNUaLc5evIIde47h/OV43MgvQnkFcQRZgDaC4z6LT1aRwyVJHVCrpBJBGqCYe6mT0zMsmGWW8twpvh4aGop+/fvh/vsHoXVr86I99JBQfVbi/SgoLOAzYYuLS/gEqu+3b0dJSV2st5OjA2/gKVRjSCpDM5TxaYGHUM8glQd57gahkJQZ+d/hU3jnw60geF5DSNeOodi64cWGGMrmx6hKdKID9piYGKx8+3Ncz87D0IF34uEh/dChbZBZayDj/vd/J3HiXDTORyXwuQr1Eo5LQHlZv/jMzPqdttdrErZzseTBi98LWdsg5TiwWG+pmLuvry8efOhBDBjQnzfyYoXInYqLi0H3dGpaOv9vYp0kQjIy7uTBV1RU4PDBA/x/ry0Uyl/+7CyMHz2Mr+pUW+ihpoLZlNZvFeERM+Qh6k9iIuP+xz8H8MGn3yI7V1xxk/rM994+3bDhlbn16aL5XEtQSQcXnnMoNS0D3/22Dz27hOPevt0tgjbKysnHxZgE/LTzIM5cuAo6QDdT8sBgenxS0m9mXt+sLpMMvMjtDA0NDWF13N8AOom8VG/zrl27Yt78uTy0sTaTpLH+eZbJgkKoVMmIjo5BYVER77nTj6FPXTLwhlgo50wfh6emPQq7WmyWNAce804Hq9aImhJtgJzoB9z0shTSy4mw1m+9v6VBjTut+6X5EzF2ZP14eixxj9hMH+QJELGcVoey8go4OtjrdQjMnS99G+blF+HfQ2ew+ZuduGEGBJPjOC3AfZiQnPys1W5YcxfYCNdJBl6E0iMiIuzKi0q+AYNxIi7T4zEzPArm4YdHYdLkSYK64ul4tVqUlJTySUsXL15GxrVrouKWp06eRNb1TL3jTXlsJJ6ZPRkO9jWr9FABj0quGbWgeYpuZMR7pzWfPheFRcvfRn7B7dKCQsagLxFai6uzEwL8vdE2NAAUcuncPgQB/j5QyCuzYsmoUOarKjUT8UnpiLwcj2tZuahQa/Duitnw9hTHfS5kblIb0xq4GJOIdz7+ATHxyfwLRYxwHHarOe30lJQU/dl9Yjpr4m0lAy9iA9sGBT0BVkaVmcwWSlCiotoTJ0xA9x7deV4UU546xc3JmKenX0Ns7BW9cXQhE7p44QJSklV6m44ZORhLFz0JisdXF6LTJZ53awlhrBXOBPmsiTenUH/kpRi8uGqDqJi7jGURFNAK3TqFoXunUPS/s4tZUEcKEVBf5qCWrKWrltYvefAff/0Hdu8/jcJiMXUGuHiO455ISE4+3NJ0Vnu9koEXeAeEBQa2Y2RyiutFCLykTjMy5kOGPICxY8ciMCjQpPEoLy/H1avxfKEPKrBdqid+LmYusTHRiI+L03vJg4P745Ulc2tg4fmM1eIbVqUBljm4Qq4n9n41XoWX134kCi3TupU3xo64F726tUO70IA6XyNidCW1tQ0NlJaV44c/DuDrn/fwaBuBUqEDNy9RpSJnTJz7L3CAptJMMvDCdooNDQp5hWUZIg4zq9IwxdenTZuGkaNGwNHROCMiFfuIT0jEyROnbsXWhU3TeKvEhHhER0XpbXT/Pb2x5uUFcHW5XdCBZ4pU1z2UtcRc+D4YBvYuPnVgkQWFRViz7nP8vfcwCBppSuztFHhoUG9Mf2wY/H29QCyZkjQfDVRUqPHn3uPY8NkvKCkVdj9yHD4pLi99PjMzk6rQtFiRDLyArQ8PDu7MsewWcLhLQPM6Tdzd3fD4lMcxfPhwEBzSkFCMPScnB8ePn+JL9FkEF1xtsKTEBERdvqx3+MH39uahklUGviEKYeir70nx1l937sPbH2zl68gaEzrz8/XywIwJD+H/HhxgETSHOfsrXdMwGtj8zZ/Y+uNukME3KRxOMRXyEXHX4rJMtm3GDSQDb3pz5W1DQuYAzDsARGcdkXGfMnUqhg0beosArPaQZMjz8/Nx5Woczp45h/IK68ARjRn4EUPuwYoXZoPItggpQbBIQs9YUwj3LlPUrENOWZKLlr2NuMQUo0NTfLx757aYM3kkenVvb81pSn3bkAY2bvkN237dyx+CGxMOKGV02t7xLbxeq2TgTdy8AQEB3g5y+Q8AIzpnnSho582bh4H3DTRo3AkGmJKSgjNnI5GWli6I3tbc582YgR8zajCWPlN5yEreOxl4isFbTRgGdnwB55rhFMpS/WnHvyaN+6ABPTBnyiiEBvlbbYpSx7angfzCYry96XvsOnDa9BcuhznxyUmbbW8VDTcjycCb0LVSqewr43AQQCXTkkAhioElS15En759jCJlLl2KwtFjx3gmREuHZGpPNSE+DjHR0XpXMHXCKCx8ahIc7BV8IWotX0DbekKGXUE1PquhZy5Fx2PK3GVG+WUI1TLgzgi8OG8C2vh5mzyott4KpJ4bQwP0jFyKTcTr732DeJVJkrnt8aqkiY0xT1sZUzLwJnaibXDIZ2CYmWI2zN7eHlOnTsHoR0YbjLlTRunJU6dx7tx5MV3Xq21MVBQSEvRzuMx5YiyeemIsFDIWFSV5ViUUo0XwtVWdqMZnJTySzh8WvvS2SYbCLu2VeGv5LPi38qqXLqSLm64GdByHz7btxJYfdhl1BjggM0GVRAx6VvwUtW09SgbeyP4EBwd7KsBcAcP4CN1GgkIOGjQIM2fNgKenp97L8vMLeOre2CtX9bI7Ch1LbLtLFy4g2QAOftniGZgw5kEeNWNN3HvVnGuzRl6KjsO859cgN6/A4LLaKQOwZumTaBtinP9erF6k9k1PA9eu52LByx8iMeWa0clrwEWoVCr9n61Nb9miZywZeCMqC1MqJzIcvhWjVT8/P7z62isGOWWIJ+bAgcNISExsUONOazhz+jQyr9X9rLWzU2DN8gUgLLy6KNequPdbBt7OEYqbpfgoqWnzlz/i060/o0KtHyFB8MdXn5uKO7tbrZ6KmG2W2tqABsiDp0NXY6LjmKcSkxM/s4HpNsoUJANvzMCHKH9hgEfE7MyCpxdg5MgRemPDFIbYvWcv4uLirXqYami+x44cxo0bN+r82dvTnYdI9u/VsbLOagNIdQ/+Rl4BVr6xiWeL1CdEOfD0k6P5JCa5iczfBpi6NISNaIBq7o6YtpyvvWtIOI77JiFZNcVGptzg05AMvAGVh/v7+3L29mcBJlDoroSGKvHJ5k/0NicSsIOHDoMOVRtD6HBq/769evnglcEBWL1sHiJCfa2LnKm2cJ5gzLEyBk/hGaoQFK8HGkkFse8f0BNLF0yEp7u4wuCNoWdpzIbVwLrNP+Lb3/YZNvBAbIIqiQodGMdVNuy0G2w0ycAbULUySDmMZfEtAwg6zaNM1ZeWLcWAAQPq9EiZqecvXMTxEyehMYHftdbOE+3BkUMH9dIFd+/cHq8tmYnAVm5W43uvva7qHDS7/zuGFWs/QnFJXU/M39cTb7w0k+eWkUTSQG0NXI5NwqwX1/MFQwzINU6jHpiQlnalJWpPMvAGdj0sWPkSw2Cl0OSmLl26YNWqlXBzr8k+SJ6zKjkZ+/YdQGFh41WgJ5rgkyeOo6K8bmHqgf174ZXnpsHNSRQStJ7PC+HgPaEDi20/7eQLeeirJfL09NGYNm6oBIesp7ab6+VESLZo1SZcik0ytMQbHLgpCSrVzuaqA2Prkgy8Hu3wtMDFxZ8DzONCql4RNvvJJ6djzKNj6sAiqbLSzp1/Iy29cZlLs7KuI/LsWZ4vvrrQ3Ec/eC9efmYyQFTaDShye2dooMCHn23H1u9+rzNyl46h+PTNxbC3b8gXTwMqQBqq3hooL1dj01c78M0vBpPjSjkdliekJG2o92BNsAPJwOvZtLCwsGBGqyMmOkHZq61atcLzzz/H0/9WF/LeT5w8hRMn9B8eNuT9kpKcjKioy9BqaoYiCUHz1OOjMH3ckIacDj8Wxd/VrCPe+vBL/PLH3hrj08Hqe6/Ow10SaqbB96WpDfjP/lN4Zf1XhjDxWui4j+NTVAtbYgEQycDrM/BBQXcxRC4GprOQm71nz568gffxrQmXz8i4hl9/21HHaxbSp6XbXImNBWWyEjVCdXF1dsSqZ6dhUP+aLydLj2+ov3K1Dh9s+R3bf919qwl9VQy/vzeWzJsAZyfR9D8NNXVpHBvRABVpeWX9l0hJN8gr9iujkD8RFxdnOMnCRtZi6WlIBl6PRtuGhDwEMFsBmCwRz7IsRo4ciTlzZ9egJOApTnf+hZSUVEvvmej++PTui1TsI7nOtVSx6JM3FyEs2Lwi36InU+sCYo/89vf/8P7nP92Kwfv5eGLZwkkYcGdnKfZeXwW3gOvTM3PwyrovcebiVb2r5TgclEE3/WpyckILUEeNJUoGXp+BD1ZOA4MvKKPe1A1B3O5z5s7Bgw8Oq9E0OiYW+/cf5ItdN7YQiudC5Dlcu1Y36y+ojS9+/vQVyGQml2q1ZZyMjMGr67/mS+WRPHB3T6xcPFXy3q2m8ebVMSFoyMDvPnhG/8I47hLH6aYnpKScbl4rN70aycDX0lGvXr0U+dezX+BYZo1p9QHu7u547fVX0bFjx1vNiThsz797kZCQKKQLq7ehkn8XIiORm5tTZywKhbz+wnSrz8HYAGqNFp9/9w9++OM/nnDtpQUTMGygWdT7jboOafDG08CmL3fgy592Q6OpCxTggGuMFtPjU5P+abwZNs7IkoGvpfc2bdo4OSgUbzNg5gvZklZ+rfDxx5vg4nI7CUelSsa/e/ehqMi6jIxC5kdt8vLycOF8JIr0wDSXzp+AcSMHCu3Kau20jAL7jl5AfEISpjwySPLeraZp2+yYLyqv05mdqfzbP0ew7tMfUVJaFwYMoJwD92SCSiWKdsQ2NSVuVpKBr6WvsLAwd2i1XzBgxghRZefOnbF+w7pbTcmDOHHyJM6cOWd1+l8h86M2Wdev8waekp1qy4+bVzZa/L36XIg+WO7gCk15MTitgIo9Qhdv5XaJyRkIbaTzCysvrUG7T0rNxPbf/8OC6aPhYsbB+unzsXhxzWcgvnh9wnFYnJCc9GFLY5aUDHytu6F9mzY+WoXiN4Cpm5Kq584ZPvwhPLPomVt/oXDIz7/8jtzcyniyLUh6Whpv4GsjaOiA9Z9v3gAdFNuEEHUw17RqJM9b9j5WLZ4KP1/9zKE2odcmMIljZ6Kw/K0v+Lq6Ux4VD9lNTr+OWS+sR3ZuvoHVcu+Wa7UrU1NTjdeBbAK6EjNFycDX0pZSqfSXcTgAQFAduNmzn+ITnKqEUDO//Fo3aUfMpliyLRl1KrYdGxNTp9v7B/TAOy/PtuRwLaqvnBsFGPXEy5g1aTimjRsGlpUeJ3NvgP1HI3ksu4e7C758bwncXW8XfxfSZ1l5BcbOfg0ZmXXPmeh6juO2sXaKeS0NKindkbXunvCAgEBOrjgLwFfIjbVi5QrcffdtZ59i75cv2w79NDFYRkdFIVlVN5X72afGYvIjg4UsU2qjRwMXYxLxxOK30aNzOF55dioIkSSJeRo4evoy78GrNRosfHIMxo28VzREdtqit/lqT/qF2VuuVY9PTU21nU9r81Ql6irJwNdSV2hoaAir44iYyE6IJtetX4cuXSrzochb/mLLVyDOd1sRoiaIPHeWj8NXF0om2rrhRXTpoLSVqTa5eVQZeCdHeyyZPwHDB/WRvHgzd5GSlZ577RM+ht7/zs48dUYrbw9RvS1d+zn2HDIAlQR3WceygxMTEzNFddrEG0sGvtYGBgcHd1Yw7CWh+/r1N1+BqApIrl3LxPc//CT00gZpRwerJ44dRVFRTZ53KqCxdcML8BX5EDXIpG19EIYFsWFevqLClAWv8bMdTNj9RVPg4uxo67O3rfnR4bqdE2IT0jDn+bXIvZHPh2dWLp6C+/qJy65+7/Of8fXPBjhpOC6b0Wp6xqWlNX7mYQPugGTga3vwQUH3sKyMimwLkh9/+gFubpUMklRj9dixE4Kua6hGpaWlOHRgPyjZqbr06dkJb7w0Q3Sss6HmbVPj8AadBXHYyxRO/L9JElRpeHgSUZyAL1a+Zf2LaB8muHyATS2xYSfD8Doksjkq/EKSlnEdj89ZhqzsyoI0o4b0w4tzx8PJUThVxfc79uPtj783uBROq2mfkJqqP921YRXQYKNJBr6WqsNCQoYzYARTi+7afTt34rff/wBh4G1J8vPycOTwoTpTmjT6fsx/4v9ApF6S6NcAeemsXAFWbs8XCUetp4US2vo/NA1ES0EyftRAnj/H1oQSyXJy88EBIBqIxjwMJoI5VuEImZ3jrRcl6ausvBxjpj6H5NTKkpIebs74aO0z6Ng2SLA6/zsaiedf32zYwHO6IQnJyQZpJwUP1IQaSga+1ma1DQ59Ggz3gZA9pCIff+78g29Kse5t336P/HxDMC0hPVq+TWpqKk9TUF0o/v7S/Al4ZPg9oIpJktTUAG+E7Bx5j52VGacqHjPtWVyJU/EdUGjhu4+W2xRkktL4KQlo31G6BxiMeqAvRgzuI/oA0xL3CL0w5Q4uel+W1P+8F9bi4NHbMfQxw+/B8qcnCR76zIUreGqJYVZgHaebmpic/LXgDptBQ+npvr2JTGhgyJOsjHkHgCBQs7e3N779bhvfA9U6/enn30A4eFuSmOhonkWyuni4ufCoj3v6dLWlqdrEXBiZHAoHNzB87VfTj8fqdz/F9l933Zr73CmjMHPScJtYC02isLgUr67/CuTdkrTx88Z7r85H25CGJZdjZAooqEQjS3rVLx9+9h02b719hkVU1j9+sgKBrYWhk4h0jGCrhkQH7oVElepdm9mcBpiI6Tu4ASbR2EOEh4e7cWr1MwDzEgDBp2Q+Pj7Y9u03/PQJ//7X37v0lsRrzPWdPXMa1zIqP3urJDTIn6/gJCFoau4Mq7CHwtFd1Hb9e+A4Fi9/5xYTZht/b3y3cbnNHLYWFpXyVLr7j53n12WnkGPWpBF4csKDotZZn8Z8lrKjm8mvoVPnLmP6AiqidlseHXEPls6bKCislJtXiCETXzQ8VQ4fxCcn3c5KrM+imsi1Ld7At2nTxsdRoVgKMLMA1Ky3Z2ITqxv4mNgr+O+/AzbBHll92kcOHUJ+fl6NlfTq1p734Mmbk4Q0wECmsOepEiAyZJVxLQsTZi5Bzo3K0BwdCr447zGMfKCvAP/f+tovKinF2g++xa4Dt4kUBw/oiVeemyrqANPsmTIM5PYufMzdlNCZxv2jZ6GgGt2Al4cbPn5jIcKVAaYu5/9+5/B5BilCOHDfJqhUkwV11EwatWgDH+4f7svZaT4Eg/8TWnu1+r5XN/Dnzp3H0WPH66BVGvs+2btndx0OGoL0vfLsNBB+WxJASPjAkJ4Ki4qx4o1N+Hf/cb4JnW+Qfl9aMIk/KGxsKS0rx7rNP+HXfw7fmkrnDkq8+uzUBuHQoXMMuaO74Jj/4mXvYM+BSl2SyOUyPD7mAcydOkoQEdn94583yEcDYF+8KqlFZfa1WAMf1iYsGHLdjwyDO4Xwvut7UKvH4E+ePM3DJClz1FaEEq92/b2zRjFr4p2hLMEX5owX/NDZynqsMg8RHqa+8UnH3/+6C2+898Utrh9K0CEPmaCojS10yPrJ13/gq5/23JpK5fymoU/P2xTX1pqnwtmj8lBVoOzZXxnyqi6d24fwVceEnBsMn7oMmVmVUEs9cjZeldRL4FSaRbOWaOCZsMCwLoxM9wmA/vXdxSqY5KHDRxAZeaEOoVd9+6/P9aUlJfhvX81ap/Z2Ct4bMofQqT5zsdVrKT6scPbk68OaK+cvxWL5mo1ISr5dWP2xh+/DwicfaXQYKlXM2r7jP6z/9PbhJRV3WTp/IkY/OMCqKCpCzdi5eIlS6/XsXEya9RKuXc++dR3N97mnxmLsyIGQmSDGI+oIyjA2IGnxqqQWlajQ4gy8UqnsK+PwJgCLkKDbsoEnHvijtTDwVOP0pQUT8dCg3qIevObamJU7QOEk6uiljiooTPP6u5/i73+P3Ir/enq4YsOqOejaMazRVccXpV73Fc/zUiX39O6C116YDjcXJ6vNT2bvzCcziZGS0jK89f4W/PxHTbh6RLsQrH9lLny9jB+Cz3pxPc4aLN3HlSQkq8RNSMzkbbBtSzLwjDJQeS8rw/sMIC4H2sjG/fHnDtjZ2cEWPfjr16/j9MmambWE1X5z2Uz07mH9z3MbvN/rTMkcI6RvXX/sOoDV736G4pLbbLRUU5aMkpyHXDaeEBUvMTVWp9J1dLDHe6/Ow53dBJGmmjV5hZMHn0sgRqjwx197DuH1dz4FHRBXCYUWKbPVVHEa4rOpQgzpG5fVoOfVtKRKzGgLkJZi4JnQoKBRLCt7H4BF2bUIB0+xeFs08BkZGTh3pmYZSr7I9huLENbAOGhbfZZkDi48F0p9hap3TZi5FEkpt8M0FE54bs44PDbqvvp2X6/rrySk8gY+Nj6lRj99e3bCR2srqRasIXYu3kZx74bGTExKxvLVG3EhOr5GE0LU/LH1daNhr5fe+Ay7DxIZrEG5otMxMxNTEuumd1tDCY3cZ0sw8LLQoKDBLCPbCAbtLK3vrV9uQevWrW3SwKelpuB8ZE1nhcjFvnp/iWimPkvrzVb6o4xVBcEjLSA//LaLD9VwxAlwU7w8XLFxzUK0Dw0Ui8C0wIwqu7iRX8gb+MMn63Lofbj6afTvFWGxsap3ZJaB5zho1GV458Mvsf33vaAzhOoyhxLJJj5kECDw7uYf8d1v+4yuhwPOs+DmxqlU9HnbtCrMiNyp5m7gyXMfwspk74KDVdI233tvAzpFdMLhI0dBUMnaVZNE7odFmyclJiDq8uUaffr7euKnzavgKEEkeb0QRNLOyUM0/l3fRlF4hjDxiaq0W38m3pd7enfFC3MfQ+tW4g4cLXUzUNiD6pX+sOMAX/e0ulCyG4VqPN0t85Kr3jcdXpuieqhqz3E6vlSjTqOGVlOGyItX8Nzrm5GXX5cF9cPVCwyWmVz/2U/Y9ktNYIEBPR5nwD0bp1Ids5SebbGf5mzgK8MyjOxda3juVZv5+uuvoXef3jh58hROnjpjUzBJfQaekpv+2LraFu/FxpkTw/DUBJTFagn5c9cBLFu9scaLngjdRg3pi6enj4azk+mEH0vMo3YfO/eewFsfbUdxaVmNPzk62OHpJx/hY9uW5iWS2Tnx3DPGhNPpoNNUQKcp5w08GXoSgnc+/9pmHD1T00EhXDyFvIgojxBhteXz7/7Gx1/tEKRC8uQ5HfN0cw7XNFcDX2XcKSwjnI5O0G1Rs9GSpUtw//2DEHn+Ao4cOWZTiU76DHz7sAB895Fhvg4zVNDkL+GTcRxczYoX1148ZbQ+u/wdnDlfs6oXUQSMH3Ufb+TJSDW0pGZkYcbz6/TWLO3RuS3PZR8S6GfZadHLk5KcZIqaIRWOA6fT8KEYTl0Ojnguq8e1bs7iwPELePbVj+vMKai1L59nQJW0asvXP+/Be5//ImYd8TodM725GvnmaODZsODgQQzYj8313MmT0em54fTdNU/NnoVHH30U0TEx2L//4C3qWDF3mLXaUpm+Sxcv1ui+e0RbfLHueWsN2WT7JV5yOmwlsrH6CIXofv1zL5/4RHVCawsxOS6eNZavPdrQD9/TL2+s4xHT/Cj7ljziKWMesMrLp5J2uZJuWafV8J66PoOuT+8PP/Ey0vTUWaVkvWdmjAGhgarLL38fwpoPvhW1heTJ67SYnZSadJLKt4q62MYbN/Q9ZnV1hIeE9OPArAfQ15zB2ng5Iqy1K45FZ0GrM73X48aPw8yZM5CcnIK//yGysXKDw/Kfo+S98D86MHTHMwwIAkY/lhYiGSOyserSLjQA2zdJHrw+XZNxlykcbhojmahMX9pT6DTQadVIS8vAa+u34MS5mDq8KASZJCoDMqht/H0a1MjvOXgGS9/4XO9tFuDvjXdXzLGpgiWk00++/hOff/dXnTm7ujjijaUz0a/WAfHuA6fx0pv/E/0ocRz2MJzs2fiUeMHV3EQP0ggXNCsDHxoY2I2Ryb8yF+fu7+mIVyZ3Bx3cr/rmHLILDBvrqr0aOnQonnv+WeTk5OKXX3+vQRdMtAXlZWXIL8gHFd6gf/OHXPwXqY437uQ9sQwLhZ0CLq6u8PTwhKOTE4hrvr6Sk52NE8drniG19vPGji2vWzzeWt+52tL1fEiBf+nKwcjsbhamoJfxzVny7/2bL2pdpUdKL28KO3A6LW/U/9p3Em9t2o7ikpoxb7qSYsdUjo7oIighqqGEkogem7saRKurT+7r3wNvLZvZ6Lh9tVqD6zl5oBcShWkuRCfonS9Vz/r07WfhWq1M4pFTl7Bw5UfmqvSolsHkpKSkuhXqze2xka9rNgY+ODg4QsGwPwIwC/MV3toVq6fegY7B7riSmo+VX0ciJtV08Y4777oTa9as5lkkv/nmOxQUFoLK5KWnpSItNZWPyZOhpx/eyzMgvKFnWcjkcj4d28PTE6GhYXBzdzfbuy8oKMDhgwdqjEgVfb7btFwq1Sfowav8wjL0kFTupv74cYVajUWrNvFevD4hT37kkL5Y8czjgmZiqUabv/kTn27TX7CMpwSYbX3cPlXAKldrQERoFNIqKi5DSVkZElXXEBkVhwvRiSgqLkVBUYnJkCcduL4w9zav0rlLcZj5wjrz1cVxpxmt5pHm52mtHgAAIABJREFUUru1WRj40NDQEEbLfcowGCKoSkO17Sd22LatXbFyYnd0D6uEsV3PK8PKr8/hWEyWyRulfYf2+OCD93mjvnXr1zh58gQy0m8nu5jswEQDR0dHtOvQAT4+vrC3txcVNlBXVGDP7tvFKGgoKdGpvjsi/HpKMHryuXd5Q2ZI3lo2Cw/cc4fwTuvZMu1aNiYveAOFxfoL09D9sfmtxaCaAeYKOTIlpeXIyStAWkY24lTpuBidAFVqJuKSLPds0PyoeM27K2ajZ5fKA9eoqypMWUhMJGaLjuO4XzgZuyAxMTHT7F5s5MImb+B5Pne53TqOwWQGEA1PCG/jihce7YK+HW9XjanQ6HgD//fp23hmQ/vl5e2FxYsWYd9//+HwocN86T5riIeHJ1q3acMnVTk4Cofa/bt7Vw2OejdXZ7yxdAb63tH4TIfW0JOt9Une8uff/lUHf141zw5tg7D5zUVwtSInTHWd0Mtmw2c/45e/D+v9oiQvnniKnp01Fu5m0h1TKOh/2//Bt7/uRYW6ZrF3S+8PUR+/vWwW/G/mGJiq6iRw/AqA+5STyV5OSEgw/RkvsNPGaNbUDbx9WEjIJobDVDCMaPgDhWVWTrrtuVffgLXfX8CPh1Qm0TRyuRweHh7Izr7NfmetjaQwDnnygcHB8PPzExS6OXn8WI25EQc8fYaPHjbAWtOU+q2mgaycPLyw5lNcjNbPcEjcQPTC7dNAL1zyrg+euIg1H2xDzo0CvXtFcyKEysgH+kBmBo8O9fvKui9x9EyUVe8FIkpbt3I27uh6m08n43ouRj+5Epr603aXQMdtik9RLQVgOxzgIjXalA28LCwk5EOGwyxzjfvbM+7kwzP6ZN0vl7HtvwRBSBqROq93czqADQ1ri7C2bU0a+eioy0hMuH1IRR7apNGDsWjmmHrPo7l0oNFocfbSVT7e28rHkz+fIBijvkQasWu+GJuIpWs+x7WsXL2XUhLU/Cce5vekoSSvoAivbfiaP8A0JCGBrbBx9UKzqn5ReIbKBO49XLPYuyXXRwlarz3/BAb171EjbJmZfQMT5q2pURWqHuOWc5zujYTk5NeaKnyySRr4iIgIu7LCkvlg8ToDiKL/pAUr/VywanIP9GyrP3WcDs/WbL+Anw4nCYXr1uMeMv/SoOBgdOzYCQo7w4x9mdeu4czpUzUGoZgvVXSih0QS4NzlOLy6/mukpF+/pQ468I5oF4x+vTqjc4cQtPLy4I0+4a7t7OQ80oRhq1BQzE3oK/hDQ8rCJObGfw+fxaYvjWdVUmHp2ZNH4Inxwxp0KwhOuObDb/nDTEMysF93/uvCnBcdccJ8v2O/xak76CuWCpYsnvUoDzetDS8mAz9p/lrQS8xCUgAOC4OSk7btB6wbb7LQhKt30xQNvDw0OHg0y7BUHT1ErE4CvJ3w3JjOuL97a4PkT0Wlaqz4OhL7ztcsVi12rIZo37p1G3To2BFOzvrfc1T04/ChgzXOBrpHhPEGPjigVUNM0abHoBjxF9v/4bHWxlBOtAiKSRMveWhwa3i4OvMvSDuFAgqFnI+xE7yP+GgSU66BKHpv1OJR0aeIygIsD2PKow80qJ4oCevFNZ+BYIXGZN7UhzF17BB+jWKEvg5WrfsShUX6D3PF9FXVViGXgeoJTxp9P/rf2Vkv4IDglVOfeRNZORYNnV/RcboFicnJRHLTpMjJmpyBDwkJ6SkHvgaYzmJvEncnBV6f2hP3dvE3yuwXmZCLld9EQpVpMS9A7FQFt6dKRHTw2p6MvFNd2lu1ugJnz5wBYeKrxN/Xi0/1vqt7B8HjNNeG+YXFWLr2c5yM1A9ntPa6qQDL8oWTMWwgVY5sWImOS8asF9YbRfkQCdnyhZN43D55z0KF8P8vv7MFB42EgYT2ReNSItbE/xuEgX27g3I5DAnF/6noByF2LCkccKJCq3k8NTU1zpL9Wrsv4Ttm7ZkI6N/T09Pdy9X9lDkUBC6OcqyfeRfu6uBjNMmnrEKLD3ZE47sDidAJyGQVMG2rN6HPVKUylIdT1j4Uo5BB3NWriLt65dY8iOHw5Wcex8ND+ol6aK2+kEYYgAzC7KXvITG5cb7WeNjqm4sMsiNaUyX0xUIhpC++/8fgMGRcu3UKw8vPTBY9R9LtjOffRUq6abixoQm4ODlg7Mh7Meahe0COCZ0hGRMa86klG5CUck1vs3tCS3Ai2REVWtGmjzLbjpfrtINTU1MNx7WsuWFm9C16lWaMYZFLgoODPeVgvmEYZrjYDl0dFVj8SARG9wuGjDW8ZMpDOnw5Ews3n0AtVlWxQ/Lt6eGgGKu7qwu8vTzg18oLYSGBCA0JuMUqSAY4LSMLVxNUUKWkIyMzG/kFRfznvhgh56pnrzvh79+6zmUUhz9/PhKaahDOCQ/fx7MI0iFfS5bcGwWYu+wDxCWZhsRaQ09UOu+9V+dbo2tBfZJBnLvsfcSbwKcT2+TCJ0fDydFBUL9VjShUsvztLxB9VYXSsgoTyX7gzzaIypoS8gbc1RmzJo0QdY+aMvCvDclCVrEM/zvlgRK1GfQgHLYWlZcuyMzMLBaliEZq3CQMfFhYmDs0umUMAyo/I+oOc7STYdoDbTFlcDhcHIzHES8m3cDzn5/GtRv1e0GTF93a3wd3dOuEDuEhGNi/F0KC2gjyllUpGSDK2aOnzuNyTDwI4SFUKCnqrj594OJSExlUWFiIC+cjebqEKiGvbMOqufzBYUsWCiW8+dF2/LWvZmnDhtAJpdqvXTqjXklF9Z0nFdTYufc4j42nzFFDQjH452eP4z1p+gIUI9TvviPncCEqAUmpmSDoKOHxyaEiZk0XZ0f+4JRqFZBh7965LZ+4ZI7zYcrAv/HgdfQKKMOW0+74+ZKbOZ58Ccfh9TJNxQfp6emWO2AQo1ARbcXtlIiOLdhU3jY4dBIYjg5Vb2cjCRiAFjf+XiXmjewID2fjnmp6bgle2noWkfH64WwChuObeLi7YezDD+Cefj3RpVM47I0gXAz1SZ/OVDTi738P44ttv/GoDKHi37o1et7Rq8bLhGgSLl24gLS01FvdEBrk240vITjAwhSxQidqI+0oDLf/WCTe2vS9Xipda02zc/sQPh+B2D0bW6ji0xsffod9RyONetiUNUrQRPKszRG6D9Ou5VQa+PJKb5489ioD7+ttPi1H1XyEGPjB4SXILpbhgyOe+OeKWQ5OGqNj5sWlJP5p64euNm/gAwMDw+1Z2X4wTIDYm2pIz9Z4bUpPONkb99zJk/j4rxh8sTsOao15h+QUB+99Rxe8snQOfL08YW+B0AcZ9tPnovDcindRZCC1vLZOqAB4j553wMe35ruQsPBXYmNqFCRZsehxKeEJ4LMtv/xxN7Z8/4+ol6nY+7GqPWWvLpk3AV07hdoM6dv5qHhQwWpTyB9CXq1fOYdHEtmimDLw7wy/joFhlY53UQWLxX+0wvkMUUGBymVz3CVo1MPj09NrFrq1MaXYtIHn4+4Ms4cB00uM3ojPvXuYJzY81RueLqZjzKnZxVjx9TmcjRPvvVPsm7z2mVMewcRHH+Jhc5YU8jB37TuKtRs+x408/ZmHtccLCApC167damCEc3NyeOpgIkWrEsLDExeKJJUa+GPPMVBFoOvZN6ySYk/nMd07hWHl4ilmJRBZe5/oJffR1t8N0irQ+GQwCFHz8qLHeR4YWxNTBv5/YzPQ1f82N1BOiQwLfvNDQq6dOUTwfxWVlY635Xi8zRp4Pu6u1a1ngCfF3ERkcNsHuGHFxO7oovQ0ybdNSU3/nc/AK9vOI7+4boEGU2Mrg9tgwcyJeGBgH6sUS6DxKcPy6x/+xCdbfjQKaauaq6ubG7p378EzUVYJceQcPngQpaW3w4ZUEHrnV2ss/lIypTNb/jt5sD/tPAjyaKOuqFBUUlqn8LPY+VM1J+Lhv69fD0wbN9QkEkRs/5ZqT/H4pWs/w3/HKFRjuFd7ewWmPDoE08cPMytObqn56uvHlIH/YlwGuvjdNvC0zlOpDnj7gDeS88xwznTcu6Va9SpbjcfbqoFXhAUr54PBarGZquSxEzPkfd38BR0Glau1+HhnLLbsEQ9vJeP+2tJ5uKO79Ym7CgqLsGb959i5+5DJ54MOebt064aAgMAabU+eOI7srJqQtS/fexFdOoSa7LMlNaDYMKE/YuJTeEQTMRSevRiH7Nw8lJWreYRT7eLVVfqhA0hKXqIDwgA/Omhvh47hwQhXtuEPU61R2MWSe0NJWive3gLCyBsT8t4XTB+NRx60LU4jUzj4nx5PRbBHTYSaRsdg1xUnrDvozYdtREqhDtziRJVqiy3G423SwIeEhAySA58BjKgTKFoMkYc93DcYcpmwpd0oqsAzn5zA+cQbovaVjPuGNS+gXViwqOvq0zg3rwAjHluAwiLTCC1laCg6dOxUAxcfffkyEhNrFk+YO3UUZk4UjTytzzKa1LVk7MvL1TxfOSGaKGRG/8svKOZfAtWzX5VB/qBsS6Iw4Iu4KGQ8rNCcVP/GUhJVHPv30Fm8ufE7UBKYMaEkrQ9eX4AeNnBQXDXP69l5mPz0WuTmFeqd+p9PpKCVS11kmlrL4Kuzbth8wlOs6ulb5yKnY2cmpCTU5AQR25MV2guzglYY2FCXSqXSn9XhS4bBUDHDymUsHh8UxuPdxUhSZhHGrt0v6nDV18cTry6Zi3v63SEI+khGQa3RoLy8gufmoDASsVBSTJbnNBGRIfjzjj147d1PTYYNvH18cMcdvWrw1MRERSEhIb6Geog2+KM1hD6VRNJApQboC+W9//2Cn/48AA2VNzMifj4eeHPZLL6qElk6+nKhMzCCPyr4e1zO/6Yvm4b4ejHFRXNwtgoOCsPxp5V7fLD7igvMyHHcXq7VzE9NTRV/kGfFG8/WDLw8NDhkLcswL4hZM908D/RozXvvlNQkRn45osKr354XfAndwHOmj8O0CQ+b5OcgWFiCKg2RF2OQlnEdcYkpKCkp4290v1beCAlsDR8vD0R0DOMToMjgmxI6aF2w5A2cv3Q7M1XfNYSJ79u/Pxwdb9MXEFQyOVlVoznhjr//+OUG4yM3tT7p77ahgcysG1i1/kuciowVPSE6c/Dxckcbf28oA/15fDvBconznigHgtq04qGRBEgQ4dsImgcZ+Inz1uj9+qCxTsw3Xo0vt5TFqt2+OJnqKJZoUAsdtyQ+RbXBlkI1NmXglcHB02QM+zEA4RUtAHQO8eCNe4dAd5OHqrXvkqVbzggq7FF13X0D7sTq5Qvg4W68liYZ4i3f/o4TZy4i+grRHuj3hCj1OjwsGN0jwvHYw4PRrl0oXwvU0J1PL43tv+zCux99aTTblV4irfz8+LJ/7h4e/PjHjx4BlfGrLpToRAlPlPgkiaQBCkNRHJtojrf/tg/nLtf84quPhuheb+PnjaDWvryBp3q0d9/VBZ3ahYCKaNPXbH2F+OAfmbGK/2KuLe4OWuyZaRzVSIeu5zPs8dZ+b8Tnmkbg1Rrjho7TTUtMTv6jvuuw1PU2Y+DbBSh76OT4ldh8xSzOjQjEphCBGBXAEL+coS/vQabAzFXysHds+wCBbYyzMKamZ+LN97/A4eORfE1WIUIG2dPdBSMe6Is5Ux6Gk6s7ZAoHEJlYbYm+koDlqzfiSnxNb1zfOISL9/L25qtApahUNXDw1N7Z0QFL5k/AiMF9hExTatMMNUBnDBnXc7Bz3wnsOXAGZRUVPK0AfW1STN5aQve8i7MDH9ah+3DQgJ4Yfn9vPpuVPH5zvHtjFZ38XTXYMe12sp+hdVFU6q9YF6w/5IVi8YeusTqWGZaYmGj64bSWYqv1K94iWmFSSqXSg9VxnzEM86iYmqrEKzPrwfaYO8I8VsTcwnIMWlqzZqmh5VGcfOFTkzBrqvFCGeS5r173KXbtO2aWpmic/r0i+ELCga19IbNzhNzOEQwrA24ae0rMee3tT/D73/tNUtyamgSloM+Y8BBmTZIOWk3pqjn8nb7kCAlE2at0ILn3yDns2H0URNlgK0Ix+17d2mH0gwMQ6O/Dfy2Tx+9gr4CMlRl15K4mpWHC3NV6l0L4d8LBC5W1/3ljR5Sr2Hi8ltNxW8u06oW2AJ1sdAPfq1cvxY2cnJkMhzUABB9h09t96B1t8MYTd0DGioY28Xt8LPo65mw8Lmi/Q4Pb4PMPXoGfr2GqUkJUfPzFD9j0xQ+C+jTW6M5u7bFwxiPo3J4+aBiwCnuwMgX/m7z6Hf/sx5p1n/P84/UROhAbM/weLJ0/QdRhb33GlK5tWA1QWC+/sAQxcclQpV3H1cRUnsbXVNaqoVlSRTEqAO/m7gYPdw84OjnB2dmJBw4UFhSirLwc+fn5yM/PQ0V5BZ9cR3MwVyiM2LNzOCgDmKpt0YFuKx8P+Hp7wMPNmT/Qpa8B+rkQFc+zg+qT/iGleG+UcBrhUjWDpX+3wrFkURFjOmy+BnDPJahUZAiEfcKbqxwT1zW6gW8XEtJJx2EHGKayLLpAuSPciw/NBPqIKuhUo/fvDyZi7fcXTY5IXvW8J8djxpQxoAMkQ3LmfDTmv7BWMK2AqYE7tg3CK89N45NkKoUBK1eAldsjM6cQU+a+jMysHFPdmPz70Ht74ZVnp1qEXsHkYFKDBtEAORuFxaW4FJOIA8cuICMrB9FXkw3CB41NysHBAV5eXujWvTvu6tMbXp5e/L3i6u7OG3gnJ0e+4EylgS/gDXwBb+DzeeRYWVkpklXJOH78GBLjE/hzoPoUpycPn3hr6Ifw+LyBZ1iwMhZ5+YU4cU4/t/+oToVYMVjc83I12w6v/uuNK9n2YvftHNQV/9fYVAaNbeDZtsHKv1AJiRQ8l1buDnh5Yjc+7i4GYlh9hzhtOdZtP4ivj5r2gFv7+eD1ZQvQ986uBjeZPn0XvvQW9h8+LfZGMNqejPtHaxfC28Ptdjs+OMniudc+xv6j9a97SZ4RefBdOtoON4pFldiCOqOs5yuJadj++398KUKKo1M2rpjaBuQJUyH5iM4RmDT5cXTp1rWSxtfJiS8qI7YQN71syKAXFxejvLwcJSUlOLj/AH768Qf8P3vXAR1V1YS/t2mb3hMIaYRepfcOShNsCAKioChVkV5ElOovTVFUQAUp0hVQBEFAiqDSpEoLaaT3vsm295+5IWWTze7dzSak7JzDAd37bpn3dnbezDffREdFIyMj3VDEilF3dFSrNLzXzbB6F4JL/v7AnlW6ZuQaFClQq0X19tCIiLFGbdZEF3EbVROtV3QaSZC//7uCICFYEbdYWUjwWr96mDqksdFETaJSBmXcaczdm4aTwSW7IBXfTPdOrbH0/akM0liaUOJzwoxlSE5Jg52tDRoF+bHQB8HCfj35D46dvoRMI+KcFH6iasEZbw8r4WEfOnYBSz7bzq07fQOf798Fo17oCx9vDxbvNPbHU9865s9NowEynEqVChkZ2YhNTMHpC9fww4GTLMbOK2TMKdzi7OwML28vtGvfAaPHvIqAAIO7YfIuqTGOHKO7/93B7l27cOvmTSQkJCA9IwO5OTksrKOvjaIhi77XLRmjWvHxORWdN1cp4LPzrjh4yxEq0TCTKYjCiOCI0H1Pqmm3Ybs1RJt6xtbz928rCpJfBMAgWrqOjTywYmxbeDgZ/MrEdiSq5FAl/g1Vyi1M/NEDV6N1M8nR69/Ykc/hvYmjdZ7o+10/44tvdsFOaoPxowZi6NNdmKEnuXz9HhZ/uh2U4TdG6FWUPOweHZ/SSDBRkmzI2IXsS24qIUTDkKc7Md6Ulk2D2HnMUrk0QEl2epb+uxeG6PgkFk+/E/yIu8E1eeDEU9S0SRPUDQpC/QYN0LtvH/j46O9ZQAZXVKsZuob+JsoGyuNILArj4GXRVkpyMk6fPo379+4hJTkFERERiAgPfxzuyeU+o7Y9LH0mAf0b6q8C13ZtZJolPjjugdtxhjFPisB9USIMDQ0NNbygoCyKfHztEzHw9WvV91TbKNYCwkgB4Aa/ujvaYNO7nVHfp0i4wgAliKIaqoS/oEq+DohKjNrlg+Ak3VhXBwc7xjfzTO/Opa5EccaPVm7A6XOXsODdUejTtVUBppeqAr/fdxybfjhs0Gty8cX6dGmFRTNeYwmmovLK5OUsaWZqqeXlBuIsf3FgN7Rp0VBn7sHUa5vnK6kB8nSJOoCaWZPDEBmTiHsPH3GzXtLbmKOjI1q1bo2+T/djxrxJkyag/gG6hIw4QX0prJKbkxfqoe8RGXraU15ltsDCNnmJTgvYOziACu3I6JdFWLezqCgNAx/y8CH+u/0fwkJDQY1sKORDSVzaoz5vf/1zsejgZzxaiPDx0372NrQTlEKEsMkqy3r+vcR72vkTyqIkPdc+CQMv1PMLHAEJNgLgttQElFnxWhsMbK9JoMWtG3qdTbwIVdJlcuPZZc9v80V0um6ueArLbP5iCYICS6ejj41PxMefbcawgd3QrkU9DS87r6nzN7hYSkUg8ZRQX05GcJWcVmoHJ4IzfrnsHdZVvqis3rAXuw79wa2G/IH0ZaQ56cdJlzg52qFFo7ogzppG9f2NDosZvEHzBUwDBF+8djsYuw6eQkhELDKyspEtK2RD1KcmK2trtGzZEmPHjUXLVq3g4ODADL0u2oD8mHlKUhJjHy3w2jn7WDJvXhBgZ2cPVw8Plnw1VbiPDHpOTg7kubns7SH/bYKC+MnJyYiPj0d8XDy+37IFD4M1CQR/GhMJX2fjQS1UEbDrmhPW/ekKkT9lSLcoXi2qx4dGRFCDkPIrLNDyMFS4gff19a1jY2FJManSXeJiG6WHZUhHX8x9uQXs9bTd0/rAk+eedhfKuLOAutCgPbfVFzEZug28b20v/Lzzc500AgmJKSxM4mYvAdSaD1BUbCJGTlleAmdMaJxuHVpg6ayxkErz3iKoCm/O8k3MMyPq1uJCPNxrFk3U+N+n/7rOGjXoE9IhVRJSuTh1cRo7/Bl0aNWY8X9TO7XE5DQo9LQHNMfo9Wm5bJ9T2EMhJ4x6JqLiknD497/w8+/89RRkRMmYurq6onbt2hg8ZAhGjR7Fitz0CYvnK5XMeCYnJkIh5/8R0Tc3re/q5g5C41hY6v6+6ZuL5/P/bt/GnFmzcffOnYLhdtZq7BkVDW8H4w08TUaJ1mUn3XE61N6wxLCIY4I8Z0xwbKzxHch5Dl9sTEUbeKGuX8ASiURYaMheid998aut0NS/9CRnqfPRq2RWODPuorywJymN5zHw7Vo1xfdfLtW7XVGtgiIrhb2+FhVtBpi8J4pzU4/L4k2M6cu9eO02nL98q0RIhzzuQ98tgbdnYbkAdawfP3s1ZDI5cw3ohhKbITPm9nYgznfCDFOVLGGIe3Rq+Rhbn7dLuiYiKp715Tz3z008DI/WSWRmjtHrfRQMGkAhD0K5hEbEIDgsGuGRcTj557+ITeDnrKJqZV9fX7R4qiUC/APQf9BANGzYkMtrZoVPMhlk2VlIT0uHSsVvAOkHJc8zpz95IRtdIpXawtHZCVJbO9CeTeXVF1/z0sWLmDtrNovf5wtVsW4eFgMP+7Lnq65ESbH8lDsi0/RzRxXZm0oNcVpoePiXBj0gZRxcoQa+rp9fd4nEgngaCjtR6DkANc1+d2gTDO9Rl5sCuOiUZNQVkUcg5iaWWInHwD/dqxOjBdYnKkUulDnp1MpLY+jX235mXYKKSoCvNz6cPkZrP07ypG7eDcWydTvwMLxk1d2cySMwYkivgumord+VG/eRUyTUkh8TpXg9GXgqCMlP+JZ2Dlr33sNI3LgTwhpeEC+4ri+sOUav74ko/XPSdZYsBw9ConD87BXEJSSz8EtUbAJ3noZi3h4eHujRqyc6de4Mf39/NGvWDNY2fElxurfZWVnIzEhHjoyokPUjb+i5ovALEdgRZJKciHwDT2eiWHhGGr0JKkp8D/K1IUBge6TrnVxcQEVTpjb0Z8+cYQaeEDn50sw7F2ufjYerbdkNPKFqdvzrhO+vuID+zSsiEKMU1U9HRETc5r2mrOP4d1fGlXx8fOxsrazOwsD2ex0aeeCLiR0htTY8YSOqFVBE/ARRpr16jcfAD+rXDSsXT9d7emVuFlS51C1J08DPXb4JJ/4sxKqTwzOwd0dQP9TSiqYoPENJ2a37fy9BKNana2usWvi23v0YO4DimsSl/dsfF1mfUn3VjuYYPb+mZTm5CAmPwc6Dp1jHKOJ7Sc/M1uv5Fl3B3t4eHTt3wvjxbyGgbiCLqdP/M0TywjAJzHPX53XTvPRjQoVMLq5uLMSSXzVafE0y8gRtVMjloBaRrHtYKVw2+T8WFL7x8PRiht5UcvTIUcydNYslhvOlR91sfNgvEY42xvVcLr63zFwBE36qjQd6QBoldaQ+HhIRMbiiKlwrysBLggID331MR6AfeP5YK0T9u31Wd9StZXjvR1EthzL6BNQZpXdqeuvHWnob7g7p3wMfL5qm+9mj2GlOBtSKkhn6MdP+x1q/5Yut1BrT3nwRLz/bU+ec9Ir+9py1rAt9Uant5YaD3y0pt/aARdeimPwXmw+YY/QGWp48Q6dmyVDifAmPisPhE38zBAyxNfIKGUHCqLu6ucHXtw5eGvYyhg1/mfdyjXEsxq6QM7hhajIV+5Se68s3vmR0XVxcYe/oaJSXTTF9+iGRZWezHBUlRLUJ/WA4u7rCyckZlmX06Omce3fvwfvz52ss9UKzDBAO3lYHF7yhir0ZY4Mph7yRozSoACpdENVTgyMidlREwrVCDHxAQEATCwhbBICbstDaUoKZLzbDKz2NaCenVkCZfA2qxEsMDlmaULNd4n3WJQP7dsWqJTN0jqH4u1KWDrWq5GvuwDELWBPnfKHS6rUfTtQanim+yIbtv+CbnUc0/renmzO+/3QOKERSEVI8Rk+xYl3J2JoaoycDRmGyiMh4FktPSE5l6Jd/rt7V2cS6+D0k40oeef369dHiQx7TAAAgAElEQVSwcSPUq1cfAwYNRJ06paO4dD0HeR2pcpGdmYG01FSdnDAWFpaQ2hGplxQOjg6wsuYL9+h7Dimun0kcNRTrl2WXyrBqaWkFF1dXlhS2kRKTquHmiSpmN379NT5bq1k/Ob5DKsa1TYOVhWlBLJv+ccHmyy6GEJJRBcEpUSJ5syIYJw3XoL67Wezz+vXr24gKxRxAWEANX3gv79WiFpaMaQVnewM5mcl7ygiGipKqSt1FDQuPeeD4A91vB106PIVNny7SuW21Ug5lTgbI0BeX3i/PZK/h+UJUqLu+fB/OTvpfqylU8srkZYyfO19cnR2xbslkjUQpr07LMo7F6EMicfdBBH46eo71K9WG9Mlfo7rH6CnyQJwryWkZ+PvKHdy6F4aMzGxERMUhLDLeYHItwo1T0dHgZweD2i2Sgaf/LksXJPKgU5KTmAdNsMLSxNpGCmrUTm8LZFzLsqbOHxu1GrIcGdsLcdZQtao2sba2gb2DPZxcXA0O3dBZP17xMXbuIAe5UOb0TMKLzTNgBKO4zq9NQpYF3j/miWt6CiY1JxEzAcx3CQ/feAXQn/wowxe33A18YK1agRbWNn9CELhdEG8XWywa1RJdmxLXjGGnExXpUEQcLIGY0TYL4Vl/uKY739ugnj8ObNPNpqCS5zADr+21t92gyRoFGE3q+2H75/O5vZPNu3/Dl1sPFWyf3gDWLJqAVs0M4mYzTIk6RhPqIy0jE3+cv8beLuKTNJFJxS+lGD0xYr49ejCaNwosN+NhsgPqmIiK1lgzjLuhjH4iODya5UgIq07eu75Cm+JTUwjE188PI0ePQt++feHg6MgoAwjqWBahfZC3npaSXGoBEHnHZMzdPTxZW0cy6sZ4zMbsM79IimL1SY9zAcV1lw8UcHJ2gYubG/dzQ0RmlGD9/fjxgq1JLUUs6puIfg2Mq2LV+aMlAieD7fG/M+5IzzEgVCOKt5QCngkP14KkMEappVxjoPk0eGVJvYCAjYAwnvdK4nh/oYs/5gxrDhsrAxOrKjkUkYehzuar7Nx3wxGrzpZO/0t7ruXlgQPbP9XR0k6EMjcbqlztD0/HIVM14q4EU6QOSrySkJSK1977hHF3kzxpA19839/8cASHT/7NwlBUQq9LenZ+Cm+PGgy/Op6MAqGiDAqvrgmHTklHhUIFSogSFXNKWhYiIuNw7OxlXLx216AYetF1yYASDpxIvHzq1EGfvn0w5vXXWcWnqYT2Tl4x4dhZgrOY5OPkKWFKuHSKd1cGUSoU7E2DUD3aKlJZ0xoPD9ja2eslOqNip7feeBPXr10rOBpBI8nAd/LXTyxojD7ScyVYedoNJ4IN6+UqiOolwRERH5VnLL5cDTyDRQqSUxAEbpfEz8Men05ojwaG0hGolVAmXIAqufDG6rtZf0VIMe3nWjqHubs6Y9Nni9CovvZGUyx5RfF3pfZX4OIx+Of7d2UIGl4hdsAte49hy55jrA1ZZWyxFxufzDzas//cYEVaumL01BWL6In7dm2NNi0asEYOFS2sUlOpYt53tiwHsQkpoB6kqemZzBun89y4G8ooIHSFofTtm0IeRLPbuEkTBmNs0LABnu7fH+7uup0KffMW/zwfy56ZmYH01LQS9oJi21JbKWyktuwNoawUAobuj3e8WqVCenoacnOoWlUGMvxFPXtK9hJqiH6gKF+gTeLj4vDSCy8iJjq64ONAVwVD0BBUsrzkWrQNFhzzRGIWt6mjrVDiruvDR49ulde+ys3AN/X0dMixtf9VENCDd/O0mVkvNcOrferxXpI3juLuaXdKVKrqm4QIhF7crpv6wNHBHksXTEG/ntrzw1TYpMhKhVisgjV/7RGTlyE4NKpgK2Ne7If33qLGVfxCxUcfrd3G0DhEa7Dh4/cQFGAQRxv/YmUYSRBAwtHzxOjpHC2b1MWAXh3QrUNz1rbNVELxcYLryRUK5o3T3xRaoYIuwveTAc9ln5GBzy0w8OS1l0UonOjg4IjAwED07NUL9RrUZ8a8UePGJjfqeY89Vb7KkZqS8tj71QznUuiF+vFSjJ3eHsortl4WnWm7ltA2lBimsxGVcFE4J52BMPSOTs6M86b4WyAVN/Xv9zS7Nl+ae+cyAx/gWn7hbpUIfP2XK7Zd5S7xebw98YBgZTUyODi4bA9fKTeh3Ax8Pb/AsZDgcwC6u1MX2VirIDdGJmZoaEadEw9l9EmIuYZVARPXc6+N/jphTuRxThg7DBNeH6ZVhZRYlWcll4r3nfL+5/j7amHJ9MQxz+KtUQSD5Rfy0H75/S+s3riPebyUpKVQTWUUQ2P0dJ5Av1ro2q4Z/H08GSWEn49XYZcuAbCysGCw0Lw4d+GpqQI0Nj4JshwF4hJTGJcPGW+ih6A3H8ahIoIxHzKDL1cWGHZT6Y7i5VRw1LFTJ0YL4OPry6o0ie+F/i4vofMkxcczjvXi1acUW3dz92BJU/LWK1sozBCd0DnpT3paKiuiyu8MRYaeCqa8atWClVVhVeyF8xfw2mhN5tfO/jIs6pcIdzt+iKohe8wfSx2gRu/2MajCVQSSJaJ6bHA5NeouFwMfGBhYy0LEFgADeBVla2OBr6d0Rut6BsL/VHIo484wD94YmfBTLfyrJwM++JnuWP7+VK3JL0LQKLJLTzSuWL8TP/56rmBrM98exjjXjZHPvzuAm3dD8M2qmcZc/kSuMSRG/0Q2yLFofsKPDKcDFfy4uKCOny/69x+AQYMHcXG9cCzDNUSlVCIzMxMpSYkFcEO2P0tL5qW7m7hoiGtTFTiIipdSk5IgV8ihYjUFIvPkKadAP6jbt23Dko8Wa+xoQMNM1snJ1BBJbcf+I8QOC495QqHiNq0iROwXMtPHBycnG05Wr0f33Lsw4B5a1POvOxqCuI5ygjzX0avti10CWHjGzsagGBbjdafmHSjGAcOzLo359Jwrdl3X/VrVumVjZuD9fUuGRVRy2WMEjfYV9x0+g/99udskBp4miYxOgK+PJ+/xKsU4Q2L0T3rDZCzJUFDy08vLi0EWyUMn/nSi1+3QsQM8vbwqfJuE75ZlEV9MGotPk1CFqdTODrZSKRyoSKiM6JsKP1QZFqRkbGZGBoNcyuW5oB8+itGvWbUa+/YSl2GeWEhEjHwqHe92NayTk7Fby8yVYCmRkYXYG0IbGSeoMSH4UdjPpk64mtzA+/v7u1oJEgKhDuJVUh13O3z0aiu0b+hhEAmnWhYLZeRhiMqSiAHetX9/YIf3j+n+wnp6uGL5+++AMPHFJY+ioHT4FfXBHDPt44LQQlk8eN4zVdZxFKOnEv29h8+wYiCeMvnyPAujTLa2Zp6vn58fnmr1FJo3b8F6jJK37uXljcC6gSzc8qSEEo+EGSdjRoadwk4UkmC4damUxaOrSmy9vHRIHDgUc6cfwfFvvIFr/xYCLQgi+U6XZLzcsmKo2CkkeDbUFp+c8UBilgEoQBHbLLNtppqaM97kBr6eb8BAWAgHAXAFIInG9sWu/pg3vAWoHR+vUFJTEb4fYk487yVax1GidcTOOjpfqWiPc6aNw8gXBzKCpaKilGVApSgdfkU0vG/MXFVAOVCTDTzpjWL0hFY5cfYKNu08wkr5y1OYR25jAxtra+aZ+/n7s6YXnTp3QoOGDWFpYcnYN+kz6jdKxr4yxKzJkBMRWFICEZDlNdYgw+7p7c3OQ957Zdhned47Y+bu1qkzYmNjCy4l7hmCSPYMMt4JNHQfFItfdsqD9XI1QHJUSnQOiwrjhwFyTG5SA9+0aVPrnKzss4ZQEng6S7FuQgc0C+CK5uQdifjdk65AqYeKgOP8SJFZ4L1fvHAnXndZdp/uHbB84VQQqqaoKLLTSoVI0jhiDVz55R6GFSep6Qa+qO6oUvfpkXM09EmGi7xp8k7zhV7H8wycJvMgea6UfBWEvL+dnV0QEBjAcOZUCUoGnHjRq5JQEpFQI8ThQp4p6YNQMO4eHho6qUpnqqi9EsFZh7btNJZzs1OBOjnVdy8/BI228/0TIcXC455Iy+H34kXgYEh4GEHsTMOI9pjI2WT6D/INGCVYCD8YMuHInnWZ926IqLOjoIw5yVWtqm9e+rX97E83HLit+zXcxdkR369fgvpB/gYZeDJMh45fwKqv94Kofae8PhRvvDJQ37ZqzOfdXniPFRXlC+HGN333LfOya4rkwx1lMhky0tMY/ptCRAzm6OxSaQqSKvv9OH/uT7w+ZozGNokHfs+oKJOSjPHogXjVPjjuid+DDfLioVYLPUMfhZ7lWYNnjMk8eOqzKtooifi8Lc/CNKa2qy22zuwGb1cDil1UuVDEnoY63TQ9bAkqefA2VbS6QaXWrY5J417GlPGvGGTgafCD0Ch8tHYr7gY/gjE4eF59VsVxxesEqBBn7brPGI68ukt+F6W0lBTmtVNNhaOzM4iLpTw5YaqrXrd89x2WL12mcbxWtXOw6aXCkE1Fnv1RmiXG7PYxtIfr6VyVclBkZKRJym5NZuCNwb3Pe7k5RvYKMkjnZNgV0ScK+qoadHEpg69ESrH4pAdi9bTvc3N1xqlD3xQ01Kbp9IVoaAxVQ1JrvB8OnsTIob0NLnQyxRkr6xxvz/2UNSzJF2JS/OCjDzHsZeNocSvrOYvvS6GQIyEujiUHqdMR8a0QCoZCMgYTMFWVQ5fzPme8Nx0/H6T0X6GMfCoN07tXDIJG2/G+uOCK7YYVP6UKaowNfhRWSEBVBr2ZxMA39PHxUFpabREE4VnevdT3ccSmd7vA3ZGfklRUyiAP2QGoTPLjVrDVuEwLLDnhgUt6qIPpgg/nTMDLzz1TcK1Clga1Qn8RGvVbffeD9aygx9BKVl6dVsVxC/73HY6duVywdYInzp43F6+9/npVPI7OPVN8ncIvBHUkrhiqMnV2KWy/WO0OXIEHorehl557Hjdu3NBY9YM+iRjSlMgbn4wQ2+Rre3yQlM0dixcBcXdmTs5bcXFxZWZHM4WBF4L8/QdDkHwjALqJXR7rmLjepw5pjFG9g7iRM4SaUcaegjrtrsnvFJUZE7PkvptOesM0TRsFYcOahSBvnkQfTLLoZomsiqosXxjQzeRnqKoTrvvuJ2zb/3vB9inuPGnyZLz7np4mK1XkwPnxdUoUk9dOUD4HRyeG1jGL6TSQmJiI554dgrgiCBqafceIKDT0rNgEa9FT5aoEfHfJBduuOHNzxotAmADxjYfh4X+UVUNlNvDe3t72Dja2ayGAu49cE39nLB3T2iBCMVX6fShjTgHqQo6Jsh6+6PWnQ+yw9KQH65quS2xtbTBryusY/nx/9iatr9Cp+FxEZmVvZ/5y5+vl+73H8MWWwtdqClG8+vpr+GCRbg5+U957U89FXCp5PUpzWXiOQi+UbCdkUE3HrJta1/nzXb50CZPenoCUlMJwjNRSjePjH4Gw8E9SbsbaYPEJD0SkcrN3ErvGSrUEi8PCwrST5nMeqMwGPsDbu66l1PYKAK53TcK6v96vHiY/2xhEDcwjoiKDoWbUWYVd0nmuM2QM9VgcvacOYtJ1V9KSUe/c/iksmT+ZUQmLKmUeF41ZjNLA0VMXsXAVsVoUCsXf/7dqpVHzVYaLihdwmY16+d+VfXv3YtniJYybJ1+aeOVi6/CSjevLfzeaKyjVAlafdWNgDgJ1cIkoPpSL6h6PHj0qpMXkulBzEJ+F1TFxkH/gCkGAZgNEHeO9nKVYP7kjGvnysq6JUKbcYh2aIJYvWdAX512x/V/9+yLmwwUzxuP5Qb2ZF6/IStHazcmI+1HjLvnjwr+YtXSTxrmfHTIEn6xexciyqqLkG3izYa+4u7fqk5X47ptvNNoBvtQ8HXN7VQ7n698oKeb95snqbnhFFNXTQyIiPuMdr21cmQz8Y1Ixqrzy5t3EsG4B+GBkyZL/0q5nHZoeHYaYm8i7hNHjwlKsWEIkR6lfLS2a1se6FXPg5eEGRU46V6LV6I1V4wuJuuCNmas1TvhM//7MwD9JioBqrPJqdzSiFp4zaxZ+/eWwxtkW9knE0CeYYC26GcLFz/vNCxQKNkDuiRaSjiEhIUTyb5Tot2Q6pq0bELBAAmE578pEJLZvQU/4evCD/5XxF6BKKkRZ8K5l7Djqr8hTYkxl4m+++gKmTRgFtYIIx55cpt7Ys1aG60IjYjFsgib7X6/evfDJ6tXlwqFeGc5s3oNpNRAdFYU5s2bj77/+KpiYDNuOV6LRwKN8cnbGnOBugjXG7q0NtchvdkW1+GbIo/DNxqxH1/CvVGwFgkaqrKz+AgTu5qDDuwfi/Vdacu9VnZsERdgeoJRmGtwTGTDwdpw13tzPdxNsbKzx9er30a5lIyhz0s1hGgP0nD80Oi4JQ8Yu1Liye48eWLl61RNhbTTiCOZLnrAGrl65wgx8WGhowU5qOyrx3bAYULu+yiJERDbniBfOhPJ78SJwPSQ8jLoN6cdiazmo0QY+KDBwnCCCKIG5qPZsrS2wc24PBNXiGs6MuiLqV6gzwyv0/lB/xQ+Pe+J8OF91rU8tT+zYsByu9pY6OWkq9BBVaDFq1DFqygpGQJYvbdu1YwY+IFB7m8QqdDzzVitAA8d/O4Y5s2czxs18of6ry55JgJPUZLQuJjnJ1Sgp3vnZ2xC++FTkQSYPGLMBowx8fTc3J9HBaRMEDOd9CxjUvg4WvvIU7KV8fO+q9AcMOVNesMjSlEVZ7t/u2WPlGXeuEmMiuRo6oBfeffMlONpKSu3sZMzNqQnXmA18TbjL5XdGKh7b+v33WFGMooAqWCd3ToXNE4ZIFj85OZCLjnviAqcDSd0nBRHf5qqV042hLzDKwNfz9+8KQfieNzzjZGeFBSNaon9bHxD1rj4RlVlQxv4BdQa9cvHiivTNyv95VLolq2zV1+kpf0ZimHz7tRfw8qAusLLQfz7+nVT/kWYDX/3vcXmekGCRiz/8ED/t/7FgGUJfz+mZhOebZYATiV2eW9SYm4oqf/nPEZ+ec4OMA8xBF4vANVEijA0NDb1u6EYNtkZtAavUgID3AOFjapjCs2C7Bu5YMqY1qLEHj6jSH0IZcwJQGxV24llC5xjy4g/ccsTnF9xAbJM8YmcnxYoFE9G9bSOe4eYxjzVgNvDmR6EsGkhKSsL4ceNw88bNgmncbFWsB2uXANNSmpRln0WvfZhkhSUnPfRSlBdcI4oEpZ8YGs6SrQZ5vHzWq8juHidXDwACV729laUEbz7TAJMG8xk+UZULZczvUGeEmEqfRs1Drbfe/qkWgpO4+pawNShc883KmWjWKKCwabRRq+u/SKlSITklA/FJqbh1NxT//HsHLZs1whsjB7LiK2NbGOpf2bQjzAbetPqsabM9iniEQQMGQJZd2NCjoaccH/ZNrFQImqL3hRzItefcsP+mkwGFTzikkmBsWFhY6Q2gtdx8gw18XT+/7hKJxUkAXHW37k42+GpKJzTmLGxSZYaxNnyVwUD9GWrLsKty/ga6cHGyx7ypI9GjQwsQysbUQiXwkTGJOHfxJvYc+gORsYX1Ac7Ojjiy+ws42ktZG0FqCF7ZxWzgK/sdqtz7O3rkCN6ZPEVjk10Ds5mBd7GtXAnWopu8FCnFgt8MagiSolYpe4VGRmqyqem5PQYb+CB//y2CIBnLe9t7t6yFNW+156IlID5sRdjeMrfh492bvnH0S7vyjBt+uuWkb6jG557uLnj95afxQv9ukEpNZ+TJuP97KxhfbfsZt+6FQaFQltjXxjUfoGunVgyyqchOrfTQTbOBN+jRMg8upoEPF36AH3ZQC+g8sRBEDGuRgendkytd/L3o1qmY8r1fvEGoGn4Rlz0MD/+Af7yBOHgXFxcXd2cXInfg3tXGdzqjU2NPrj2p0u5CGU3MggaFmbjmNnZQTIYlZh72MihUQ2vZSm3Qp0srLHh3FIjaoKxC5e8/Hv0TG7b9ogEpLD7vgulvYtSwvH7nKkUOlLL0si5drtebDXy5qrfaT/507z4ILYJ/t7VSY3q3ZDzfrPIXHh67b8+6Phkg8Q/Dw3zoq817jUEefJC//zRBkHBzIxDn+4/v9+bai6hWQBG6G6L8yZHza9soFSccf2CH/532QJacvyl4/ly1vd3x0YzX0LSBP2xtpQZXltH66ZlZ2LznN+z5+bRWr73ovj/5cBoGP9Oj4H/lpidUqh/M4jqOS0jBiElLkZFVmBBr36E9q2T199dsj8j1IJkH1RgNREVGome37hrndbVV4dMhcWjqVfnDkwoV8Oz3fobx00AcFhIeXggZ0nO3uQ28j4+Pna2V1QlA6Mz7BC0a+RRe6hbANVyVdgfK2DMVjnvn2RxRCG/8x4UhaxR62vppm8/eVopnerZD1/bN0KFVY9jZ2oCoDvQJYXwpJPPjkT9x6vy/oMSqLpFKbXBox2eoU9urYJgiKxVqVeV92LVVsvbo2ZNx0Xh6GuTd6FOn+fNqpoE9u3bj/fmaPId1XRX4fnh0hfdgNVa1my664NuLLtyXixAPh4SHP8/rxeu3Mo+Xfox9PwgIHjy7oX6r303vygWNpE5NrJkHQ85UnvBM0XNSqIY4nQ2LmWlqytnRDm1aNIR/HS/069YG/r5esLWxzmvT9lgoFEPNuW/cCcXxM5dw+fp9jUSqLt2/MLgPli7QTDgpZRlQKSonXIzOQn1qR7+zQuNYvfv0wco1q+HqysVAzfM4msdUQw28M2kyjh6lNtCFMrRJBhb2Taoypw1OssLEn2qDCqA4JValkPcOi47m6nzEb+D9ApZAIswFwBVQfrGLP2YPaw4iGNMnVNBEuHfRxK349K1r6OcJmRKM2+eD+Cz9Z9I1t6WFBRwd7GBtbckKv8ijr+XlhtS0LCSnprNmEbIcOdIzs9m/eSQo0BdfrVoAXx9NYk+lPBuqSkyEdvXmA7w1Z63GEfsPHICVq1eD+rOaxawBbRpISU7G80OfA4Vpisry/vF4ukEhZLKya4+iA4SJP8PJMikC2RDVC0IiIogmRq9wGfjHtMDUlWGA3hkB2FhZYOmYVujfto7+4WoFlPF/QpVSWKig/6InNyIk2Yplv+MyLCvNu4aHmws+mjsRPbu2KxH6qeyJ1qN/XMTClZoNP14aNoyFaMxi1kBpGjh/7k9Me+cdpKYWwsItJSKOvRkBRxs+p6gyaJeQegdvO2DVGXeoOFkmRYj7M7KzxyUkJOjNJHMZ+PqBgb1EEfQt5GJ/auL3uCVfHf3wQsYYGXEQUJa5v2yF3C9yqAnDSh1awlOsn7iRd3F2xLQJo0HhGSq0Ki6iSgF5VuVKXBfd446fTuLTb/YX/C96o3ll9CgsWbasQu6neZGqqYEvv/gCX36xHnJ5YX6plU8ONr0YW+UOZHhLP/GWqFaPC3n0SC+POo+BtwzyD5wiCCCXSm9xE+UOn+3gh4UjW0JqpZ/JQBl3Dqrkf6vUTVGpgavRUtbDNTajbOGashycUDnkuffv3UWrcae5CQ8vz6y8McnPNx/A1n3HC9RgbW2NidWo6XZZ7q/5Wu0ayMjIwIK58/Db0aMaIcypXZLxWpvKDQvWdiKKvy896Y4zIdwhSZlKxKSwiLDtAHRWc+k18PXr13cS5UpijhzB88DZ21hi/ogWGNLRT+9wUZUDefDmCuV717spzgHkycdmWGDigVqIydD7u8c5K/8wMu6fLpuNLh1a6mzkTA2gWc9YsXJW9c1d8Q1OnLtacHBbW1vMnT8fr742hl8Z5pHVWwOiyFrxWVhashDk3Tt3GP/7f7dvF3nzE7FjRDTqeyiqnC4ooLTrmhO+/tsVubwEZCI2ZuXKZsbFxekMfeg18HXr1g2QqMW/AdTi0VwtV1tsm9UN3i76+dSViZegSijswsIzf2Ubk5YjwaLfPXAl0tYgSoOynMNWKsXsqa/jpaF9NRA42uZk1cFU0Ur8NJVQCEFDSJp8oTZ9yz/+GIOeHVwJd2veUrlrQBRZ2JPQZAQTVioUSE9LhdTODs7OLszA/3bkKObNmYPMzMIQdCNPOdYNjQMRjVVFeZBkhXcO1UJytv6ox+Pz3VFC7BseHq6zq7heAx8UEDBKgPADr9KeaeODVW+20ztcVGZDEf5jpSts0rtxLQOSsizw4y1H/HTb0ZAbZMxSIATOc4N7Y8akMXB2ctA/hyhCIUurlLw0hBDq/fJMjSIngkZ+tXEjqNjJLFVPA3RPyTiTYSavm4w0Hhvt4qfJKwURinwuspCLSqmCLDsL1GuVIMRuHp5wdHJixp1i7us//xxfrf9SY7rhLdMxtUsKpJWM/533DlLP1okHa+FaNDdJAAVg+z4MDz+law0eA/+jAOFF3o2um9ABvVrqd/ZVqbehjDsLqKveK5U2XShUAi5GSrHnuhMuPrLlZ4njVezjcW4uTvhy1QK0aNqA70p6vc3NhEpe+bDwqWmZ6PvKbI1zeHp5YvfeveZuTnx3t1KMIoMuz81FZmYGVEolM/AKhYL9mxl4I8XGRgp3T0/YFYHLpqSkYOrESfjnn38KZiWjPrdXEgY1ygRH/aCRuyn/yw7cdsDHf3CVGbHNqEV8HhoRNs1oAx8YGCi1EEE4JBue41G3pjOfDABRBOsSUS1n3ZrU6Q94pq1SYyhkQx2hNvzjgiw59+sW9xnbtW6G79Z9BAsL7sIIqHKzmZGvbEKEaa+/94nGtnzq+OD3U6dgY8P1yFW2I9WY/ZCnrZDLkZSYiNycHFAokAw7b92GPkXZOzrCw9MLVlaa+a2Qhw8xeMBA9gOSLwGuCizqm4gWtZ5M/wh9Z+H9PEUmwYDv/CByEpqIohgZEhFOfB6l4kJ1evD1/AKfhwTcvQCpuOnD0a30nkedHc0430V5mt6xVXVAYrYFlp9yx914a6TKLLgxrvrOO7BvV6xaMkPfMI3PKysW/ufjF7D4UwICFEqbNm2w9yduqg2D9GAebJwGWNhEpcpjKFUokZKcpMG/btys2q+SSCRwdHKGu4cHJBaG6FkAACAASURBVEUqvPNHb/72O6woBqHtGpCND/omwc3O+LcFU56hLHNN+8ULf4XzNUaidZQQu4aHh18obU3dBt4/8HsIeJ13w+sndUT35pqVlCWuFdVQJl+DKv58paUl4D0vz7jQFCscvOWA23E2uJtgU+ZELBUzfblSk39D3z7UylwoZBmVDkmz8us9jECtqLw8fDg+Xqnp1es7n/lz02og36Dn5sgKEp3U0Loo5ty0K+bNZmtnDydnZxZv1ya0r+cGP4v//vuv4GMqbnqtTRomdjKoD0Z5bN8kcxoaphFFrAyJCCOGAa1SqoGvU6eOu9TS8m/evqvUjm/rzG7wdNadJCBopCLyV4jZUSZRSFWYhCCVj9IsmYGPSLXEr3cdEJtuaZRXXy/QF4d+4KpSLlCNWqUAcdKI6sqFpJm8YB3++VeTUmPu/Hl4a8KEqnBbq80eyXDSnxyZDFmZGXkIFqUKOTky9u/yFkqkOrm4wNnFFZaWpdeV3L1zF0MHD9bYk5NUDaIn6OiXU97brJD5yT68ub820nL4wrvUr1ViZdkpODhYa3yqVANfLyCgDyDsBeDOc7JB7XxZcRPF4XWJOjsGiogfK503yXNGU4yhZCzF6YmV8kaMDQ7ddsDNWCnkaoHABnrF28sdP21dA2cnR71j8wewV2tZOqiqtbJITq4cwycuQVSsZhHW1h070LVb18qyzWq5DxYnJ4Oek4P0tDTIZNksiqumOHoZkqLGKEsqlcKrdm1YWVnrZVj93/IV+PabbzSW8XdRYNfIaFhZcHx5jNlgBV+TniPBwuOe+DtCP8z88dbiBYgDg8PDC4tJiuy5VAMf5B84XxCwiKe5B5WXz36pGUb0rKu3c5Mi6hjU6fcqWG2Ve7ngRCssPumBewn6E4turs7YuGYhmjQK4j8UJcRy0qFWVJ4k1MPwaEyavw5JKYWVhwSDu3DxHzNNMP+dLXVkvlfOEp+Pk5+EdEnPSIcsK8tkyVBjtkr32dLSCh7eXrC354D6AuzHaFD/AYgID9dY8vW2qZjSuXqEZ+hg5ABuu+qEjf/wMqkKmRDFmQ8jwjZpuxdaDTzjfre03gIBw3luIIVliFysc5NCHnJt16kVWVCEbKs20Ege3fCMISriJSc8cIWjfZetrQ2mvDkCw4Y+DXs7W71eT/76ypyMSgWV/PPSLXywcgtjzMwXDw8P/H35Eo/KauQYSnRSErKo5OHGlVCqlFAplMwLz3PQ1QxHLsvKhlJZed7cbO3sGOyRYu0WFvw0HydPnMDsGTORnl7oEFB7vh9GRiPIrfKczxQP5h8P7RjDJGeDIbUo4htXT/d3rly5UkIRWg183bp1G0nU4vcAOvFsuFU9Nywd0xr+nrq5FJTJ/0IVd45nyho1hkI2dEPPherPnhPO18vDHS2a1keAnw9eeXEAvD3ddNIVkDJV8mwoc6iquXK8yu46eArrvz8ECtXkCzX62LyVHjuzaNMAwRHl8lwWK8+PjZOBZwVFZOSVyifqmeu6a2TYKXlqZ2cPy2LQR313m861Yuky1nu1KK6+qpKL6Tvv/QRr9kb/IJGLmZ2mOwWFxdiH0Q8LS8IfL6LdwPvXfVoiMANP/f/0yqD2dbDk1dY68e8MNxu6C2Juot75atoAogwlA3/kLt/rar5+iD3SzcUZtbw9MGHsS+jS/qkSuOH8sWqlnMXhK4qTRi5XwsrKotQ3jJVf7cG+X89ATYd/LJOmTMbM2ZqFTzXtWdB1XhZ2UT/Gm0NEdlYWUpOTK7Vhp3oGT+9asLLWbGxjyH0NDQlh3DP/XtUMMy/onVgleq8aclYamykXsOSEJ05zcsRDFB+KEMeGRET8WXwtbQZeqOcf+BYEbOTZGDFGTh3SGGP61tM5XJ0dCUXkEUBVPbLdPLoxZMz6C67Yec0JSiNaAhZdZ8zwwRj+Qn+4OjvCydGhwLMnw6DISmav7hUhO346gW7tmyPQr2RVc2aWDB+t3YY/LlzT2MpXG77GMwO4Wg5UxBGq1Brk3RM+ncIy+T8CFYGAKWFQBIGRglHy1NPLm/27LEI/akePHMH78+aDWCTzxd1OhW3Do+HpUPWx79r08/XfLth+1ZnLHlATEEHAmw/DwnbrNfDe3t72Dja2qyFgIs+NcbG3xpq32qFdA10ltiKUCX9DlXQVEKvnDeHRla4x+2864ovzbpBxssnpmouqXNu2bIq+vTqyDk+tWzSCo4M9FNkpFUY6tnHHYVz/7yGWzRkHolcoKhFR8fho7VZc/49aNOYJeXqHjx5B3SADksdlVXo1vV6lUiIzIxO5uTnM2CvkChbaKS+DL0gk7P4R1bO1jZTF14vnCoxVtSw7G/9b8TELzxQVas03o0cy7KwqR8jR2POVdt3ZEFssPukJ6vjEJ+JywcpqaXG4ZAkPvqGPj4fKyvpnAFzNtYk98seFveGgAx4pKjOhjP4d6qwSISK+vdeAUZcjpZj/mxeDUJpSXF2c0KpFI9QL9MNzT3dELfdCr96U6xSf68cj5/DpNz+if8+2mD91lAZf/bXbD5mBfxSdUHBZUFAQftiz24ygMfVNEUXIFQrGFZMPgyRECsXxKW5vKLUAIWDIaJBnTslSG6ktM+bWjw28qbcfGxODYS+8iNjYwkYe9tZqxj3Tv0FWleae0aWruAwLvLG/NhL424MeUYjqVyMiIjS6+5Qw8I/pgalUTH/GD0C/VrWx5i3dzH9k2BUxJwBF4SuWqR+Eqj5fUrYEr+/h7/dKCBqlUoXcIh1tdOmA4vUuTo6gxt9vjx6M7h1bwMa6/HjsqYBp/sffQqlSYfpbw/DCgEJs+6nz/+LDNduQLSsM1/Xp2xer166Fk7P+LmBV/V4/0f0T2+NjxseiLI9k7Infhbx+xr0ukRR44YKQZ8BtpDbIM+9EAimwz03lqZemk21bt2LJhx9pfNzUKxeL+iVWO/RM0UMSEmriAW/8G82JhxfxSC6qOj169Ci66DwlDHxAQMALlhB+4n0IP3ilJYZ119HJj6gJUq5BFVci/s+7RI0ZN/WQN2Oi5JFO7VpizdIZuBccjk+/2o7YhCSkpKYzo88jFMYZ+VwfZnidHe3h5GhvEIGZvjViE5IxdvpKJCSloWGQLxa99yoaNwiAWqXGzoOn8Nm3mnwzb4x/EzNmzWKxW7OYNUAaIGqEZwcOAhGM5YtEAF5sno5ZPZJB/67OsuFvF2y+7MJ9RFGt6hDy6JEGzriEioICAtcKwHTeWX/5sA/8vUpHf4iqXCiij0HMDOOdssaO++FfJ6w778Z1ficnB+za9DGDSpKEPYrGgcOnEB0Tj2u37iE2Ponr9VsiEdC0YQD6dW8Lv9qe6NCqMWyl+qsKeTZJBv7m3VA2dHDfjpgzaQTz+NZu2ocDvxEXUZ5QqfqHSxbjlZEjy90j5Nm3eUzl0MCx337DlImTNDbjJFVhef+EakNNoEvTV6NsMPFAbe6bIarFmSGPwtcWvaCkgfcPuCQIgv6OHQC8XKQ4tvRpkJEoTUR5CuRhewFV5ami5NZYBQ98lGqJYTvqcNOFLp4/CS89209jl4Qrv37rHsIfxeCXY2dw8/YDFibhEScHO7Rv1Qh1anlgUJ+OCPKvXSav/vu9x/DFloNsaQoHTRzzLIY83QWzlm4AxeHzxc3NDZ+sXoXeffrwbNM8pgZogNBAr786BpcvaRa+tfbJwWdD42BbRRt7GHLrsuUCBmz2Q46SOy938GF42AulGvj69evbiHIFseZzYZt4ujepUm5CGfuHIeeqsWMp7jZqlw8eJvMVOHRu/xS++YzYJEoKxVnT0jKQnpmFX4+dxc4ff0NqGl9DYuoa5eRoBwc7KcaPHISne7aDtRXXI6GxkdBHMRj29pKC/0dvBvOmjsSaDfvZvvKlUePGWLl6FZo1b15j77354JoaOHP6NGZMew9paZqU4ov7JWBgY51tSKuVKsfvr4UbsXxhSxGICQkP06hd0nC9G9St20OtFs/wamje8BYY2bOuzuHysP0QZRpxf97pa+Q44qFYf4EvTEMKOn/0e27isb8uXse6TTsRT/H6tAzG7c0jZNwH9e2IEc/2hLubE2sVSD8CPPLW7DW4eitY59DuPXtg5erVZgQNj0JrwBhK9i56fyH279unEWb0dlDil7GRNUADhUf88oILtl7lj8MrRHW9iIiIAvyxhoGv6xcwUyIRVvNo0EIiYPus7mgWUPriakUGFA+3Vlj1JM++K/uYsGQrjP+xFtJz+QzowplvMboCXiFYXER4GH757QwiouJw+cZ9JCalMWQFj9QP9CkI3zzVLAiO9nY6+XB+O30JH6zaolGxWnQdgt299PLLWLp8WalVuDz7Mo+pPhq4fu0a5s6ajeBgTcdgbs9EvNSi8nUmK0/N/xUuxbRf9LdALdiDGq88fBS2J/+/NQx8kH/APkEQhvFsmPDvO2Z318n/zhp7UN9Vs3BrIFMuwbKT7jj1UDevT/6E7Vo1w5b1i7lJx+g66s9K5GOEuLly8wEeRcezqtKrNx9AzunVuzo7oGWTIHi6O2PoM13QuJ6/1nh9YnIa3vlgPe6HaPe8qEDmvRnTzRzw3E9I9R5IyJlvN27C5+vWMbhmvlBbvvXPxcK7mlaulnZXo9Is8epuH2Qp+OLwoojPQiLCCkAyRQ28UC8g4D5vg48uTTzxyRtt4WRXSryYCizCKTwTU72fSBOfjhzpX+5Q8113roYg7q7O+HrNQjQ1gD5YrVRAmZPOWrCREB9MRlY2ZLJcnPjzKr7ddRREJ8BTBENU0RSyIXz9+FGD0Ldra1hZWRb84NCPyNb9x/HVVqqdKylOTk5YtXYN+vbTTBabWK3m6aqIBuLj4zFqxCsIC81DX+XL+A4pGNc2vdrwvvPejhSZBab97MWaBXHKmYfhYb3yxxYYeH9//yBLQfKnAHDhcoZ3D8SMF5vB1lp7KEGUp0JBBl5ZSAfLucEaP+x+ojWjD6a/9YmNtTWmjB+BN0Y/r29owefER6OUpYMIyEqTS9fv4cvvDyE+KRUpaZmQy/koWQlfT0b+1Zf6wdvDFa4ujrgX/IhxzxAHfHHx9PLCnn374B9AvYPNUtM1sPHrDVj1iWbLRj9nBStseqp2zUPiEWXwx6fdcPw+LxGhGJmjVLaKiopinXQKDHxdv7rPCBJxlwBwZfjmDGuOV3Q0+FCl3oEy7rSZ+92Ib2yuUsC68644cNsRKg7ysd7d2mPZ+1OZJ80rytxMqHL1//iScT90/DwehETixp1QUAFTUQZIXevV9auFFwd2g4e7M/668h+OnLpYohCrSdMmOPjLLwwLb5aarQGiJXhh6HNISCiksCAE9rPEO9O9+vLO6Lrr1ABky2VnfHuJO9Gq0eGpwMAH+QVOhASrBUBv8Jfa8i0Z05rRFGgV8hDjzkCVcqvS8I9Xta8ONf+Yd5SPm8bXxwvL3n8H7Vo15T5mHn1wGmvdxiO5cgVu3Q1FZEwizl28yQx2US53XXM42tvC090FEdHxJQz8iJGvYPnHH/NswTymmmtg+ZKl2LJ5s8YpqbBpRf8EdKgmPVcNvYX07fz1jgNW/OHOxSwJIA1qTMhPtBYaeP/ATwSBVbDqJSjx9bBjDT7a1NferlVUZEIZYyYXM/RmFh2vVAMzDntz9Wak6tDZU1/HqGEDDfCERcgzkwvi8Lx7pbh8ZnYOsrJlOHb6Mjbv+Y39m/N3osQya9d9hqHPPce7vHlcNdXA3Tt3MH7cGxqkYnTU3kFZWD4gAZZ8OcZqqZ0L4bYsZJss43rLzQGERQ/DQ1cVhGjatm1rlZKY9L0AjOLRUPMAF+bB16utvfGzOjsKyugTEBWaRQo8c5vHFGrgQSJBJmtDxpFB79CmOdYumwUXZ/5m3KrcLChzy1Y0Qgb/9v1wbNz+C0IiYpGcms6NxCGI5Ik/TiEgUAeXkfmBqPYaINz7siVLsXvnTo2OTdYWamx5OQYNPPjyP9VVUXfirVlDoIdJ+nNyBJITIW4ICQ9/h8InzIMPCAiobSkK1IO1P4+SujfzxtLXWsHVQVtmVwSLv1P1qpn7nUedOsdsu+KEr/52Q5HGR1rH29hYY/MXi/FUs4bcaxKKRp6VzB2m0TdxRmY29h0+i5CIGNy+F4ao2ESo1KU3GKG4++HfjqJBgwb6pjZ/Xl01IIq4ePES5s+di/AwTb6qYS3SMadncnU9Ofe5DOnZ/HjSA6KFZFxISEgaM/D1/f2biRC+BwcHDV0wpKMfPhzdCpYWWjho1EooEs5DnXyd+wDmgaVrIEUmwcJjnrgUqZ9lctjQfvhoriY5kz7dKrLToFaaFp1AWPo7D8KZgf/z4i2c/us6KIavTbr36IFPP18HFxfuJJK+I5k/r0IayKaGHstXYPeuXRoNSXycFPhsSDwCXWu29063MksuYPEJD5wO0Zsezb/zp1UCxoWFhYUxC13P378rICEPXq8rZWkhwdin6+GdIU20PkaiSgbFo8Nm/LuJvmQU2/4zzI7h4hOzdcfgCDL5+08b4ObqzL06S7Zmp3KPN3RgZrYMaelZzNBTl6e0DM2QEHUBmjBpEt59b5pBxVqG7sM8vnJq4OqVK3ht9KugJiRFZULHFLzWpubh3rXdJUq0fnLaDQduO/Hmuv5VK4VxoVGh15mBDwoIGCRA2EIEkfoeA1sbS8x+qRle6hqg3cDLUyEP3WWGR+pTpAGfU8J1zdm8G6wvVDPlzRGY9MZw7tkJE09evKgqf08pOSUdL01YgvRiRt7X1xdLVyxHt+7dzUae+85V/YEymQwjh4/ArZs3NQ7T2DMXi/omob5H6XUaVf/0hp1g+1UnbLroCoJQ6xMRCBXVwtjQR6Fn8w38aAHCd8Tqqu9iJzsr/G9cW3Rtqv23QJV2D8roY/qmMX9uoAbCU6ww+4gXwlJ0g5z86tTCjo0rQBWufCIyPHxZk618awFH/7iIT77cwypni0qXbl1ZRycvL70+Bu9S5nGVXAPfffMtPl6+XGOX1hYixndIxWtt0qp9Qw9Dbs/Re/ZYecYdVPjEIakQMO5hWNhBMvCWQQEB7woQ1nBcCDdHG2yc2gkNfbUbEAX1Xk27wzOVeYyBGjj0nwOWnyJoaum/4na2Usx5dyyGDX2ae/bi1AXcFxoxkLDzX279GbsP/aERcyVEzajRo1njj/JuA2fEts2XmFgDkY8e4Y2x4zS6NdESTbxysfbZeLjb8fUwMPG2Ku10lyKlWMDZs1kEVIKA8Q/DwrYKgYGBUgu1uASCMJvndNTkY8+8nszQa5PcB5sBZc1ifOPRmynGUFXblEPeuBZdOj+0IAB9enTEknmTuGmEKbCnyEmHWmHaZGtpZw6PjMPiT7fh+n8FrKZsqJWVFT746ENm6M1SvTWw4euv8cVn60CNPYrK6sHx6FFXf4V19dZOydOFJFth8sFaSNaThyu4UsRcv6DAtUJTz6YOcrvsdSLwBo/S/DztcfijvlqHivI0yIke2CzlpoHbsTZ4+0AtkLEvTbw83LBk/mR069Saex9k3MnI82ZxuCcuZeDJP//Fii92IjVd0xlwcXXF+q++RMdOnczx+LIquZJe/+D+fcydPRs3rt8oscO3O6bizXap1NPbLEU0kJ4jwajdPojP5G28I65SCcIiwd/f39VKkPwAYCCPRjs38cSGqZ21DiVqAmXsKZ5pzGOM1EB6rgQfHvfE+XDdsMnXRgzBuxNGQWrDVRzBDLs8O7VCkq35R/9m56/YsP1wCU20adsWK9esRqC5AMrIp6TyXkaJ1a/Xf4mNGzZoFDXl79jFVoU1g+PRolbFvE1WXk2V3NmInXUQmqyXaCDvQlHcbmkrnSLUq1fPS1SqjglAK57DEovk+6+01DpUEXUU6vQHPNOYxxipAZUI/HTLEZ+ec9PJTUFe/NYvl8LPl79ZgEqRCyXx01SQEEPlknU7cPTURY0VLS0tMfT557Doo4/g4MBPoFZB2zYvY6QG0tNSQbDIubPnIimJkR2WECIX6xwgw6weSajjxNdxzMjtVLnLZv7qhXOhdpz7Fk7kqhQjhIa+vnVUFpZXAHjzXDnjhWZ4vV+9EkNFKnAK+cFMT8CjxDKOoRg8lS5Hpul+XRszfDDmTuOKvBXsSJ6VUqFefGx8MuZ9/C1u3tXk/6Z4/MTJkzBtekHvgjJqrfwvpwYVWRkZyMhIh0qpgrXUBlKpFFKpLWyk0hqbPM7NyUFifDxyc3Mwdeo7uH/vvs6bYSkRMbRJJt7tVjMZJEtTDjl1u6478T7It9USoa8QFBTkL6jUdwHoL5UE8L9xbTCwnW9JA5+bCEXEQTP/O6/6yzCOurwsPumhM9lK01PjjVOHvoGrM/dDwTjiCRcP8LFMluEYBZf+8+8dxhcfn1iy4IrIyAY/+6wBJGqm2JHp5qAkYkZaGrKzswpQQ2qVCvSWYufgAHt7B1haFb52UwMVQSKp8j8GKpUKdM642BjkyGTs7Nu378Cunbu4lTu5cwpGPpUOG8uKexa5N/cEBu654cTqYXhEBGItVcp2Qn1//6aiILnNcxGN2fhOZ3Rq7FliuCrtLpSxxP9uLk7g1aWx45KyLRi73F8R+n+Thz//DBbOehtkOHiEyMPymoFUXAxUpVJjz89/MPhkcQpiJ2cn1pC7T9++Vd7okf7J0GVnZSFHls14ekjf8txcKORy9m9raxtIbW1BrQzJ0NNts7CwhLWNDftRqMxCRl2Wnc1a7WWkpyM3R8a2S5xDV65cxfJly5GRkWHQEd5ol4qRrdLhLC2d08igCavw4CP3HPDR7x68J8iApUUzoX7dukNEtai9n5qWqX5e1AcB3iXjosqEC1AlXTU32OZVfxnGGUI+5O7mjHUr5qBVi8bcK7JYfE5Ghd5LWU4ua+u382DJJH29+vXxv5Ur0boNPyqI+7BPeGBRA0+Nz1UqJTLTM1g4I1/IsJOBJ0NPJRAWEgvY2tmxP0+6ZoDRR2dkMMNOe6e/6UcsX8i4J6emMbZIqljlaQNZ9JZQ4dPLLTIwpk0a3Go4Np6w8FMO8ufUBIhthHqBga9ABPd70z+fDoa0eJs+tQKKmBPmBGsFGYvbcTYsBs+TUacCohcG98Gi2W9ze4BPwosn1ZGRX7x2G34/d1VDk3SGxo0bY8v2bfDw4PZgKuhumHYZ0j0ZSJH+AEhPS0NaagoLd+QL6YP+SB53wSIj7+DgCGcXF1hUkJdP3DGJ8XHMW6e9FTXqBcbd0hIurm5Y/OFHOHrkiFbUDI/2yMgPaZKJd7rW7Jh8TLolnttWMjxemg5FUd1dqBdQdzYgruRRtIVEwNUvhpQYKirSoaQK1uwonmnMY8qgAaVawM5rTvjqL1e9vDT5y/jU8sSS+VPQqV0L7pXzOj4RLr5iX40JFz9zyUZc/+9hCW+vfYf22Pjtt6BG3TVRCGKYlJAApVLBdEOGVZtHTKEde3t7ODm7wMraOq/umX4QjIztF/3RSUtLRWpysk5PnH58bO3s4e7pCeqx+vlnn5nkdvWtn4V5vZJqbLgmKcsCA7f4cetSAnG0EOQfuEIQMJ/nqjrudjiypF+JoWpZLDPwojyFZxrzGCM1QERjB2874uu/XZGWw8VJUbASxeKp65OtbelVsMW3RQZerdBk+TNy6wZddvt+GBav3a61SfegZwdj9pw58POv2U26KW5PcW7yoOkPxbu1edH5ireysobUzha2tpS3KczHUPiH3gRYrF9iAQoT0duDWq1i8xKbKcXWMymmXiRsVNoNpR8RZ1dXljzet3cv895NKe18c/Be12Q09KyZub5uXwdArqPIsaiuRRHvCUEBdb8VIL7JcxOa+Dlj97yeJQ18xkMook8A6opLzPHstzqNScyywJYrzjh025H7Bhc9v5OjPdYsnYXO7bXXMGjTFTUEISph+rsihTxG6vn6/srNSM/QLFsnxMnQ54Zi5uzZ8PbmQvZW5NafyFpkiHPIwKvUIC8/KyNdp7EvuskCAw8wQy+qRahFNXs7oHkNEYKCurq5s9zA/r378L8VKwxOqupbj3DyxDZJTbhb1M7Vwcqkb6aq+fmgzX56acMLTyYsF+r5B+6FgJd5jkudnNZP7qg5VFRDlXIDyrizPFOYxxihgRuxNlh7zg134224wzLalmkQ5I8D2z81aAeMwqACi5/yN0fe6JWbDzBxXsnXe+KQHzZ8OObOn8dCEWYp1ADpjYwzIXRSkpKQmZFeIeohigkXN3eGmPn9+O9YOH8+kpNLdmNyrtsMuWmJyEmOM3pf9P5BCde1z8ahiVfN8uRf31sbd+L1kv4y3YoiPhPq+Qf8DkEoGXfRov5n2vhg1ZvtND9RK8EQNMnXjL5h5gtLaoASbKkyC5wJscMnZ9ygUvPBHPXpcvqkVzFu1POQkCvEIwSbzMmA6gmEamh7RC+8/POdLAFbXF4bOxYzZ88yG3k995HCOUmJCQyOST8AFHIxhVCsnQrSXN094OhEzShEXL58GePHjkNWlmZjF0GQwMG3Hmp3eAbyzDQkXD+HrLiIMnMffTwgAd0Cs2sMVp56NN+I4TPwArBTqBcQ+BeATjw3fFi3AHww8imNoaIql/G/qzM1+ynyzGceo10DRCx0NVqK7y654F4CJ5cMpzJdXZzw1aoFaNFUb/OughnVKgXDxld0qIY2QK3+9vxyGlv3Hi9BTEafj3p1NCZOngwfHx9ODdTsYVR0RJW25OVTERYZfcNFgI3UBnZ2dnBz92B4ffrhOPH7CcyeMaOEcacAv0PtQHi36wsLqzzjpMzJQuLtf5AefrdMRt7WSsSrrdPwYvOMGkExPPtXL5zhpCsQRHG/EBQQeFcAGvHc5NG9gzBnWHNNA6/MgiL8R4jy8mv7xrO36jKGIJBbrzgzA0+G3tRCSbD+fbpg3ntvGNAUBFDJHzcFoaxbBUtGlgw/HjmLb3ceLeHJkwdJidf3pk+v8YlXQ24Ledv55+akNQAAIABJREFUBp7+TTF8olnQlail+e3s7OHg5MjoFwibT6JQKFhC9dM1a5FSPCwjCLDz8oV3qx6wctDsu0tIrZQH15F89zJL7BordlZq9Kgrw/TuyXC1Nc3bibF7Ke/r5h31xKmHvGFJ4SSFaB5BELjAldOea4o3nqmvaeAV6ZAHE0VwxX/xy1uZFTk/GfNlpzxwPcYGKTLdvVfLui9raysseO9NvDjEgOpQ4oyXUYPuJxPzJE9+7y9n8Nm3P5Y4PiVeO3bsiM+++Byurq5lVU+NvD4/dp//LVYq5IxPh7KYlpZWBfh6chAozp4vZNx/2LEDa1etBjXQLi5Wdo7w7fkC6G9tQm+FqSG3kHjrL4hlCB1ZSABfZwW+fSmmWsMoV591w94b3DDhv8mDjxaA2jxPtTaiMXVmOBSPDvFcbh6jRQMUZz8XZstw7URBUFFS29sTG9YuRL1Art92ti3q3yrPTK5wbHxRnWz/8QRr3q0tJt+gQQNs/WEHPD09zVzyFfAgZWZmYse2bVi9clXJ1Sg+b+sA/77DYWGtB5oriki+fxXJd6+W2YEgD57ohht7yUGkZdVNCGyxm5dwTMQlisFza2HWS80xpk+Qhs6UiZegSqAwvlkM0UCyzAKXI6XYf9NRL2mYIfMaMrbNU02xdMFkBPhy/b6zqcmDp6Trk4jH0/rkye86dArb95/QGpP39fNjtAZUFFXU0zREL+ax+jVw7949fLNhIw4eOKDVuFNYplbbPrC05ad7TnlwDUl3Lpe5s5ivsxJvdUhFv/pZsLLgNm/6D10JRnx5wRVbr3L2WxbFSIMM/NIxrTC0k2aBiSLqGNTp9yrB0avGFlRq4EKEHeN0v/RIahSm3ZQnpa5Pi2ZPAFW78okIlTwHytzMMiXH+NbSPopi8oSuWb/lILKySxZi+fv7Y9qM6Rg0eDBDeZjFdBqgUM4///yD1Z+sZNwyxRE5hJaxrx0Iz5ZdYGXPaYiKbC897C4Sbp5nz1hZxMtBiXHt0vBSc8PIzcqyZkVcu+2qM9Zf4AxDGmrgP3mjLQa0raNxDjlxwOdqJ++viANXpTWozd70X7xwJ8EGGbmmT6AaowuKqfbt0QHzp78JahLCJayHaybUijy2wCchCoUS124HY+L8dVqXd3B0wJjXXmMFUWYxnQZ279qF1StXIi01TStdgaNfA3i37gnJY7SMoStTwjcj/B7ib/xZZk+ekq/DW2aAaIeri+z41wmfn+f+nhrmwZcw8KIauXfXVxfdlcs56AUxM1eCY/ft2S9vtsL0hl1iZc3gZ2qlwmjPp3f39pjzzlj41eFjq6MvoiKbmoMYVu1oaiUHh0ZhyvufIyk1Q6vB6dS5Mz5f/wWoEOdJMy+a+uwVNR956SkpKZg9YybOndVe0ChILOAY0ATerboz2GRZJS9ccwlqRdmS+hSHH9YiA5M6pYAglVVdKtTAE/eM/OH2qq6zcts/EYOdemiH3+7Z43y4ncn7Wds4e0Dq5gV77wDY+wRClhiDpP8uQpYYbdSZGjcIxNTxI9G1YyvWLESfELSNWvwRTv5JCaE2b94NwdpN+3H7fngJmB9xrLRo+RTemfYuunXvbg7ZGHijiDXy18OHsfmbb0Fx99LE0sEF1q7esHV2h5XUFoKFJWzda8PSlhfSV3JmU8XkWYeoppl4u0NqlaccNsjAA3EGxeCLe/DqjBAoIks2TTbwGaqWwwnH/usdB5x8aIdsedk9mgIlCQKkbt5w8mvIvkA2Lpr0uVQlmHjzAjKjQ4zSq4uTI0a80B8jXuzPFbIhD56Srk/SyNNBg8OisXn3URw7c1nruakQqk+/fpi3YD5ro2cW/Rr477//sPGrr3H2zBmDOWWYgfeoDTtPX7g1bAUIxn0HTBWTpx/6zv4yTO+WjADXJ+eQ6Ne67hEGGnhFmQy8KvEyoykwS6EGcpQCtlx2xk+3nJCeKzGp105JK58uA2FpY5cHPSulS5MiOwNxV/5Advwjo26NtZUVvL3c8b9F0/BU84Z652CVroSsecLhmswsGQ7+dh6fasHK0yEIVUNQyg+XLEb7Dh30nqumDiDCsq++/BI/7tuH+Lj4MqlBsLCAk18jlnQ1Ji5vypg8HYSM+4LeSWjtU7YkbpmUUoaLDTTwKJOBNyNoCu8UxdnDUqww5ZA3ZCaMs1N83cbZHR7NOsHWg78cPzc9CTF/H4M8o2wJJjLwyxdMhaeHG+zsbEv7TWEe/JOiM6C7wHICShXDx/9+9gpD2BDaRpsQZe70mTPw3AsvwN3dvQxft+p1KTUXCQ4OxrzZcxASYtwbYGkacW3QCu5NO0BiaRyqyVQxedqfn7MCM3sko5O/DLyUTJXlThtm4AVlmQy8PHQPxBzjWeEqi9LKsg9CxlyNkuKn2444F2oLirubQiztHGDr7gMHn0A4+vLzxhRdOzc1EbGXTzL2vrIIVb4+06szOrRtjratmpaKm69oTz4qJhG37odBLldAoVQiNj4FD8Nj2FHDHsUgPCpeZ2OKdh3a4/WxY9Gla1c4OxsO6SuLTivTtampqbhy+TL27NqNUydPltvWPJp1hFvjYmSFBqxmqpg8LUkwykmdUjGwUWaVMvIGGfgywSTVCshDdkBUVC+cqQHPGyLTLPHtRRdcjpIiPlN/UpJnbopdOgc2hYNPXRbDJHRCWUSWFIO4q6chTy9J3WrMvK1bNka9QD/GK9+ne4cSyVgy8iqCUJZT4pVw2P/efojjZy4jJDwat+6HMwNvrBBhVq8+vTFq9Gh06NixxiFtqBL13NlzjAUyLbV8+aQkFpao3WkA7GsFGHu7YKqYPG3AwUaNES3TMb59KojqoCpIhRl4IhdThO+HqCzJP1EVFFWWPVJHFYqz/3LHAQmZliZj4aEHn2GIbWxBXwaTCDVFjglF/LWzUMo0KVyNnZ9oYu3tbOHoaA8XZ0e8Ofp59O7eATbWea/fIlFIy8on8frBqu9x/vIt1gjE0AbOpZ2XzuPs4oymzZrj640bqj39MPHH7PzhB+zYth2xMTGsSUhFibWjK3x7PA9LqZ1RS7Im31EPkXDjT5M8z9TvlZgop3ZJAf27sku5GvgVY9tgcPs87hLqv6qI/BVQVc1khTE3khKoYclW+OikJ0KSjIslFl+XPHYbJ3d4tuzKPPbyEvZ6e/sfqMsxEUrQykFPd8fLQ/vB092VdYOysbaEna0NM/5kSI2V5NQMTFqwDoR7L08h4rLhI0Zg/NtvwcvLq1ogbsgoEj87xdgpBPO/FR+D4I9PQli/WL9GcG/aHjZEY2DkM5EefgeJt/6GMqfsDibF4cd3SMWY1mmVnld+2xVnrP/LgErWoIDATAHgAqsWJRtTpd+HMuYUoC5bIcKTeMgMXZPi6rdibfB7sB328TO56VyGQi/E10EwMpf6LcocitF7JlGNhBsXkBJ8Xe9QUw5oULcO2j/VCIF+tWD9GFtPPwQers7wdHeGm4sjHB10e3Nk3D9evwt/XLhmMq9d3xmpU9TI0aPQrHlzFrqpqu0BiU7g7p27uHD+PH47ehRy+ZP/vlraO8O+bjM4evtB6ujKWgUaI5nRoYyFsqxAAlo738i/1iatUnvyhpGNCcEG0QVrGPjk61AmnCf2KWPuTZW5JksuYeEY4mCOSjNNOIZQMc5BzeFYpx4sbKgJcsUIVbomXP8TaWH/VcyCpaySZ+Cd4OnuUqqBd6bwj5MDAv28ceNOCH48ck4r70x5H4TaA5KBr9+gPka9+iqCgjTJ9sp7fWPmT0pMxIH/s3cdYFJUWfdU5+7pyT05z5CjiIASJJoV15wwYE77m0Bd4+rqGtl1zQmzmDAHDJhQBBREQDKTmRx7Osf6v/uaCT3T4VVPNzMq9/v8dHdeVb33qvrWrXvPPee997Fn925s2bwZu3fvDsvzHsl1Ij2Gghtt/nDWGKWOS4AuMQXKCFM21NRHwiGRNvf1XAM5+XMPNuLyKW2DNicvxcGLjE1SAh/8eXNLcMPJo9meuJvWwdOyHhD/vAT7JJdH/MtE4xstdEzq6ClIKhoFmYogh5GnLCL9cdEnbcPG72CpLY/0FPvlOLncxzuuVirgdLkZi+RAGs0lJSUFer0eJ516Cs47/3z234PFKOXy5rJlePGFF+Fxu9HW3g5HjNIwOpmAuVoNjo7TIU+hgFX0YrXNgVc6zDByCneoUjKgzR0OwsnLFUroDZlQB+GMD7nHBI+1dLAaE5MA7KcRfw2ha84Yv3+0bKVO955vUvHRtsDc+gHOtZZgkr8CmMBzoZ6KTu6G7+Fp3fynE/rwikBdhwLP/pyEL3fFwSP23wnL5Eqok9OQMXEOVPqBh+PZ25oYssbRLr2JJb+gACefegrefvMtNDY0wO3+c3/BBftdyBVypKdn4Oq//51RINALIC5Ox5x+NLhYgl2XHDnxsDsdTjicDqak9N47y5nAdTg1Jp7feKAxaipCy2SYqlHjiqQEJMsEyAIEJ15RxGanE3e2tKPO7UEojSZqetIPOxiyHlzxekMWNPoEyCJAjlFtiSDB1vpKxsnUHytIcuGWOS04KNtOeieDyiQpOon4QpIm68nTCnDn2eOZ4IOr7it4jX8umuB2mwxf74nDG5sSUNUenSIq0QnE5w1DQsHwiJs8YvGEmesq0Pjrd0wbU4rd9+CDOPW0U1FXW4tXX34FVVVV2LxpE+rr6/dbflzKfPfHWCIxIxw9dcfOmDEDWp0O9AIg4ZHMrCz2b8rpSzFCtjQ3NbF9bW5qZs6cHPjOHTuw+ocfUV5ezvLp0UISBZob4bgO06pxiFqNY+K0SOHMlW91OHFPazt2u0K//HUFo0CRfE9T6eIRl2yAMoLUJe2Fsex3phDVX1jw4UVW3DmvGfHqyKUEpdxv3rHXfpyOnyr5EEhMk7WkoPAzAMfwXGDehCwsuXgSRI8N7tqV8JoH92c+z5poDEXtP1VoGeyRBG29UYja5WodkocdxPDsqrgkJn02qIxoWWv2oO7nlZIUml574w0cephPo70TnUEOvmZvDcxmE37b+BvW//ILGhr2XwMcbe0IlRJH67TQ7mtNdIgidjpd+N7mgIkzbRCt+0MOX6FQwJCWhqysTKSlpfsie0Fg0T1Fv73Tc7SXFAETgRvbV6uFOXafg29izpwcfCwdeuf6aT8na9Q4UqfBTJ2WRe9SHl9yiR+ZrfhPmxHWEBq+isRU6IvH9dl2YkYlJ6+JS5CMsqH9s7c1MIQN9YBEyhVCBGU3z2phJGWDyS5cnsUAH1wmis8JQ/IL3hEF4VSeAyaUpOCl66dDdBrhpgjeGhlrIc+19tcYgj6+tD4R7/4ejw67PCqYdl1GPtLGToUqIRkkgDAYzet2w9RSh46qnbBV8X+JXXTJxfjHrbf2WRJzUF4v0+W0WiywOxwsF0xUsx0mE/ZWV7OCX01NLUr37GH/OxqIDp0g4OqkBMzVaZAkl6NztwnRbPeKzLnbRRGVbjfLEf/mGFgUSbi6y/5w4KGeR9rPy5PicaxOh0S5NMfe87z0gr2koRnbQtVOKPUz7vCAKS16EWr0SYg38NFX+69JhNthQ9PGVTDVlEb880vRevDxBdVQRgbyifi6oQ488ZUc1HXwZRdEEY8IxfmFjwgCruGZzej8JCy76XCIjjaWohFt9TyHDcox1KzUaJbjuo8zUNlOH6NSYpQASxIERgKWPHwCkkrGDkrHTtGNx+OCtb0FdrORRTcs4qmvgIOIycTwn6Mkav34k0+C2vz7K4lHzp+JPdO83B72BUDR/+ofV+OXn39GZWVlH8WgnjtPzughQwoma1TcBWu3KGKPy42lRhN2ulyweEV0UGQ8KJ9SvkkRKilBr2Mw1Kz0VEwcNxQrvv0Fe+ua+E4AIE4mYKRSiYfTUqCPAp87XfgLiw23toTmQoorOQjKhOC4boVKg8SMXFaIlYqZp5dl87Z1MO7ZHHFe/qZZzThlzOCJ4o95IY9fu9krLhZKCoruBcRbeJ6ElHg1vr3/KHhtDXDXrfzDKjnVm+T4bKcer21MZGIc/TWCOurS80BcG0r6rBxk5nG7WETjsJh8jr2XiW4X7A2VcDTVcDn54SNGYPGNizHh4AnQanVQqTk/GSXsS+meUpxz1lksPRHIlIKAa5Picbo+jtu59zwPOXRy9psdTuaIGr0eFt2bKV83yI0ceW5WGkoKslkDWW6WAXOmTUBmejJz7CRKTr0DPEZP/1CVEufG6zFHp4EqisgulyjihNoGNJNOZRDTZBRAkx0aespSNkmpUOsTJd9rKr5SXr5110Z4ImiKmpxnw+Mn7r90Y6h7Ro/moU8QzQNfMCoKuJIi+GsFAf/leRgUchk2PHo8vNa9LAcvugYnlCjUWjbWqhl/zKa66OihkuhG6shDoE3PZapKg8m8Xg+s7c1wO+xw2W0QQ0To5OSdxmbYa0tB/x3OhgwpwWmnn46jjj4KarUaGh0hSOIl/wCDXYfSORctvBCtLYHlIClH/O/UZCRFgUSE0sTtxHHjcKDe7cGnVhvL3w8GUyjkGDW0AKOHFSA/J51x/2g1auRl+xw8OXvK+Te1tGPpGyvw4VdrJHHzLEzQY55Oi2HUaRyDBT/SZsRrpuCFfBIK0Q8ND+KjZiiCUepTMyWjlAhV01G5gzVFSUXYZOrdePPsGuhUA//iJxDIkUv9NbFD3TIR4qnC0IKCs70QXue9t1/fdyRSZBTBf/WH46F5dHUyPtmuR7s9Okm11JGTWMOSgir+UYx8eO9FsHEUtVjamuCwEumXW0KhSWRRjr22HC5j+M97QoZMnjIZ119/HWvpZz9ClRqpaWlQqlT9WsZHH36IO269jUECexsl1G5OScSJFL336yp9D6aujnaPhzn6J40mrLM7onYFpUKOm646C4nxOpjM/i32SYl6ZKalgPD/5LBlMgHyfcVarVoFjUYF4umnx6x3Hr+iuh5LnnkH6zbugIezoJytkOPu1GSMVClBMMj+GCW46GvISSk/BloQWSGZMsU7XW5c1BBcs5lgkvEjJjEFKB6jlE1CWjYUammiLV6SHdy5gckASjFDnAfPn1KL7ISB7/fZ3qjC+W/zU4Z7ZcJMoSQ/fxoE2Y+8i3731lko1jeyHDy8gyPKCfdZQ6yP/1udgh8roiCbJwhQ6ZNhGHsY9MSK188fB+++hxtHufTOiN3W0T8OeIr0HQ1VcDbXcGli5ubm4uJLLsbYsWO6mn8oP5+ckoq4fegRcv7hCoyda6Tc6YP33Y8XX3ghIM5+iFKBO/c5p3D70t+/t3u8LF//rc2OFq8XlHboj5HjmzB2KK449wTkZacjKSEOFKVHYlS72F1eg1vuX4qKvXxpBHLms7UaXJOUgDQJ1yUnTkunZIvF64aNnjeOLpg2rxe3thhR6w6cphEUKuiHHgS5hh9GSkR8+lRfFyzvM0X7S89V3bovGFkZr6XqPHjqpHoUDgIVqDWVGlzzMXfRWXRDLBEKCgpGKiBw964/939TMTGrBe7ar7jytbwbGYtxVpeAlXvi8NameOxu7n/6hJoz4nOHIGXYBCgHQcMS7RlFJk67BU6LCQ5LR1RhdB6rieXm3abw4toUdU6ZMgWz58zC6NGjYTB0SwlSNB8fnwAi8iL4IOXsQxVoKS1z46LF+O7bbwM+FuSg7khNQnyUioHhnj1y6S0eD941WbHD5cIGuyMk/C/c+ejvtF+UO59/5FRkGJKQmpyA4vwsRt/AY21GM75fuwn/eWY5LDY+4rDRxOuv0+L0+DhQDYPHnPSyF0VYvZ6IXm5Wr4gnjWb8aA+MXqLIXVcwEspEf+nJsHMTBOiSUqGNT/YVYDmNul73/vARXJa+tahApyAH/+wpdchLHPiGvk93xOGulWlcKxUBC+SyUUJJSUke3J6tALj6X+84exz+NsoEd33gHx/X1WM8iGo6FK1/tVuH78vj4HDzPcyhpqVNzURiyTjE5xTHnhiMY38ol0iRusvpgMtuYWiYWJhIP+z2Zjiaa+Dh+FGo1SqMHj0G48aPw/HHH4f4eP/Hihy8Wq2BTCGHnH7cOh3UlN7p4awJS3/TokUoLe0baSmILyRej6uS9n8xmxx9h8eLtXY7Vlrt+MFuh7t/AT27ZZSWSUnyOfh0QxJLzdB+BErHdEaiTS1GrNu4nYvCgRAyx8bpcJpehyJK83A+KGavB/QPpV8iNTr2PbMNy8yBKYmJl0aTUwy1wcdSK9VU2jjoElOh0vHRRtDvpHXXr2jZ+jPH9weQFufBK2fUghz9QNuzPyfi+Z/5mCRFoMIDcapQWFiYKfdiFQRwyQZddGQJrprhgLuBO6uzX/el2SLDfd8Z8FuthiFkIn80901bEJjAtWHMYT4Oa87IJ1aLpgfU0t4Eu7lDYn69PzMSWXHK1dYI297dXCdSKpUgSGVhYSGuuvpKZGb2/bSkz2ufI9vX+EP/hoDvvvsOD9z/QEBKW4JG3piciOPDMFByTTLCQfRMmT1e1HvcuLvFiO2u6KYqfY9YaDfMi5dPk8lwtyEZY1SqriYwnmVbvB4YPe6QdAM856ExP9gceNxoYV8CfUwQoE7PhzYMkibUtShlE5ecBm08NRSGf31Zm/aiYf03IO3icJYV78Z75+4dFORjd35lwIqdfC8yAGsFh2K+MCRzSJqodn8EwNeeGMaOOyQTdx/n9hGNDRKjZiXCtC9ZlYJ11dqodKLS0uQaHYM+JhSMlJTri/a2+PLrVDhtgd1Eqjv9fm1FPEWvywnb3l1caZvOi5ATz87JxoULL8TQYUNY1E7/9IzaO8cSt83bb7+Dl196OeAck2QyLElLwXh1+CIu7RKV/Xr6lW7f2e0IeruE8C6ie2oeUWSFWCrIlrrcEaUxIr4ZQQ6k9EuiTMDChHicqtdBzuH0ep7KAxGtbjccHH0RPHPf7HDh0XYzmoN8ZaoNOdDmhRd3D3ctbWIK4pIMYcVyXGYj6jd8DVuzT94xlJE49zMnD45+nyvez8CGGk72WRFfOLzus4X8/PxkhSB/VYB4XLjF0t8PKkrA0nNl8LT+xjM8pmPIsa+p1GL9Xg17s5md/ce004RJGFibloO0sdOgoqhggIzl121muAjZYjbGLA0jdXlM4NrYDFd7kw9tIyE9RJDKgw46CJMnT0JCQgKKiouQnZ3dlZO32+x4+plnsOKzFQGnZZDLsDTDgBxFYNQFOVxyTPRBTekB+qd3GxP1Z/YUW5az7wafURGUniL63zSOnCWPg6RmqTdMFqyy2QccYpmnkLMaxYQI+xNo/1o9btBeRsMq3R7m4OkFGMiINpjy8DzRd7j5EKKNCrDEZROsAEuMqoyYjIN98sRRJtw6JzgKKNx8ovV3Sjuf9UY2KtrCBzZ0TRFYJlMqrhCGG4bHu3WOxyHgPJ7J5KWq8M4lcsjM23mGx2QMAf5/rNAyYrBV5ToQZ3u0TKZUIXXUFMTnlkAhobIfrevTeQjaaDO1w223MQfP+zkezTnwnIvy8872JriZo6cfAb9DoB8fca0XFRUhNzeH/XdySjLy8/Px+YovsHHjxoBTyJTL8W52ekBon93rZTljclD8Mwm+UnL8nQ6enjCtTAZVCOoJuuYupwvvma1YYbH2uxDLcw8COkyib0iMZ8VUhcTonc5n83qYg4/GHtL5WjxePGo0Y5MjcCpLmZQGXf5IRh0cDaOiK0Xz2iBUIVIcPPHRkKTfQFurVYbz3s7m1n4WRDxi97pvoRy8Ri6KdwPCYp5FpMXL8fL5XhgwMERjFKU/8mMyviuNg8kpi5RLKOBSlfpkZE89mpGDxZLyNdQ+m5vrYbeaINIPLEoRFM997c8YmqvbaoK1chtEV2RcL+TwGf+7Ws04akg3NJDlK+R4L9ufgZDGuUQvWmgeMdyzzshfBQEJckVQ50nIkV8dDkaby8uP3p/9D3TsBLUKD6WlgFJaUo0QM+Tgo2WEj6cIPhiSRpmQCm3BCMgUfNEpz7yIA4pERBIzc/vQhlDuvYEieOrcDmOvnlGL4WmRPdPhzi3l77ublfj7h5lotXG+BEXclFdc+B/6EpUXFxb+nyDiPzwXTNKKWDK/A2PT+oe15rlWzzEuj4CKNgWu+TgDzRa+pgjea1BKJj7fV0jd392ojKTL7YK1oxX2jrY/jFMPtLeEn3e1NcFeVwav2ykpdcN7ryj3Tima3tbmIV6Z2CCJgs2NIvwUgn0KgUm5CDNPufkVFhtz9FIx9PRTJopelQBkE9+8XECNywPClpu8lIoKHmPTD/ulDANGc9Qqeq8v2g6ezr+0w4JPLfaARVtFQgqL4OnrOdpG0TzjslFpulI2JPFHKRp7a+jegTilF99cWhWNzFG/l0UY+Nu/TEcHH7WKF6KwsLSq/BWWeiwpLDwTIl4EELY9TK/yMjL8eUOk8Yj3Z4V2l4Avdsfh0dUpMPEtkPtySn0SkoeOR2LBCO5uOu6ThxhIaRjKrROFAMEdQ9EIRON6+/Mc5NydLfVwm1pZMTaadqhGjcfTU/1OSVE7RZyE2d7fRj8gvUzOIvpAxVlywbVuDz6yWFHpcrMUTrU7dPqDoKCjVSqMUSlxVrweaaRuJQisU7TR7WQvsm9tDnxmsaM2BM/Lgvg4XJssXWCGUjRtUULQdN6PDyw2LDPZ2Bp6G2m0Ug5eFgEHPM/97krZxCezL3OiESYHT8XWUDar2IIHjw3f0c0zh/6Oee93PWvWtLnCf5GJQJvMK1ywp7r8I/ZMDiksPEoU8RKAsG1SGoWIKw9rxZnj909eihrgSFnpiTXJaIpy5E5NS4klY6FLzYpKgYfnJhIihhw6NSeRg48Vfp1nLrEdI7Iu2M5ibLQcPXGU/9uQ4jd1VhQkauKoZY2l7Qzl6ZPlypBEXeTWOjnqq1xukIv3iMD9bf5OhmCg58TrmcAGyeH1TKHTi6yevoz2VTu2OVwMfljnCYzRnqRW46kM/5chz8ochBWnImtcwVxmAAAgAElEQVQU9/NrqwPPd1hgGwAHT2umlI0qTg99SgZsDCb5NTzO0DQUt85pxomDhA/+6bVJeOXXRF7p0DKvV7igvLr8B+bgi/OKJwkyLzn4UeEeALlMxNkHdeDvU6MbmQW7bo1RjouWZ/PnnsItgG62TM4IwhKLx0Ku6n+HK8clWYRuaW1i3aYUvf9R8us8aws9hlJQbnhsZlirdkB08nVdBjtnIAdPbfOtHlcU3ZG0VdOPKEWugFaC1Bw5/GaPB8fU+KcJUuUyPJWeimJl3+5MqjM09CKC2+pw4Y7WDoYa6m3EDJkjl4N2pietAM2Xkpz0Ypql1eC0+DgYehQ46UuIInipKaVQu7bW7sRj7WZYBsjBd85NrlTB09GK9p2kJx08xaVVevHaGbXIS4peLULaU+U/WpIWqyiuh+hdWFpd/bsvgs/LKxEF+YsQMINnEkcMteDOuc1QKaJVZw98Vdr/O74y4Itd3OD+sNMnOt/UUZNZ81Ksk2vk1Mm5EcTRamz5E0frYbfdF3USbNHUypqlqBhLKBypFsjBU1MOOaSBtCSZAnqJKBDSLSU63Z6WLpdjWWZaQJbMQLlxKug+YTRjdRAqgFB7Qg6euGkoxKEXys0pCShQKlnBmiL4aDr4HU43/t3WgY4AdMyxTtH03IMu/YOGypCPy8QcO+4/phGJmv2f9us9sXa7DHevNLDufB4TRXzpEcQLKisr65iDH5adbfAqlS+KEI7nOcHkXBvumNeMdL30HyjP+TvHlLYocfab2RCjIKFHuTdSWjKMPhTqROmfrVLmTaRflH5x2qz7CqcD/5BImX+sx4qE729rgNvcBndHK0MM8dpgdPD0I0om2gXOCJ5SLTucLvxkd+BZo3+qM00ux6uZBr+IunNvWjwuRvLV0+h/fW2145kOS0jaBJpjgVKBYcQHJFAELyBLIUeJUol0uQzZCgX0MoGlmSiCJwcfTUTSXrcHt7V0MFrm3rZfHbzHzb4kqYcjlF00qR0LDzFCJY9tEMvz3Fe1K3DXSgO21IctkXae7k2PgIUVFRV25uBnzZql2Fte8awIXBC2RxrAcIMTd8xrwlBDdFu0ey/2iTVJeHlD/xuNSJAjsWg0K6ZSNT1WRhG7zdjmK546rIwI7IAF3wHGc2NsgdvSDldrA5ejH4wOnthdkvehaULdb5IPJK3SXS43tjmdrOja291Riua5dAPylf5IMYqmm92ugHlx1ilqNAcU1qAfOJGMHRenY7q1xPtO8+3Z6NV7zvRF1B5FHDydn7Dwi1uMaA1QFFbEJ0OXPwJEHRxro7qQZc9v8IQQmyeh7dvmNGN2iT+lc6znFuz8W+rVLIKvbOchVROIHunRssryG+h8XYX/koKC2wDhNoB9sYW0tDg3i+Cn5PUvnxruOhe8nYVtjWGnE/I05NAzJ81jnanEWRELI8feKYNHkMe/Tn49OrtJjt7rdMDeUMEcfSgjJknCd/e0gUzRhEPRbHc48abZiq0OJyswUgTbyZseaJ2EW38oLblPFyo5XGriCmRlLjfDmVe4+/49RS7DY2kpGKpSdenVhtpfahGjgrU9yogk6vS9rtnIHH1viyVMsve1PHYbTDvWhcy/j0x3sBR0cWpsA1jeX893ZTrm4Dk79a0QhZtLq8of83fweYUXQIZHeVgl1XIRt81txlHDYgeVNDsEnPVGDhrMkTllKqQSzUDu4X+LSdTO8useDyuaUvH0zwRz5H3wYjHO63LAVrMHbmNzwJpFIBx8LHDbvGsjLHyagoQ4BLR5PKCcOHWxvm+xos3jo0yQYoSiWZSciPk9yNSoQ5dqDMFQLeX7HHx5AAefq5Dj/ax0Li4lH4maB0Yvf8qMd20U9FzW1I7GAA6eqIIpghck0P7yXrf3OGdrPayVwbvw6YV97AgzbpndAuUgSM/QPflomx73fsNNp9zmFYXzy6vKP/Z38Ez4Q/gAELjOdOVhbVgwwQhFeFhmRPeC5KkWvMXfmtvzIpSSScgfhpQRk6KOkiFHTrl1l83M6AT+vDDHiG5bVA6inDz9CAli2dsCOfiBRNGQgzcolDB7vXjbbMEOhwsNjGnSA0rJSM3gUnPTmfF6XJucwD6vKR9OClOhMP6U8qEInvLcPPvVOYZmR1BN4pyh/3Z4RVhEqa8k/lt+aWNbYAefnO6jKoig65b/6r6R1uqdcDbXBj2M0DPXz2gdNPBIojp/Zl0S04/mtHqPC7Mrait2+Dn4goKCLAUE0rPK4TnR8SNNWHR4K3RKqY8wz9mBSB08UfqmjZuOuMyCqHbGMfy6ifLrNsa/fiC/zncfIxpFAhN7dwX8IRYrFXg7K93vtBThUlFQujuNaHZ+B5ET1goyhqAhyjJy6k37HLzR40vHlLvdWGm1BUxPBJoBQRfvTE1ikncUTYdDs6yzO5mDDwRB7P1CJIQMNUpRosTn4EUmsRc7t969wmAOXpWaxSL4/WGmHb8wyG4wI973Z06uQ/4ggUdSYycVWIlzi9NKPQLGUIHVz8ETeV5xfuEaQcBknhONz7LjoWMbkaSNDULE6RZw6us5qDfxp2hUianIOexYKHXxUYNA0qelraOVNScdyK/zPBnRGWOvr4S9vqKPahghPz7uxUVDjU6Uwogm6kPKKsjJE+QwVaEEufme1tngRM7eKnrxodmGd8xmOELERaSTekNSPEO3hHtpkfN/y2zDu2ZbwK+FYSoFlmX6XogdpNXrpbRRbIKyUHtGXzjXNhv7FoIJppmWB21OiZQtj2gsE9/+fXXI/Pth+Tb894SGkEXoiC4e4UEtVjkufz8TlW08BVZGj/1pWWVlFxrS72ksyS94DoJwMc9cEjUevHpGHTLjo5+v67z+he9k4fcGviIrQSAzJx0hWYw30FrJqROUz27pgJmKfjEksOLZ67/iGCeJi1Tv7IOsIQf/YXaGX8EwFo05ke55okyBOBLODiHYQZ2iX1hteNVkQZOHVJP8HW6iTIb/S9Jjojr8j5pSQXe1mIJ2s3a+EOlF0OR2hX1hRLrucMdRcfmGQEVWmQzarGKo0/PCnaLff6eUn6VsS8jz3H1EE44eHrvaotRFVLcrcOprORA5dbhEEXeVVVX8s/M6fg6+OK9woSDDC7yTePqkOhycEz3V+d7XldK9pdDqkTtjPlTxfJJWwdZIEEcHaZGajD7FpAM2IDtAn9HmPZsg7mvN75xEoEYgcl5ENhaI52QgJk9YcsLEq4nRMARdL31xfGm14Z5Wo9/c6Ud5eWIcCBIaSnyECrpPdxAHffDfYCaxb2alw7PvKyc239vhd7nC5cadraY+7JqkyarNHwFVEp/WaPgrBR9hryv3fRUGsQS1Fx+ctxd69UDtUt+Jfb4zDnd8xb83XlE4sryq/KvADj43d6wgV2zm3cTLp7Thwkl84rW85+w57t3f4/HAd/xNSSnDJ8IwhkuYKuh0iK6XmB0P2MDuAEEnTdt/hrcXtQG11L+QYUC2ops2lfLIlIOPlgJRtFZOjl65j2mSZqvYV0SknLdPiAQsgr+0sbVPFD8/ToMF8bqg/DbVbg/TOv3O5giZcOl8IWplQAuL4AfGNjqcWNJu7rNOQs7ElYyHgtKqMTbz7o1wm0kRLbAdNcyMfx3Zt7Af42mFPP3936bgva38+sMu0ZtSVVXVxSPTO0BQFBcUNgiAP9A4yBQOzbfi0fmNMVv/ziYVzn0rm/v8FA2UHH8hU2SK1Cgt09GwN9LDDxwXxR0wl21hcMmeRjjx/6SlYFwPGtxYYbejuBQWiXf+2HxSgj4j2OBljW19nDRJ7h2l1eBYvcaP053w5JRzJ24XgmGGc9idDj5BJjAem4HIv9M6v7E68FwAsjGZUg39yMkx61HpvIeUfzfv/IX1WwSz+45pxNxB0tzUOcczX89GGaeKE4BtpZUVo3uur88XYElB4WcAjuF5uHVKL1ZeUhUzqCSlvo9cmgejnZPkHkDqyEmMayZS87icaN1bdgDXHukGRvE4e0M17LV7/M6ol8lwR0oS5ui6ux7JWRLZWO82/ihOJWanIgdP6JJQRk9/5w9VatKwJw6+3eNicM79bXR/Xumw4iOLrQ9aR65PQvzQCTGfErGZWiq2QuxF1tZ5YULPvHx6bczpV6Qs1GiT4YilVJsIlajrcUYRL5dWVRAbQZcFcPAFtwPC3bwTWXpKHcZmxS4Pf8sXaVi5O453OlDGJSJv1skguGQkRvBHY30VXA5bJIcfOCaKO+CmIveuDX5nJHKsyxPjcW6CPwEdoWioo/WPZpRq+XtT8LRBf9eTq1Cw/SIt2xKlAjZvX3qE/l4j3PEWr4jHjGb21dHbNJmF0GQVhTtFv//uaKxmQjTB+lbmlFhw25yWQZV//7ZUh5tW+EOCQ22EF+Il5ZWVz4d08MX5+dMFQfYD745ecWgbI+WJlX26PQ53fc1fZKD0jGHcNCQV+X2pcE+PHgBCzhAs8oAN7A5QU1nHlp8gerpbxikiOVGvwz9SktDzuy5UK//AriL01bc7XfhHS0dMp6gUAINMjuEqJbQCkCyTYZxaiaEqhd8exmoSoagU9EMnQKHvP99UqLkzqDM1OLXUBRxGdfBrprXijHEdkMeocTOSvX1oVQre2cyXfxcBOzzuyWV79/rBhPpE8ENycnJFhZIansKKf9CkD8624+mT6yOZP9cxe40KnPdWNi8PAzunPrsYGRNnR0xRQM7d1Bz4YeCa9IFBUdsBgrX17midqlGzRqDUHvS8Jo8HHd7oCUVHbQFhTrQ/HHzviI7YJLWE9BEExAk+VslDNSpM0ahCon4i2RNKz5DYx9NGM3qnl6jAmjB6asw7WKlQTwySwURnDHEe3D63GYSBH0x2xuvZKOfNv4viVq9cNre8vNyPzKmPg8/NzU1Ry+RvQRDm8Sw2Pc6DV86oRYouNp/HpEF4+xdpWFOl5ZkOG0OQycxD5kAXIbbWaTOjo7H2AEySe8djN9DRXMuir55G3az/TE3CKFW3hmcsGBBjtyrqIvUJfixpM2OnS2pm3TczmUyGhIQEKPeJg3joJdfRAbc7svORM1Dvc/4kbk6ygWPVCvYi7SwS+5q6wBq6SCuWpARDBb1UFP5fuxkbHH2Ju1Sp2dDlD4/lNrNzuy1GRn3hDZJ2nZBtxx1zm5GTGNm+xWIBZa1KXPlBJlqt3PXHNwWl4rI9e/b4fQ72cfCFhYUauSjeDQiLeSZO1Jr/nNeEGUWxefuR2PYrvybg2Z+TJfUbpYw4hKk2EemYVHM77ehoqoXbEVu2TKnz+iuO99itMJH6To/8OkWet6Yk4cg4bVf5iQjHKA+//3s0pd8VykmvdzjxqskakOI33BlVKhWGDR+GkuJiHHHkEcjOyYFMENDe3o4VKz7Htq3bsHPnTjidfXPe4c4d6O/kwDs55An6mSmXIZk45OUyJkxChe+eL4CeiKF6txfLzNa+aB+ZDPricSCq4FgbaQ9Yq3b6PUOd1yTa5BNHmbB4ZkvMwCKRrO/THXF46PtUWDk0WOn8ooibk6sq/rMB8HuTBirPCiX5RedCEJ/hEeEmxrULJhpxyeTYFYp+qtTi7q8NUt5mUCWkIHfGiREVW0mww9RYyxqeDtjA7gChHsylm+Gx+uepz0/Q49LEeKZIRObjoxk4nDfvLllFEa93WPGj3QFjAHWjcOcZO24s5s2bi/HjxiMjM4NF8T2N8s319fVYu3Ytlr3+BovoY219nLvQjfugJQaKiynvrisa0y9IM8+6fApO5XA0VAUcTkjAGw5vxQkjg/PT8FwnmmMIPbjkhxQs35IAzkekQ4S4sKyy8r3e8wiIvynKy5shk8leBAQugghWgZ7bAr0qNhAsysMTH/JvdRIEASi3OOkIxOcNjWjvzS31sBoPNDxFtHlRPIganuy1ZXA0+fcmEInWkrSULow40RWQIEZsnsDoLIggive2mbCbRLeDfGpoNBoUFxezCJxSLmSUgpk5ayaOP+445OTmQK/X93HsvWdIaZqGhgbcf/8D2LVzV3QWEK2zCAK0OUOhNmRHjTMq2NQoQCB4ZND8u86D506pG1TpmWaLnAW0a7nT0uLvote7sKy6ej2fgy8qKpB5RRLhnsVzT4kgn3JYJTEiyI/gjcamrU3LRd6M+RE9RHZTO0wt9QfogHkegBiPYRzeVTv8OIEobn09Mw1DVb6mNuoMJa6VgWrkCbUF5KapVf+BNlNAutzOY8m5L1p8A6ZPn87SK/QP8cyr1equPLvUrbbZbHjrrbfx0Ycfwmq1SkpzSr0W93hy8HnDoU7N4j4k0oGUd6cUXzBZyCl5Njw6vyHW8sySpv97vRp3fW3gJxgT8LHK5Vq4o6amhcvBDxkyRO11uZ4QICykWk642SVovLh9ThNmFscmD0/XX1WuxV0r00D0mdwmAPmzT4MmmR9L2nluyr+311cdKLRyb3bsBvqKZDvgdfhLqC1M0OOqJB+MjNr/B7JTM9jq6cVD+O83TTbsDSHhSFH52WefjZNPOYlLnEPKblM0/+OPq7Fy5UpsWL8B3gFoduo9X8q9xxWOjrnIh7O1AdbKbUG366ZZzThlzOBKz3y+Kw73fZsKu5vD14mCWxS8j5ZVVi7q0SDdtd6gLVJDCgqu8kJ4UAC4OoYundyG8yd2xEwFhdA0F72TxalL2H0/EwpGIPOQuVJ+D2ws5e6oo9XTi+xK8okOHNDvHfC6nbBV7oCrwz9AyZQTs2Q6Q3JQxqPe7WT85oPJ3jZb8ZXVwTjigxlF6CedfBLOOutMUBQfC6PcfGtrK3766Sf8+MNqbN68OSJHr1RrkZKbD31qOhRKFawd7TA21MHc0iBNI4Gi+OySmLNIUnrG1RaYToXqhx+etxcEkxwsRgIfT61NwrLfuAU+OkQBl5dVVLwRaA1BHXxxXt4kQSb/FABXl9HUAhvuPrIJxMgWK4tEhFuh0yNv5sk+jniJZmzYyyT5DtjA7wDJ+LE8fC8H/t+0FMzQ+pxio9s5aBgl6UXzP6MFa+0OOEO8c6hIOnPmTFx19ZWIj5f+jEq9MxS9m0wmtDS34LdNm/D999+jorwCdntwxBg587FHnABDwRCotDooSN91n0whdX57XC7W+U0MrFu/+QzVW/y7j4PNkRBuusJRIMm+WBgFacbNPwJBVKom5tjw1EmhNYBjMa9Q52yzyXHdJ+nYxkmTDqDODXFaZWVluSQHD0BeUlC4FQAXUJXgkoSHz0mIHZa0olWJs9/MhtvLyc1A+SW5AoaxU5FUMlbyvaIiKxVbD9jA74CrvYnl4XvnUmfuE+Gmj1nKwQ80oyT5chKWXtpBzt3JBdscPmI4rrvuWhQVFkquF8nlcmh1OiQlpzDoSmtLCxx2O4umpYi/P/P0s/jwgw/g6ZW+OW7Rv5CcnQ9Zj6aykE+DKMLS3opNK97D3q0bYTeHDpAEpYqlahRxiZLXHu6pdBlbYCkLTo5786wWnDxmcCHl9jQrmVSpV+TzcaIori6rqpwe9CUaapNKCgoeBoQbwm1k599vn9eME0bENp919YcZ+Lmav+mJ5qbPHYLMg2dLlvAjPDylaQ7YwO8AiXGbd/3ahz44RS7DU+mpKFEq0eZ2x1RTlGcXqDP1HbMNGx0uLudO56RC6pw5c3DlVVcwhAyvabRapBgM0Gr9s6hUnDV1GGG32mC389XFljz8H3z55Zd+l1ao1Dj7oaW80/EbR9FzU8Ue/P71J6jbsQWeICRfdJBcq4c2dygUekpL8Dk2nkkR9t3ZElh/lTjfiVwsbxA1N9GaXlqfiCfX8vcGiAKuL6uo+G9EDn5YXt4Mj0y+imczaQy1+v5vfmw/eb4p1eFmCQQ8NC8SAaE8vCYlg3cpvnGiiOaq3QcKrdJ2LWajrRXbQE0rPY0aby5J0GNhYjyMHjdMA0g49oXVjk8sdhCBmFSj5iUqsp519plch2q1WhgyMqBSBVc8czmdsFotsJhMIDRNMKMi7JKHl+Cbb771G6JLSsapdz3GNZ9ggxwWM3as+hI7V3/NUjjBTK5LgK5oFOQqacFbsPOJbjdMuzfAa/cvzHeOn5Jvw72UUtbELqUcycad82Y2djd3d2iHO4fT6xlSXV1dGpGDnwgo2/MLyiEIXELcCpkXH55XgzS99Ac83EI6/95kkeOqDzJRwalRyI4TBKQfdLiPgCyEwk6gObTXV8N5oOGJ9/bEdFwwybVpGjXuSE2CCiKMA+Dg7aKIN01WfGl1gBqZIjUqtt5xx+04ZNIhIU+hUCqRlp4BXRwfy6rH7WYOvqkxcCGU8u8PP7QEP/zgzzGYkJaJv932cKTL6TqOKLjLN6zBL++/xkTrgzv5eMQPD7123sm4TG2wlm/1I6rreeyVh7VhwQTjoOpe3dOixII3c3ibm0h/dUNZZeWkQOiZzrWG/R4qyc9/CoLsct6NvXl2C04eHbu8lp2qzGuS8MYm7iozm3p87hBkRJCmsba3+HRZD9iA7wCxS7KiWS8nTqIWRD42VqlAqzd2NaDeG0CuvM7twWsmK9aEybfLiDJDEMJ+DaZnpGPJkoeRnh4Y2kvpnMSkZKQaDH7BisViwbvLl+PhBx5gzpxeFucvXIhLL78ciYm+3worsHYY0dba6pejJ3w8RfAEpexpVFQ99vouec9+3X+qB5T+vAq/vBfayaszC6HNKux3qobJ81H3qtg3Qk/SeHDHvGZML+RLX/Vr4RIOfnptEl5YL4VZU7y9tLLynlCXCO/gCwrmiBC+ZPxCHEaV6cdObIjpm/H7Mh3+9Y0BHXYOnOi+OcvVWuTNPEmyZitptLbVBtdx5NiSA0OiuAPBYG8XJ+hxdkIcOvaTji4JZf/mcOIVkzVk8xItXZeYjNyxB0Ol0WHr15+ELH4qFAocc8zRWHjhQsQFiNCVKhWysnNA/+40cuiPP/oonn36aTgc/toMxx5/PB546KEuJ0/HuFwumIxG2KxWlqNva2tjEfz69f6NkJlDR+HIq2+J2t0jJ797zbfY+PHbcFgD1+pkKg3iR0wCqbNFalSIJ3Kx3iyknecbl2XHnXObkZe0/4KBcGuxugRcvDwLe1q40zNWAeL0PZWVG/vl4AsKCrIUwEpAGBVukvR3YpV8bH4DhhqiQ3QU6Jo1HT7qgo210jDDhrHTkDLsIJ5ldI2h4lBbTXnYyEvSSQ8MjngHCE1jKf+9z/EjVUosMSTDGQQSF/EFex1IUXup042PrXb8bHfCFiYlk1Y4BGOP/BsyhoyAXK7AuuUvYfea70JOJykpCVddfRWmT5/Wh5KAiqrJKf46xZs3bcL1116LXTv9WTfpIvEJCXhoyRIce9xxfa5JOXqL2YyKinLcd+992LDBH96YP34SZl14TbS2jp3H7XRi8xfvY9u3KwL+plRpudDlDJGcSu05Sbe1w9cYZ7f0mTuRix0/woQbZ7VCJY88nRbVTQHwy14Nbvk8HUbuoFX8Se5ynbirtjakiGzYCD4tLU2fEBe3BCIu5VmUWi7ikintOO/g2ImAEAHPY6uT8dbmBEmQSXViKgrm8RWxOtdKxGOk0eq09X1YePbjwJjo7gBxezM0jcs/UqXPS9JqLSDawxjaqx0WfGtzot0bWg9VkMkw4fjTMWTyDKj1CV3dqdb2VvzwypNoKN0RcpajRo3CP++60y/ypgOosJqY6P8Z//mKFbjh2msZvr23EY/NZVdcgRtvvjng9Siqrigvx8033si6XHvasGlzcejp1MweXTO3NGH1smfQsMd/D4gfPn7Uof3WZ3USj1S1P7VF5wqIXOy6Ga04cVRs0X5Sd+yJNcl4fSO/PxNF731emezuioqKkJS3XL+Govz8BTJBRngpru+Hw4ssuGNeS0ybnqS/8Xxbnj/vDGgkNFZQ3tfc2gjbAeIxqc9sTMazz++qnXC19+1OPFqnxRWJOm54Is8EKYNr8noZ7PHVDitawrT5k2NPzsrDwSeehaxhowPSDtRs34Sf3ngeNmNo1bDzLzifdbdS3r3T9PHxyMjyF6L/9ptvmINvbu4bzKk1GtywaBEuv/LKoMutrKjAjYsWY0OvFM2oWcfgkJPO4dkmSWPspg6sXvYsarb91n0cdbbmj4A6hUtnKOj1iJyOmuKczYHhkdS1+vTf6pCfPHjSMw1mOctI/LKXG0HUJnixcE91xYfhNp7LwRfn5R0i+Nglx4Q7If29INnFyMfGZsZOq9XmEnDZe5nY0RQcJhZorslDD0LauGk8y+ga41N4ooanwfNJJ2kBf6bBogh7017Ya0v7dLUmymRYlpkKV4DCmtQtcIoiE+Kocrmx0upApdsTlqlSrYtD4cRpGD3nWOiTU4OmGajzk9IUW7/9DN4Q4hw6nQ4PL3kIJSXdpK6Uo88tKAQ1OHUaOehF11+PdWvX9llmekYGnlu6FBMOPjjoFuzZvZs5eEr19LSDjjkF444+SerWhRxP+PjSX37A+g+WwWnt/ipWJqRCWzCy3/TBXpcT5t0b+/AWdU5qcp6NpZAlgumiuge9T/ZztQZ3rTSgycJdd1jrEbCwoqIi9Gcgb6naYDDEJ+r0SyHgVJ5jiOOBNA5PGWOKqcah1KYA2ljiiSdRbrmS/8VABSFTU400ro2YPhJ/7ZMTBM5GCj290jS0K4+kJWOoUg5XhHBFcuw/2pzY7HRhm9PFBDl4kNIZQ0Zi+PS5yB83iavr02psw6qXH0djad+8ec+7O/GQiQw62clRQ9QGaRmZoEi+0wgdQ1H8TYsWobGx+8uGkDR33XMPzjjzTL8XQu+nZ/u2bczB07972uRTzsOIw4+M6sNGna0rn34IrdXdnfWCQgVd3jAok4iygCvmDDonl6kVlj3UvRo4GLt1djNOHD140jMkaPTqxgQ8s45b0IgIU5d6ZLgmXHqGNol7N4sLCq6Ej3yMC3w7s9jKoniiMIiVtVhlOOaFfEmnlynVjCc+LquA+zhiluxoqoHbGbsvEt7kF1wAACAASURBVO7JHBjIHDuhJAJxfB8Xp8WipHjJeHiiFyCFpZ1OF9q9IgjbzvO9RimZoonTcPDxp0GbmCyJCdLYUIOP7r8FlFYIZhTFX3XVlZh3RLeCZnxCItIyMvyuRdzxNXv3Yv0vv+Cn1asxcvRoRjtcMmQIKOoPZb///jtuWrQYO3f4B4TTz7sSxROnRvWJ2/Llh/jts+V+SCJlUhp0+SP6hZzpnGSo7lWFTMTKi6ugU/Hc2aguO+jJ2u0yLP4sHZv4ASMmiN6rS6uqXuGZIbeDz8/PH6UUZCsBcJE4a5XETVOHgqS+Wow8E+Mdc93H6VhdyUV4yU7JcqTDJsAwagp3pd7rcTMJP2cQaBfvXA+Mi94O2EgEpJFwzv4/VoNchifSUhAvQ1DiMQo5LF4vHCJQ5nLjDZMVVW4PpLbnafTxDCEzfMY8MJx7BLZl5cf47dN3QuoOTJgwAYsW3QBDmo+US63WID0zEyo1/1doqKnRS4EcfGVlpd+wI668GVnDubKyXCs3tTTig3sW+73QKHqPKxoNUnjqr1G9rGPzaohBeiGmFVjx3xMCM0v299qRHr+1QYULl2dB5OSeIWkBj4DDKioquEiyuB08+caSgoJPAOFY3sWcP9GIqw4LXUjiPVewcV/u1uG2L6Txvcdl5CPjkLn8cn6iiI7mOpAIyAEbHDvgNhthKd8CUuzpaSQIfYxOhzPjtdDte7rpFUCF0r1uDyMCM3q9WGd3YY/LHRbmGGi1RLxlKByKiSecAUPhEElRe+/z2c0mlqqp30W8foGNovjLLr8URxxxJORyGYNOGtLSEb+vgam/dySYgyeisdS8ov6enh3vstsZcqZq0y9+51On5TIemmiYs60R1org+0hst0cPG1xoOFJu+mQ7P/8QRPG50qpKLkQj7akUB4+ivLz5Mpk8bOW282alxbnx1tm1IGKfWFm9SYFL3s1Eg5m7QAFlXCIyD5kDLUmGcRp1tFraGiUx9HGe+sCwCHaAojVL6Ra4TX1lFTWCgNEqJSiapwec8vHk1JmD93qZXF6kH+kyhQJFBx+GsUfMB7Xy97daR+uo3rwB6959GTZj8ACiN2yScvCUi++tyRrBVrKUDuXg6+vq/A4/+Y7/Qp/KxRYe9rJl63/Cunde9KMqkGnioB8yHpQ2jYaZ6XnoCAwLN8S58fwp9ciOIdut1DU0muU4c1kOzE7+hk0B4sQ9lZW/8l5LkoNnSk9O1w5BEKiXmMv+MbsFJ8WQusDqFPDgqlR8tkPCW1AQkDFhFhILR3L/QEmAu6OxNmS+lGtDDgyK2g4E46bpvEDnwx2pMw800XFHnYRRs49hvOjRMmr+Wfv2CyhfvzpoAEGO/Jpr/w9HH300uyxBJ3PzC6KSpln1/fcsRdPU1NS1JEIEnXDTfdAlpfR7mZb2Fqx5Yylqd27xS6npisdCJQGyHGoiHocNFkLPBCi803FzSyy4NYa60ZFs0gvrE/G0BOZIQFxbWllJEEDuiFmSg6dFlBQU3A4Id/MuaFiaEy+eVgelLJo/s+6rUwr2kx163P9dKqgizWuk9EQEZCRcwGNEmESUBZSP/6uZ22pi2GKvzQxlaiZ02SVUzBjwbaAmHfOe3+Axxz51ptToMHH+mRg6dXa/UjLBNq25shTfLX0EhK4JZmnpaVi69HnGM0OWmJQEQ7pEhtQAJ//+u+9YBN/SA0dPIh/HXHsHtAn9y40TLHL32u/wy7uv+lEGK5PSocsfHpXCKi3J0VIH+97dAQMw6l69fnoLThlngpzfRcT0+abAlLQtajv4/A/jtvWKF5dVV74gZWKSl1tYWDhCJuInAeAiLSY6znuObMKh+bEj9tneqGKNAqWtXH1YbH8oTUNwSYWGMxIjybOasr8ckoZwxZaK3+Ex+zqTqdtQXzQG8igUxaQ8qMHGujpaWd41mKhyNK5BXDLUlVo0cSoXBDKia4oifvv8PWz+/P2Qh1940YU444zT2RiK6vMKi8KiZMLN5/PPVuDGRYuYKHenkcjHEVfeBE28NFK/3tcytzbj2+f/i7aa7gIupWSoqUmZ0P+vA7oea24i7vdeVNKdc8mKdzNysYk5IZs+w21TVP/+xa44FpRa+NMzVTaXc3ptbW21lIlIdvDFxcWJ8HieFyAQJj6syQURJ40x4ZppbVArYhPFU9MTbdbnu/T8qvH0iTt9PnTpuWHX0Dmgo7EG9n2OjvugP/hAR3MtbNXdWG2SWUsoHg2lIRduR+xe2rzb5utcLIWzuYb3EEnjKHInPHjhhMmQK/kDCEkX2TeYuNO/fOLfaKupCnp4Tm4O7r33HmRl+cBsSSkpSDX0L0/+2aefshRNT874zKEjMXPhNVDHSUh9Bpj1rx+/id9XkvLnvt++IECVms30WAVelagwm+mxmRlslv4dyKi5icjFYkljLuV+mx0yPPh9Cr7creemBoaIp80O26KGhgZJVWLJDp4Ch+K8wvMFGZ4ixBbPwoanORkmPpYEZFSJfnhVCqwu/tRB0pBxSB8/g2cJbAzRFZj+YhJ+HTt+YamZnpZQOBIpoyaDcNyhMNzcG9vPgR6bBdaq7fDEgLd/9sXXI2fU+NhF7r3WXrtjC1Y+9UDQHSFhkPPOPxennXYaG0Pc8Dm5eezfkdp7777LHHxPib+8MQdj2oLL+1VraN1biRWP3AVKb3YaSfTph06AXM355cyxKGdrA5NzDEQNTNj3s8Z34KqpbaBUzWCwzXVq3PW1AdXt3PesXYR4cVll5XtS2+kjWnJxbu5YQS5/CRCC9z/32Em5TMTiw1vwt9HmmG1yu02GhcuzUWOUgqZJQNFRC7gLrSQsTMySfxUjYq+OrWv6LJdx6x8yl1G+mpvrBgWyyE2pmuqdfST9Qt4r6lcP0vEqVypxyEkLMHza3P16u502K1a//kxI4epx48bhhkU3IDPT1+xEDJNMkzVCW/72O4xsrKcNPWwWJp20AAq1NMbWznMQC+vKJ+9HQ69OXYJEEjQyWsa+4PbuhrPFHwHUef4EtRcEj5xaMPBfmzQn0pMmUrEn1yRzI7lEEavk8C7cXVUlWT80IgdfWFiokXnxXwi4hJcnfkqeDfceFVuJrEdXJ+O1jdJyhsQuSSyTPEYFo+bKnYPCofHMt79jguGK9TklTAKROLutbU2wGlsGxZ6Qk7c3VsFNRdcQVAUylRpyXSK8TlvAqJ+c+9DDZrO8uzJCBxfp3lMUTVjxtW+9EJQznXjiqbt19pzZLA9PotvpmVl9cvENDQ34dcMGkKJTnF6PQyZNQnwPigOaI3XAvvziS/j3Pf66EaPnHg/ioqG9kGyiiD2//Ihflr8Ml6M7703C2nFDD4IQxQI9Yxfd/Ru7l4GsKNmJZ0+pR+IgkeZrscpx/Sfp2N7IlfygJRHKd0lZVcWtUtAzXV9Mkm/evgOKCwqOEyC8Cs5iq0Yh4uHjGjA5L3aFjup2Bc58I0cSmiZ11BSkjuSXCSMRbhLj/iuYra4Mjnr/7kZad6eDJwQSRVCmloZB0wRGP3iXsYXh44mXBPvYH2VKFeT6ZCh08ZBp9UyA3VK2Bd4AdYTMIaNw2FkXI94grYEuWs8E8bWseXMpqn//NeiLimgIrr/hOiYKQo1XJOHXk5+GoI8vLl3KCMhIc5XEvA+bOhWLb74ZhYXdKGf62wvPL8WD99/vN316uY2ec1xEqSlTcwObf/3ubm6baHas9pyos7We5d+D2aljO3DjzL69EtG6V1LP88UuHf65Mg0eL3ds3eQRcEJFRcU6qdei8dxX6X1yiuLlHvFbyIRDeS98aL4Vj86PXaswlXFu/DQd35fz5/c0SenIn+vLZ/KYqbkOxC75V7BAIte9HTyLAl1ORuVA6leDwohHxuthyBrR42EpOCroUYGY/qH/7WCMlGV9aghqnR4zzr8a2cOl6/dGc+0Vv67FmreWBtUwpVz8Qw8/iBEjRrDL6hMSmJOniL6c+N0XL8baNWv8vqwonTN12jS89sYbXeRjpABFalBPPfGk3/TpBTf00FmSl0T6CTt/WIkNH73hx5SpzsiHJrOIUYVE04g5kn2xBbHnT6nFuKzYiQ9JXcuZy7JRJgHtB2BFaWXFfMruSL1Wvxw8HVyUX3SeTBBf4n1RCBDZ59L4rNiRdhH15jUfZ3C/IQkmmTvzZKj0fKkdoisgZ/ZXMNOuDfBYOvostWcE3/lHp90KQhl5e1EHDMZ98titrCjnsfQVpaGo9eD5/hzsA7EGr8eDz/93NwgfH8woir/t9ltZHr5n49PHH32ERddd54eK6TwHqUU98fTTmHH44ez/Igf/yH/+g+eeebbrMgqVGtPOuQwFB02WvHRzaxO+fvohGBu6fyNyrR66gpGgf0fT6D6atgcPbPMSXXhnQU3M6n5S17Jytw63SKNV8XhF7zHlVVVfSb1W5/iII3g6QSGgkecXboYAbjKJmcUW3HNkc8wgk1RsXfRpBjbX8+W4ZAoVa3hKKBjOtYeUnmmlQmuEdLRcFxkkgzq2rg2Y24zPG+bLwfeKxghCSrz5gwFZE2wLqY5ir68ISFRG1APH3nB3v5Aj0bx1Nds345tnlwTdT+KEf+KJx1FU7OOL6YziX3/1Vdz6j38EnArl4v91zz049XQflt5qseCeu/+Ft996q2s8Yd+nnX0pQw9JtbVvv4hdq7/uOoyeEXVmETQZebxxIPclqfnO0RgcFn7xpDZcOiV2ynLcEyUuJIcMN3yajt/4WSMJMPNTaWUlwfy4O1d7z6lfDp5OVlxYeIUgwv/7LsTKEzUeVmyNVS6eqtSvbUzAU7xVakFAUvFYpI+fzoWmoU5WcvB/hEhVygMYaCwhaCin3duoC5gcfCCzdrTC3NIwaF+AzvYmhuvvTVJGhT+ixy06mDvj2N/tDXs8vYyoSWjv1uC6ynPmzMFNN/sQMBTF5+Tl4YsvvsTi66/niuBJ5u+2W27Bpx9/0jUfqj1MPfsyZJTwBT2dB9bt2speSD1hkcQSqSsczWoe0TT6/Zl3/wpvkLQgSfM9c3I9CKI9GOyr3Tr8+1uDlMYmDyCeVlpZGbrzLczi+u3gS7JL8qD00CcE19NAWNTjSPR2ZmvMovhfazQglrbaDj7IZFxmAXNYcnV4ySyfRmsNnEGaKgbDwxStOQR08PRCpP6BcdMDXoacEpM47Bg8ha3OiVJBldJOvZ07/Z0EO2Yu/Ds0+oRobV9UztNSVY4V/7srqPJTSkoK7v33PSguLmbXowjdancwCb/eEnz094MmTMBby5dDq/U960ajEdf/3zX4/vvvu+ZLXazTzrkUKbnclFOsVvD5Y/egba9/UV4//BBW2I62sRd11Y6gHcwH59jwwDFNgwI902GX4b5vU/FNaRw3NBLAWijkJ5aWlvaraNlvB08EZHC7bxFFEIyHixQ7N9GF2+e0YEKMWodJmfyebwz4voyv2KqKT2YOXpMSntfD58Aa/hKF1o5ta/ugTCjSTR46HoaxQYQgRBFdUXy0f9X9OJ/odsNc+ltAWCSlESadfC7DvEe7CNiPKbNDyXESIqViY185Pvo7iWqffvppWHDuAlZgpbQNabauWbMG99x9N2prahiKhhShqPv1zeXLkZraDQtubW3FZRdfgo2/dhMUUuROETwvioh+E9u+W4HfPnvXL3qnwip1rEbd6Bmr3hkU+07tDZdObsN5B3eA1OUG0ujqqyu0uPcbAwgiyWWi6AaEG0qrKigzElFxtfM6/XbwdKLi/PzpAoQXIQhDeBZAFz1nghGXTWmPWRT/5qZ4PLkmBXZ3+CUS3C9j4hxQA094E2E17ktDhB/8hx5h2vVrn0IkYd8No6eAtG0D2iB08FQTsNdX+vK1AfRaEzOyMfWcS5FWwHP/9+8tJVx85W8/M7bJnhqmPWcxesxoJgiSnZ3N0jTxiUkwGAxoaW3FFytWMDHuYcOHY8aMGX5QSjpHc1MTFpx1Nvbs2dN1ytzRE9h+aOL4Iu+22iqsfv1ZtO6t6DqHXBePuOKxUaMC7rnecNQEKToP65wfDM1NVpfAOuw/2c63l7ROEdjkFXBBRUVFD1XyyJ678N6P47zDDYZ4V5z+EQDn8zY+EVf8E39rQGFybBSfajqIJz4LzRa+t2bKyElIHTHRB6MLY4RTNjXVEr1buKF/6L+bSzfD3dHitwZ6GZJoeWLR6D+Mg2carlU7gna5FoyfjKlnXwKlJnyKbiBuKDFMkgOtI7rdAEaCIFf//SrMnu1rfFKqVEjPyIRmXxom1JypGerkE/+GhvpugSAiVSMUDeHrwxnl2zd9/j62kYA4QVKpFiBXQps7BKrkDK66Vrhr+P9dBGHfbdW7gqpgTci24855zYOC+51oCaixqcMRfi/3rdMlQnzMKwi38miuhtu7qDh4ukhxQcGxAoTXeBuf6JjTxnZgcYyaEAjk8s+VBqzYyQfNissqQuakuVxi3C6bhUElqR37z2yWiq1wtfmnAKlYlnEwfe0E+fQeZBE84eBte3cxpxDIqFNz/NEnY8y8EwbtraQofscPX2Ljx2+BuOMD2eGHH45rr7uGNT6RJaekIjk1NSy1cU1NDebOnMXSOMw5y2RMaJtoCniMovYvH/83iGKh06Kpsdp7DtTbYK3eBVcQ5kgiN6TmpmtntA0KauDFn6Xh+zIuGevOpfarsan3fkXNwVP+vTi/4AtBELjJO+hmvHVODfKT+pVmCvocUrH1ig8yuRCNCq0e+bNPhUIb/ma4XQ6YGmtB3DR/ZiOWRqZ72sPkKjWyJh8JXUYQsfNB5uBZYXXnL76GpwBGwh1TTluIgoMmQSbnK8oPxD23dbTj80fuBumaBjLiiH/iyceRl0dwRLAoPjs3F4owegcktH3c0cd0nZK98I45BWPmHh92mR6XC189eT8ay3qwjZLGauEoKOK52MTDXqP3AN/9XB+0uKpXeXHb3GbMKRn4prtfa9S44v1MiFL6SUXx1dKqyvMkb0yQA6Lp4H25eEH2JQDub91ZxRb8K0a4eK8IUOdYRRsfRCtv1inQpmaG3Vv6FDU11QTlCgl7gj/IAHtjNew13blZmjYhjXKmHQ9NcpA2/kHm4B3NNexzPqhRztqQjqGHzkb++ElISAtfaB+o27fp8/ewaQURCga2E+afgKuvvqrrjymGNCSnhCYh+2HVKiw87/yuYyhNNeW0C1B8CAkHBTf6qtj27Qps+HCZ3yB1OhVWi2OQmvFdhmop9rrgnFuFyU4Gj0zWDmz6lHDviz5Nx0YJuHcRaPVAnF5ZGYJ7QeLDF1UHz6iECwpeFSCczTuPeLWXFURmFsfmjfvqrwl47Cc+pj3DmEORMnwix9RFmJrqYTP9uSkLAvF8hO38HWQOnjpWgzEN9rzRFL0b8ouRM/ogDJs2B0RZMNiMoviPH7gFVAMKZEQk9uRTTyA93ffylSsUTNZPoQj+ZbLstddwx223d51OHRePWRddGxYD31JVhu9efBSW1m4NVCqs6kvGM1GYWBihdahzNVBvRuf1zj7IiGunD/zv8qNtevznB2n05YD4cGll5eJo7l20HTxyc3PHquWKHwFwAYoJ0nR4kQW3zG5FsjbwZ3R/FlzZpsAFb2fDwsETT+IfuTNO5Lqcpa0Z1vamQcGiyDXhCAYRxwdxffQ0SmEVzD0jeM/AIHPwlvLf4Wrv1hoNtw1yhRJJWTkYf/QprJNzsMEmN372DrZ8EVz3/qyzzsQFCy/oWmZiUjIM+xx+oLU/cN/9eO6ZZ7r+pE1MwjHX/hP6FEPQrSKGyJ+Xv4yyX0hDdl+kLMgQN2Q8lDFU+qL7SPczlL1yei1GpA9sc1O9SYF7v0nFumruRAYtqUrweubsqa4Ozk0R7uEN8PeoO/i0tDR9gjZuCVEJ8/YmE2fzP2b78mbk8KNpHQ4Zbv/CgDVV4THxBAEcMv8Srh+1w9yBjmYS4R7YT8Fo7lXvc3kcdpi2+fPBK3XxKDz63ODFu0Hm4Bleulk6dxA59vTiETj09AuY8PT+pg0Odl9NLU349KHb4LQFFvZJS0vDo4/9D9QAxaJ4uQLZeblQqQJTd1x9xZX4fMWKrsvFp6bjxNseZmicQMbojDevx7q3XoDdYvIN6VRpyinhQqFF9MyS/m7pJrhDfDUPSXVg2VmBeeEjumYEB1Fa+GMmPpQKBwdEe98lPKKIB70y3B0N5EzPaUfZnfpOXZiXd5RcJlsKCDm8ezS1wIp/HtGMpCjzNncS7D+1NplLHitv5snQGnxyaKGMCqzG+qouaFi48X/EvxN+3Lhpld/UVYmpKJx3ZvDlDDIH72ypZ2pPkRrlpAsnHIqigw9DesmwAS/Euh0OrP/gdez66ZuAS6Ji60UXX4j58+d3kZAlJScjOdUQ8KU8/9jjsG1bN61v1oixOOKKm4Jul81kxA8vP4763d17KtPEQZc/Aoo4ro/2iG6F22yEpXxLwC7kzhMuOrwFp4/b99KJ6Cr9P6jRLMc/Pk/DlnpJQim7AHFhaWXlT/2fgf8ZYuPgCwuTBC8eEQQs4MXFU8fZjTNbcOKowLqK/Vn4miotE+Xm6STjzcMTZQFxw//ZOWmMm3/wQywQrQMVWYPaIHPwTBCidFNQzhKe54qah3TJqcgaNoYVH0mvdKCMIujqLRtYd6ujM4LuMRma66TJk3Ddddd2RfHk9EkQRKXuG8WPHz0GFkv31wCxaU488aygy6NC7+bPP+hKzTAysYxCH5lYFIU8/CYgirDVlsHRRI1qgTtTKb1LTLUFSQMLXX5xfSKeWccXTO5bIwl6PGlx2G6VqrfK8wzGxMHThQtzC2fJ5VgOgE8uibC7Gg/eWlAT9Si+2qhgDn5TXfi3KsH/cqfzYaJba8rg7qFYw7Phf7QxvTVZ4/OGMpjkH8XBk0MgZSpbze6Q0R/PfSHnSUXI7JHjMf6Yk0DpjIEwX+PTM6jbGTgfnZiYiEWLb8DkyT66305ZP8rH0393WlNTEw6b5E8JPH3B5SieFJhnqKliD8O89yQTI/GU+KETmLpXrMzrsMJauQPuAPTOndecU2LBbXNaoFcPXMq0ok2JC97OkqQLDaDBKxOOKi8v3xSL/YuZg6fJluQXvgwBkjCdfxtNRGQtUERRF8DtBeOC+GyHPizZD+HhKQVBsm7hrKO5DvY/ufiHuWwL3MZupATx0KQFIRpj+zXIIvjOOTla6+Coq4DXFR0tAtIqHTF9HkbMPIohbiKStgv3gIX4+9ZvPsVvny0HYdEDGUEmL774IsZBQ0ZRfGYO4eK7HfGq777HhRd0F2Rp3Ak3/hvJOX17HKiR6YtH/4W22h70vPuhsEpzcrY1wFa1MzhtsgDccHgLTh5jGjDud6dHwC2fp2GVBLEh38/Fe19ZVdUt/XgUQh4aUwefn59frBSEVVJy8QlqD+4+Mvo8Em/8loAn1yaHLXwwnPfUY6FJCY+HZ6RazYE7JGN1w/b3eSlycrZ2F65SRhzCuGj+MBF810RFuE3tPs1WE2m2RifS0yYkYciUw5E7ZgJS84q52vujcQ87murx1RP3g9BcgYyKrffd/++uxicaQ2gaiuI7jdAzhKLpNLlShTPvf5bBK3savUTohbLlq4/8ycTS86DJLgnbLduf9VKDmnXvTrhaG4KeJj/JxagJxmZG5+Utdb6UNPp8Zxwe/D5VCh0wufdSjyAcUlFREVySSupkeo2PqYOna5Xk5/8dguxR3nkSnfCMIiuL4tPiogeb3FSnxuJP09FuD80JwbhWxk9HYuGosFN22i1or+2rWRr2wD/QAHtdORPI6DTioQlKNOYLSQYlm2Tn/L1uJ5ytDQxZQ5/+0TDKQ8cbMpA5ZCRrlsoeMTYapw15DsrFE1Rx548rg44744wzcOFFC7v+TtF7Tg9cPKk+ffD+B11/NxSU4Njr7+pzvvo927Hmjedgau7uopXrEhBXNBoyVfi0Z382g1SbCKoruoNDH2fvS89QT81A2F6jDxb5a402bIagx/w8IsTzyior/TvForyAmDv4wsLCTLkoLgeE0K1xPRamUXhxw+GtOGGkOWqfXARZOu31HBBGNZQRHW4SpSGC0eH2OJggkk0VO6J8SwbX6YiBkZRzuh38dEYXHNQGuYNn8xZFeJx2OBqq4GyRDqEMtnbKb6t0eoa2GX/USUjJLeBFCkd0003NTXj/X9cFPZZIyF56+UVQTr7TeuLijz7iCOzZ3X1vh02bi0NP734h0DGUmvlp2XOo2rK+q8BJhHya3KFQ01dutHHNvVZDwQUFGcFMrRBx2eQ2LDg4cPNXRBsb4qBtjSr8XKXF9iYViJbc5pKxqL2uQwEXv5A2RIifONzuC2pqavzZ/KI84Zg7eOpuLckvWiDC+6QgCOGJXvYtsDjFif8e34ishOjx1Ny8Io2R7oczfU4x44cnOb9w1ly1K6gYQ7hj/wh/791cQvn3P7yD77HxFCFSAZa0Z4nIKlomUyiQPXwsQ6RQGofglj0LnNG6zqqXHkPFxuC6pOcsOAfnnrug69oMF5+bCyqwnnbyKWhs7I7Kpy24HCV+BVYRu1Z/i3XvvOAHXlEmGqDNGx51laY+eyJ6Ydy6BqIrePRuiPPgsfn1KEmNDnqG0i12l8AaI90egUl/fro9DrubVezrn2DXUTCj1+29uLym6l0fO3DsLCqzDTe9vLy8bJUgfwoCCF/HXT49abQJN81qiVoU/94WPe7/PniHXuc6NKmZzMGrOLry2uur4LRGH9oZbk/3198pX23e093N+mdz8LSP1I3p7miFq72R5eejVYilcyuI9GvEOBQcNIVF9nFJ3KAyrlvcsGc7Vj79kF9uvOeBRFvw0MMPIjPTV1OilwxF8Vu3bcN111wLY7sv/UtUDccvvpd18XZaS3U5y/P3bKoiGgJd4Sgo4/noP7gWEWQQpdKsld0Y/UDDphda8fBxjf32EW02OXY1K9FikWNLvRo/V2vRYFaAumM5GQAAIABJREFUiqcxsEZ4xWcEGd7fU1kZXI8xCheOyewDzEsoyss7QSaTvwwgiXfeKrmIe45qxKzi6LA2VrUpcOrruWEvr4xLYA5ea8gOO5bk6aztgQtdYQ/+AwwgcQXTjl+6ZvpndPCdi6PGLmqocZtaWZ4+VN5X6q2jTljKcacVDWVY+oT08M10PNdwWMxY9dLjqNsVGDKpUqlwzjln44wzz+iK4gkP/9lnK/DY/x6F3e7T3KX5HPX3W9nXBpmlvRWrX30KlH/vaeq0XGhyhsTka8TvQqIX5j2bQHQZoeyBYxsxux88VuuqtFhXrUFlmxI7mlQgRx+lKD307RNFtyAIWwHxbVVc3KPbtm2LSZS4vxw8Jk6cqGxvaXkeojTYZEGyE/87oTEq5P3URnzCS7losoTOw1OhlRy8Pie83Jjd1M644f+sRo1CpM3aaX9mB9/t6L3wuuyMC58VmIM010RyzylS1iYkInPYaEw47jToEvtHq0t1IOpq/fndV4PCCEePHo3rb7geubm+6JwKtI/+7zGsWLGii0upYMIUTD3zIig1OvZFs/GTd/xEPOg4mUYH/bCJ+6Wblxw78c4E0s/t3PcMvRvLz62BWqIsHznxtzbHY1WZDo1mBSwuAZ7opF4ieSRsoih+Kod40+6qquA0mZGcOaYVoAATSkpKSkpNSNwNQQifJ9l3vFwm4tQxJvzftLao6CsSVnXlnvB5eCqyUrGViq6hjCgL2mqCF4EivC+D5rC/ooPvufnkYOxNe+FqrfelbqLp7BUKZJSMxMEnnA59ShpUuriIImMS5l697Bm01+0N+NwQBv7v//d3zJs3l52fdFgffmgJNmzY0DX+oGNPxZh5xzMumdrtm7DmrRdgbe8hnE6Y9+Kx+H/2rgM8qmrrrjMlvZBGElImhSKoWABRwAY2EHtvT0ARKwJieXYUEaWIBVGsD8XyfD6w4PO3I4KoKKJSTZ303jMzycyc/9snhUxm5t47JSEJd39fBJnT7r43a87dZ++19BE9H5ohH9PBPlE9S/n7hnG1QvZTzmx2CEWl0gYtXvppEHYWBcFsVRwplhveH59zDr4NNu3MnMKcv/0xYMcYvbaD75gwMyVlBtdoX2CAPMq2d6Jv6rtOrsYpGc0+x9r+/Ue4IAKSs8j0UaKgh3bzUkZUBYKywO6/lE65tfXm5wRqDXtJMKPtEOtw2ME7+5fD3mKBpbJYaNSKiko/Aj0xWMamDRWhm8j4RMSkZoD+TamRytOODW/h7+2b3ZLfHXvcsXjwwQdAlML79u3D8uUrUWBsE3Ohoi2SLEw7djyaaqqw7Z21KDmw22H6gOgEBCcPB1Mg46d03e7a2cxNonLV1uw+MyY0wC5434fHuj+ApQLHP0qCsL8iAJ8fCMWByoBDuVNX4pYfGbfPzjIaHZ2vpKebNr0O8BkZGZGw2dcwwD3hhYvFjk4046mp5YgJ8S3XdW95AGZ+MESWeCwkLhmJJ54NrUyer91mRW2JEdaWtljmQDMB8Pt+6XxVPjwBvv2ucgJ6M1pqywXHPKkL+dNIAzU0KhbxGSMQP2wk0o4bDyo+UmKFu3fih7decssyqdfrMX/+fEw5YzI2f7cZK1c+0xl/j4xPwsRrbhJnBMRxk7X9OwcabE1gCEJSR0CnIOlAyVol23AOS1UJzEQtIcHUSoeri86shKvcd0qJpopSiq3vKKTDUm1fB/ZOl3DOv2F225zswkJHpR0vHdvrAE9hoUyD4XSAvUJSrkrXTQVQVxxTh/k+kvlXNGlx438SUSKTD69Uwo927vXlRQM2k0YFeBdPKAF9q0UUS5nL/F/oRmEUXUAggiOjRPHUMVMv7jz8dPf7Ym1txeerFoE0Ut0ZVbe+8upavP/ev/Huu+92NksaORoTrpmDgj924OcP1zkypBL/DlWsJqbLhiuV/i5LtaOQWFPublgb3Yt2EBYQNcElLqgJvs4KwZs7IlFUrxepjn580fLH5cmPwbmVg71mtrYsKC4u9rkS71AAPF2kNjPV8CQYm0fykfJX3daCgWPp1AqcRrzxSjt1a1dv1uCBL+JAp+dylnbGVQiIlI450oFUY1UZTAOUk0YFeOmnhAqmzMU5IvNG6kBQ7lmT+px4bmJTM3HMtEsQEZeAgOBQkX7Z3bJ/+h5b31krOdWVV16Jffv24vff27ithMj2yWeJCtzNrz/rpBZFu/ewYcdCo5fnZvLlGjv6ttRWoFlG1MMQ1SpU4IiagBIn6sxa/GQMwtqfBqGwXjGc+LxcOtuIHDQIOq22U0PCbreDvmzr6+thsXhHnUDSfRrObsky5hJZo08hC29x0mfnpCemGzQB9g8BpkQj7+BuI7IVy6eVe13YYLYyPL8tCh/8Ic9dnTDuTESkDpe+VqrcrKtGowRXhs/OOoQDUOy5Yd/PnUVAh3WIxs19oC95W3ODCNtQmqW/KBC6T0dFo8GRMUg9ZqwI40TGD0FkQlLnway1xYKNS+5Bc4374kgK1ZCYRwf4UNbM6LMvQPG+P9vi7l23vESTbBiJgKje0am1t7aImgu72f3GlXwwJbMJ951WJfLUqbJ0w1/h2N+L8XVKPT3yqKNw+uTJuOjiixEVHSXI3Cg7yWQyoay0DF99+aU4xN7x88+oq6vz5jf4O2YxX55VWqpcjszFLIcM4GktaSlpZ2s1IP0xxdsDyqo5e3gT5k6oQXSI5web9I1PB60rt8gftEYNP04RZYG5sa4tVbLfvQ/KP3eHexaNvIcOtqCYsc3UIFSHiKLYbnatuuTJmC7bMgZ9QCAi4ocgOjlNUCKkHHW8SLn886uPsfOTfyueIiA4RNAfE8d8VxpgGkAXGYew9CN7nI5ALJY2SoV/o4UyZyQsSMdx8VH1oEPWLXkhyK4KQGvPFCO5XEVUVBRmzJqFqdOmIi09XVL5ioD9x63bsOG//8Xm776DzeYRXrWC4/ZsY570K5nMnT6kAC9oDFIMj0LDDqr+Kng0iavmzkk1uHBUA7ReZDt9mx2Cx76OlWV+U6rRamluQENF8YBUd6JSfhI67jB1By//gNKOnsrrrc31MBVmg7f23AE8xevpIJZ46sPj4hGXNlQQkLU0K/tyEdk6jDmBO4VkSGNVG6Q42U3eMRItLFXFMBdly9JFUPydwJ3exHsT2LVaLa665hpcP3MGkpKSQLt4JUa7ekpLXf/W21j78sswmzw4mOe8MNuYT+eUXvMwHGqAx9CEhDh7QNCHjIFUBhSvJzbEhlXnlWJ4nOfXTsySi76KRWGddLxOFxSKjHOvl11Wq7lZ7OC774CUPAC904boLhS71mFJ3YW3VYD37I7Rrp7i8+Yyowjd9FSc3rNVyW37GIISSKUptedUmtqXQP5ora+CqZi+CA+tWHZ3r+j0ekRHR2H8iSfi9rlzkS6xY5fzPwH9F5//Hx64/37U1rg/QO4+Drfj1pyCvDVy47v73Lvfem9nc91Pk5GaOo2BrQFj8jwCXcagQ5Ynzq5AQrhnJFHGWr1QeCIiITnLOHcGCOiljGKf9RVFfVLdiQi06OBKFxwKbXC4x6/bFFduNh5kzFQBXu6Jcf15R/iG/El53nZTk9vKU+9m8F8vbUi4iL33yO5dMHmaRIopATqJeYi6gj4kXh8VHY1Ro0bhqKOPxmVXXC449WkH7w/btnUrFj3yKLKzlGVBcuAPK7efZjQalX8rdFloXwB4jIqLCzMHh97PGIj71COC6bOHN+K+06rFa5tSI5pPAniK4clZ0snnI3RwimQzm9WKhooitznIcnP05OetDbVoyt4FEjLRhUeJlDdPOLzNxbkwlx1MvYsZdQJiRo5zv+T+QBfckw6XGZt2cvYWk2Cv7IjV+0t8xB+XJaiAh2QgMDZJejNA10Ec7S7OnTrI2ojbh0CcOH3sFH+22UTBnM1iEj4QbzN96Nxq1JFH4oyzzsTIkaMwevTRIKI2yjLyp1Ec/ttvvsGSxU/AmK8oxbae23FzTkHewbxWDxbUJwCe1jtkyJDYIJ3+c8Y8y6ohPuhZY2tx/Zg6xVWu9Ewt+TYGH+8Nl32+Yo+agOgRx0m6lGKu9eXFsDT1Die1B/dXHPY157UXxjEGTUCweP0OiBqsaDfflPMnWrtK9skdPKsAr/D2cFHIY7eYQZTMlsrCPhG+ISGPsKHHdGqsWpvqxfps5kaQuhJs1vYCJO4GnPnBIimKDNJ5BDHidgB5HwJ0ulGU/XLBRRfiggsvREZmpuDOp0yjnqB27ngwrFYr3lq3DiuXLRdZN7J7Ajt/t8HcPKeiosJjQrI+A/B0kelJScdodPotAMLlrrrr50RlQGlTEwwmxfoDpH7+2i+DZOlAw1OGI/GEM2WX01BZ0idz4bvzuYsL0WjETp6YASU57zlv5+M+mM8r64/DDeCJRaQDwNoBjVzc9m9tf3MyF/9Ou1lLRSFaqg+hBCTTCCpgoucgoRd6+4Pds/Cn7C/KIW4QHBws6BqGHzECM2fOwphxYxEWFtbrq2ptbcWs62fgx23bZOdmwD4wzMzKy9su27hbgz4F8LS2jJSUm5lG+7SnID86wYwHp1QhLUrZoetn+0Kx7Ht5DcXAqMEwTL5M1q+kjdlcW+FQ4i3bqRcaULy38cBvLrITGHQR0eIgTRsa6XLHYjM1iRz4rkYUyimnXuR+5f0U4Cl0AgopdOxQO/5O2q30WfvOk97WOoCb+vBWi9jRCq4euw2Uy01tCbDFmEL7tX1X27mLbR+znYu+ZyUflD9kmsBgUdBEu/a+FDZSfgWuWxI98tChQ2EwGDD+pBNx+umnIz4hwUGA3Nc5vOm/a9cuXHfV1Whuli1YpZTJhdnGvBcBePSN2+cAPjY2NjwiNOwpADcxQPHJBl3ISYZmLDm7EiEK4vFKNVqJssBwxpXQBkgfyBJtcENVqSR/hjcPga99KA5qKjjgdmdI8fiA2CEIjEkE66ZgRWX4VKXZ1Ygr33DGVSDFIpfWxwCeAJtAl+LCIhbcQoyQ9rb7ROBL4NwB7gTqAthtB8G+E6TbcrVF264hB19vkNq/xzwQERGB8y+8AESXfPTo0QLgg0Pkz916bEHdBqZn6f777sMH78vXLXDwr1pstisKCwu7UHzKr7TPATwtOT09fYTGzl8HMEH+Eg62oCq3s4c1CoV1ufz48katIB0jbhopo8PJpEnnIWhQnGQ7UnWqKy/qk5kRVGVJmTAk3uHK6CBJExSG4JTh0IW0Rcfo4WvYvwP2bn3IH8mTzkfgIDeMz70I8ATalI1BP3RtBOTcbm17WxG7aptjDFgA9MEdePuFevKIqW37uAcIAzIyMjFr9o046aQJiBscJ+LsVL3bF23f3r249KKLO4nfJNZo5nbbKTkFBQfVdxRcUJ8EeFp3hsFwiUidBKSRtdtF0qHrDWNrcc1x9ZL88cQRfenbySiqlxH/0AciYdwUhCWmS7rTajGD5PuIXbIvGh2U0k5eWo6OQRcWKYiliAbZZNznFNqh+CylShKdsl928LSbFjvo9j+7xK5pt22zNIuKUAJwkZHRucu29qkMjL54zw+XNRF4h0dEINVgwD333oPjx4wRoN4fjDhr7l14N7784gvZ5XI7X51TkH+7bMMuDfoswNNRYEZq2t0MfDEYk0bhbldMh653TKwRnBVSO/nbNsbjl0Jp0jECtFgS/8g4StKvBOzVRTl9WoCbZOhMBfvl3zKYRjAH0m7YyRhDROoIDD7uFGi0LgrFXOzgO9Ll6EtDxKo7Ad0u6Hcpk4TS5kQYhUIn7SAum+LkyZOuth2QHoiOjsZpkyfjvPPPEwVJSitM+4ozKG3yg/ffx+OLHpMlJ+NAKbSaI3JychST2/RlgEdycnJwgFa3ggG3eHpD6LD1oXbGOXd9l30fLUs6RuGL6BHHI2bUeOklcI6qwuw+XM3azvdh3OdzpkZAeBQSxk5GUHSbkLMwzmE1NcLSUIPmypI2ndr2eLY4uKT4t5VyotsAvjMG7umNVdurHiCeHJ1OpDeeffY54uA0NLR3KBV6wvm7fv9d7OKzFBQ/2bn9ulyj8W2l6+jTAE8XkZKSMkTPtG8yBvlcxW5XPSTCirUXl2BwmGuSn/d2RWDlFnkJsgjDEUgYM1k2b7ymOA9EW9CXTYlSvez6GRPFX9rAENhammGzmGETh5hW2EUMnA4r27JH1F24rDfVBh56gHjtb5h9Ay67/ApB19vTRsybfx/4G7/+ugO7/9qNutoaNDY2gVIdzzrnbJx51lmIj49HUJBHNZqdy25sbMQ9CxcKKgNZs/PvsgvyT5dt196gzwM8rTM9JeUUjUZLAiHDPCVVGRHbgpXnlSEu1BnktxuDMPfjLrtQN14LTUwTItxy6k50yGppVPz2pPQe+bUdyc5RmEY11QP9zQNUfJSZmYH5C+aLtMfU9AxRlOQvo6KjxoYGNDY14acft+PTTz4R1aYVFRUCzMkiIiOQnp4hSMcmT56MsHCPSnbcLvXVta/gmZUrYTHLEtOVM/CpWfn5vym57n4B8CQQkpFiuJ5p2EoAkUourKMN0QtPzmzCnRNrnHbyhXU6XPyWPP0N5X4TwFOKoJQ11lSgucYn+mZPLs3jthTjJrUc0hVVTfVAf/IAHaROmDABt952C2Ji2qi+E5OSEBLqW5ESxcBzsrNFeGTHLzuw+dtvUVpa6pTVkpCYgNGjj8Gll1+GE088ESF+Dgn9+ccfuGHmLFRXuefyb79fJoA/nJ2fv1zJ/esvAC/i8YFa7QKALVZyYV3bEIf0uUc04I4JtQ458kQ3etraVFna0cDIGMSPmYKgKOmEHlJ1oorWvmaUGmitr0FLVbED7UBfW+ehXg/lTVOVY0RkJEJCQkDc38EhwSIjI2pQFDRaOnxmCAgIBCPeWg/M2moFlahT2Ipe7+vr69DU2ITaujo01tejqroaNdXVIEWggWITJ01C5tChIj5Oh58UwiDSro4MF5K7NJvNMOYb8eWXX6Kywv3miAB+1bOrMGLEQQGe6JhYRLWDvac+Iz8T8dfXX36F33//XZB/0Q6+rc7hoNEbwuQpUwSwjxs3zm879u7rpTDQlZddDgJ6GaMTrA/tjM3Oy8urlWvs2VMqN1oPf56WlhbE7Pw5DWOzPZ0qQMtx2dENuHOSY53AReuShH6jlFGxE+3giR9eylpMTagtUUQg5OnyPW5P2SlEw9paXy0yVTj99NEUTo8vzoMOgwYNEsIMlEJHPN4EOCEhwQLAA4OC2v4MCBB/p4M7rUYrQIgARatr+1NopBKbICVZU4yQMY+5SkTVazt4ELjQzpEIuOhPG1EKW60g0joCGfppaGgUFY41NTXYu2cP9uzejd1//aWEu8QD7/Rs0zVrX8akk0+GlnzY7sfuviNfmJqb8diji/DRxo2SX3C33347zjt/eueiwyIiEJ+Q6PFF7Nu3D6tWrMSvO3YIaT13QhwxsbFY+vRTGDt2rAD2nuSnoYtY9cwzeOHZ55Rczx67hs3Mzc11LDN30bNfATytn0jJgnUBb4PhDArdKPFG1za3nVSNK49pAOXLk928IQG/FUkfjlCqJAF8WFKm5HS2FovIpDkk1s7uZyYOkZrydm5tFzwoh2Rxvk1KIEvl5gTEtBOk/+/4GRwfj+HDh2Po8GE44oiRYtcdGhaK8LAwhIaF+TVG69tV+Kd3U1MTKsrLkf333/jjj13YtesP5ObkihQ7AiraEdPf5d4EGH2J6QJA7JH0fNNbauCgOOhDI6EPCRNkY90BjVKBC777UHG19lPLluGSyy5VdOE///wz7rjlVlRJhCjGjx+Pxx5f1DmeXh+A1HTp+pSOxvTlSl+W/373Pby0Zg3oYNOV0TXTWxxl6Nw5fz5og9BbRl/gF553vhK6kxZw3JRtzFvnmuzo4Ir7HcDTBiozNfV4MM0LAE6gfHlPbkCw3o4bxtXikqMaBcUwCX9s2icXx2OIP/40RKaPlDzjpVfOyrxDcIDJOVqokKkoS+zU+6vRq3tsXBwGD45DZOQg8SpPP3SwRbvwtLR0GAypotycdt5EHOXPQ7b+4jcC8IrSks68adr9E2DV1taKbI/t23/Cjh07XFZHEqDTmVLI4CSEDE6BPiRc8M8opcUt2LwBpspiRa66c/483HHnnYra0pfT/Dvn4bNPP3XbnoD37fVvdWarEBinDx0qajakjPy145df8MyKldj1+063iV305nbKqafisssvx2mTT+/1nHryweRTT0VRobRsIV0rB389qLn5zj0yDJP9EeDp+kgk5HTG2DqADVH0BHVpRFquN46rxQWjGvHmr5F45Wf5b+mYI8cjejh9r0g/TBV5CgqJPF2wTHsiFBNUBH2QrtjV0ukXicIlw4YPFxSttEsKCw9DRESkAPe4wYMFbWsHwB+OIC4NWGaUl5aixXKQ5bNr+71792L58hUoLCh0GkZQb0w4F0HR3glpV+3bgardByUcpdZ50SUXY9mKFYqf9j///BOXXniRpHbpsuXLBFd7hyWnGkR4zZ1RVsp7776HN994A4UFBW53xyNGjBDiHtOmTxc88IfKHnrgAby7/h356TnPtjKcnJ+fL3no118BnhygbQN5zZfy3nBuER5ox4JJVULJbtFX8mwIg4aORuxRJ0GjlS6qFcVORGjVi0aqOM35+/okAyCBOSnjTJo0CSNHjULs4DiRBUEHb3ToRiDeEfPuq3whvXgrFU1lsUgDfEFBgQD4fXsPKnF1DKwNCkHKKReCitW8MVNVCQq++6+irmPHjcN7H8gTaXUMRmGlOTfOFoIY7uy6667Ftddd2/lxXHw8IiLdb9CeWbECb77+Bii05cpo83DxpZdgzs03Iyk52W/KTYoc5KLRN19/jZtuuFFJdztsfHp2Yf7/pBr3Z4AX15WRbLgaWraWtHiVeKVrGy3jOG9kIzbukc9lDU8eivjjT4dGLy222xvFTuLAStN+/MC50Ptslsptp0NBccjV3o8OC+nfnHRa2w4C2xgVO4Qd3HuVXpEJpDtCJXQoaTCk4cyzzsRRo0cjacgQRMfEHJZhFE+fRU/a0660vMz9Dr6mukYAPIVpupuvAG81NcH4zQewmuVFvWknvO1nZbv9jnV+/dVXuGXOzW4F7I899lgsferJzvOByKgoxMY577jpLGLN6tVY/TxFch1NcNeEhyMzMxOPLn4cI0eO7PEDVKX3t7SkFOdNmybOC+SMg7+Wk58v+W3Q7wG+S/rkQgDysZZuXmNCmkHeDcFxSRhy4jmyxU715UUw92ixE0NASChCBsVAFxAMWr+pohj1xv0HqWw7rlEAuxZafaCQ7CPKY31IhPiSoh9xkNbFH3SGQNWoLY21sNRVopVk5czNsNRWOpGUUV7whAkTccyxx+Koo49CQmKiCLX0F5InuV+evvy52WRCeWlJZ/FN97VSzHnF8hXYvPl7vwO8rcWMkp++QHN5gSIX/bl3j9gAKLXKykpcf+112L/P+e2DxqAq1jVrXkR4RNumLCg4BEkpjpKaBO7vrl8vYu5dudYJ2CksSPTBU8+dhgkTJ/a555XOUebdMRc/bCHdI1krNrW2DCsuLnZbPi+PbLJzHPoGw4cMibXqAh5kDDeTCldPrCggPBrJp1wAXZA0n3RjVRma62SLFXxcIoMuIBDB4VEIjmx/1e6gwnUYuW3n7q0R5YDV0oy6vD2oObCzjX633U486SQ8/+JqkbWiWu96QA7gaTUvPP8CNm36zCmbxtcdPGXSVP71I2qzZPO1hVM+2vSpAFSlRm8nq1Y+g1fWrnXZhc5mHn30EYw6so3NVKfXI8WQ1kkHTGGezd99h0cfehhFRUVip05aq6OPOQapqakYfcxoce7jyZeO0rX7ox19OVEK56uvUOG+vHFuPyPHaPzaXcsBAfB0cWlpaYO0dqwCw/XybvG8Be2ADVMuB+XESxmRbDVWl3s+gRc9KOSiDw5FRFyi7NmAF8N3dmkqzUfpjm8EdW+H0U7orXfWIzbWDS+8LxOqfSU9oATg17+9Hu+++57TLt9XgKcUlNrc3SjfuVnRXVq5apUQ3VBsnOPzzz/HP++5Fw0NDU7dCJhvv/02nHEmZUlDxMyHJKeINFqyjnTIivIK6PU6kXFFYUTKuqJ4e18/56EvqA/eew+LHl2ElpYWWbcx8DVZ+fm3DniAbwf5II2N/5dpGN19/5FUtHsv/exroQ+TZkowN9YKAe7eNAq9hEXHIyA4tEdiiZQWRwDf2oXigHbun3z2GShUo1rvesBsahZZNB38KK5m37RpE9a+/IpTqqTPAA+gsTgHpTu+bpMnlLFbb78NCxZS9FS5Hdi/H/csvBt//fmnUycqRrv00kswc9ZM8RkB9uCERFHz4A+jL4i2iuODRmdN9EXS04VONKN4A/n2Gzzy0CMoLlaAI5xnW+y2owsLC12qdw+YHXzH7ciMjx+MwOAXwHChv0E++eQLZKtZLaTsVGr0x7Pm0RgUaw+JjEZQWCS0MgfBHg0MwFxTjrIdX8NSf7AKmH6xPv/yS2RkZng6nNreRw80NzUJgLdJVCZ/991mPLvqWSe9T38AvKmyBKW/fo1WBWdNZ0+ditVrSEpUudH1PfDP+wXZV3fqABplypTJWHDXAlF5TG+xMXGxiBzkXaiwqLAQeXl54m2Bzi7op6yszGGxHVQVgUGB4i2Aiu0o9JOQkIjEIYl+TSIggP9j1+947JFF+EOetoDeWSrtdvvFuQUFLoP2Aw7gqRIpIylpGNPpngHY2d5Uu7p7FOPHTkGk4QjJJ9XaYkZ1oaOOqfJH29eWDPqgEAH0gSFhsvTGSmdraagROzZzteOD/8a6f+HkU05ROozazk8eUALwO3fuxBOLlziFOfwB8C311eKNzlzj+Dy4urwjjjgCn34umcnn0itUbfr8qmddimAcf/zxWHj3XZ2kYwTusR7krlOc/7vvvhOMkfv370deXi4aGxrFXN2B6IhhAAAgAElEQVR3710XR/H+AAeATxCEZ5T2O2TIEIwdN1Zov/piVOxUaMzHksVL8M033yipajVx8Adz8vOJiNHJBiLA00WypKSkpECt/kPGRLWrX4zy4En8Q8ps1hZUGbP8Mp+3g2jaM2dIGJsAn37oUNbbV0wS8iCAby53LJx54sknccVVV3q7TLWflx5QAvB5uXm4775/OqXb+QPgbRaTeB7obEbOEhMTsenz/wkCN0+MiMDm3na7qM7tbsOGD8PChXfRuZv4iHhiKEyj5PkuKS7Gg/ffj507fxfUwHKUDkrWTOEb2tkTw2RsTIxIEb762mswevRoj2P+BPDFhQV4a906vP3WeiVxeMptftumYTfl5eU5lbEPVIAX9yUqKioyKjzyC8Ywxh87+UGZR2PwsdI7Vpu1VezgKZe8L5nIehf8IzroA4IQEBwGXWBQWz58R168+Ltz1g2lxolf6JI8h0u6fe5czFswvy9d5mGxFiUAT2GG+fPmo6rKkVxPqYi8O0dSKi0JzFfs3AyTglRJ2t2+9uabIpXWEyNOmovOO99lHJrENWgHTwBKRgepBPAUsnFnFOqhmP6s62coyjHvOg6FIwnAaXz6s+OwVojVazSi6nrUqFEYMfIIwYvUUYlNdQCeHurSG0SR0YitW7fi6aeedsuZ43CdnP8Au21mdmGh085yQAM8OSEpKSk5SKd7GWCkCOXTwWtoggFJEw+y2bl6mOzWdm3WfsLcKMimtFpodXroAoKgDQgAY1pBh0tvAkRERV8OZb99g4aCvx0u+YKLLsKKZ1y+GXryu6y29dADSgCe8r9vmj1HiFV0NRKtGTJhGoJjPGNhtLW2gMKPpvpatJibYCrMgqWiQFaxiyiYn1r2NM48m6KlntnM62dgy2bnbB3KiKEd/MRJE8WAlEEzOCEBgbRhcWOUkfLsM6sELTCBfQejJzV3OERlgF7Xlm3TsTMnGg2Kt8fFxYp6D3orCQoOFqmW9ONPHdjWlhYU5OehvLwcd86dJ0m+1uVSjQCfmZ2f71QCPOABnu6fwWA4QgchFkIg7zEDZYcjA6MGwzD5MsmnlPKEqZqVfiH6q7VRumrad/x6aLU61GftQnNJrsMlET/2ux6UovdXf/S1dbcBfIkkZwuB2MwZs1BS4khV4inA0xspFe61mprQajF1MklaKgphKs6mtA9J9xAA3n3vvfjHDM+zl6kKlagGuhs9n3Pn3oGp06a2UTnrdGIHTzt5d0aATjnm1tZW2NsBnuiaiW+1K8B3jEcUx7Txod26ktCPv54RurclRYXiS2j+vAUgXiEF1gKGOdl5ef/qzi55OAC8+JJOS0gzaAPxLoATFTjMZRN9cBjSp0k/qATwtSVGsdsZSGYuyYW5LN9hxzYkKQnfb/1hIF1mv7iWxsYGVJSWysaP59053wkglAA8gQtpC5saatBqam6jrugmhNFSUy6kH+U0BmgXPGPWLPzzgfs99u3WH34QVa2u7Nprr8GVV13ZCcAE8P6Sz/N4oX7sUFtTjar2t661L6/Fhx8q4/0B+BNMr388KyvLgQjrcAF4cQvi4+NDQwODNzDw08GYNGuYy5vGMPziWySzU2hXUFdW0OfFtz19Ji3lhTCVOO/Y9mdnHXKCJk+vpb+3J4CnNMk2YXP3dv/9D+DXHb86NCCATxx/NoJiutQvkDY6uNiUmBvrxbNrt7ZpkLoza2MtmnL/ApdpR/3PPW86nl6+3GNaACIIO+7o0S6/yKZOPQdzbp7TWZEaExcnUiV7c7fdE89RWUkJGhvqxdDbtm7DokWPKZqGc75eE6C/NSsrq61zux1WAE/XnBYXl6AJCVkOsAu9ISjLmDYDumD3vGZ0CFVXViheaQeStVSXwlRwwOnw+MtvvkZ6hpoL35v3WinAP/3UMnz9tWMVO9PpEZ55DPSRMQIM25Sm7LDb7B6xkVImTePfv7ULy0hfPak6PbV8GW2wPHbTGadPRl6uY2iQBhk//gTcc+89CGsvcCLSsZjYuH4P8MbcnM4CNiIcu/aa6yRTNzscyjn/qsVuu6KwsNDhVP2wA3hyyNCkpGSu1d2DNuk/aTmnbo+kYcoVCBzkvjyfXmepktXS7Fxm7fHT3Yc6kPRfc94ecJvjzu61N9/Aqaed1odWOvCXohTg16x5CRs3bHRwCBHMhRhGCYD3xSg007DvZ9gVUGMTXfTTy5dh+IgRHk85b+5cfPrxJ079hg0bisVPLO5UXKJKVgrTeJq14vGCerADZdDk5zgqws256WZRiCVnHPid6bRnZ2dnO/CkHJYAT84aERsb3hoSdj9juE/OeV0/T5owHaGJBrddBMBXFMPSNLAA3mZqRGPWLnCr4+Hxo48/hmuvcx0n9cSvalvlHlAK8K+/9jref9+Rj10AfOoR0A+S10CQW1HD3p9BYjNyRjzrBPDjT/T8+Gv1888LVsjuFh0Tjeeffx6xsW1fVFRtmpic0q/DhQ319eLwvKsRadwnn7hXuercwQP77Ayn5+XllXbtf9gCfIcTMlLT5jEGEnqMkHtQ6fOEcWcgItX9ToTiog1VpTA3yAqeK5muz7Sxt1rQuP9XJ9rgWTfegPsffLDPrPNwWIhSgN+wYQNeWvOyg0v8CfCNWb/D2iDPW07iLk8tX45zpp7j8e358osvcMtNc5z60U799TdeEymLZHSYm2xIk8yF93jyXu5A4E4g39Wo4vbJJUtlV8KBvFa7bWJBQYEDgc1hD/CjRo0KMDc3z2Icj9I5rJwn5apZCeAbq0phGmAAL7649v4Ee7fsoDPOOhMvuaF2lfOl+rl3HlAK8EQX/NyzzzkDfMoI6KN8l6VrNu5FS5XDhtHtBS1a/Diuuvpqj0Mofx84gOlTp7lMCV227GlB/9thRBvcwSrpnWcPXS9K4yzMz0drt/TqgoJC3DznZiVx+ApmbT0+q6jIodz8sAd4uqWZmZkpsNrfAPgUuVscNfx4xB19kttmAxXg6YIb9u+ArdvZAtEG/++L/5Nzm/q5Hz2gFOBJ8GPJE0scAZ5Et5OHIcDDQidXyzeV5sLSrbrZ3WXeOHs25t21oFMwW6k7SktLccH081BVWenUZcGCBTj7nLM6/z0+kVIlFb2Iiz5EC5Cbk4Osv7NQUloCs8nczkfTKg5rg4KCxRcS5fJHRUcJvpmU1FSh2ervWL/J1Iyy4mKnL7Lq6mqRD09+kLEcK/ik7hqtKsADSE5Ojg7Q6N5kDOfJeTE8dTgSx1G9lGsbyABPaXGttY6VkVTZR1wjVK6tWu94QCnAb9v2o+AV72pUuRycPBQBMR5r1TtdnKWySGRWKbFzp0/H4ieXCBZGT4yAfcY/rsfePXucupE2K2m0dtig6BjEyOgT0E55187f8e477+CPXbtQW1cLi9kiMleoAIp+fzty/gnE24r+2oqpOpgkKeQUn5CAhIQEoQp10sQJ4u++WE11FWqqqpzqDerq6vDoI4uwx8X1d52PqzF49+6n/Piw4OA3wCFdpgogNCENSRPPdQ/w3C4EP0x1jhwgvtz8vtLXVJQFSzf+ERL8IOEP2smr1jseUArwJLp9553znAE+aSgCYn0HePqypy99JXbMscfglddfR3R0tJLmnW0I4ObPnYvvXcgPnnvuuZh75x2dbanQKT7R9XVRhooxPx+PPPwwft7+k2QVsEcLbI//UwroESNHipz/8ePHIzAoCETTQGcDckZfOhR/b2psdGpKtQArlq8U3DSSxvGnXcvOzM3NdaD4VHfwbV7TZBoMbwJMNh0kKGowUiXoCujbv6mmHM21PS3bJ/fY+P9zS0URTIWOO7bIQZFY9dxzKm2w/93tdkSlAH9g/wHcccdcx3GYBkGJ6QiKT/V5xdamejQecCykcjco7aw/+vQTj3e6jY2NeOTBh/DRRsd0T5qHqDIWP/F455QUf6c4vCsrLCjAs6tWocBoRGNjE0wmk2BqJFCl3Tv9vz+MdvvEnEk0yVPOOAPEfDly1ChJ5TMhol5a4pI5kta1evWL+PKLL+WW943e2nr5vqIiB+BRAb7dbRkGw4sMjI7rJUVMSdGJlJ3c2UAG+Nb6KjRlO2px0uvqQ488jEsvv1zuAVQ/95MHlAI88dDMuL5N+ajTBMCnISjefaqv0mXSgXv97h8VNadwxyefbcKII6T1FLoPRvwxK55ehjdef91pnpTUFLz66kHtUmJ3zBg6zOV6iHytvr5exNgJ1DsAnsCeDjbp/7mdo9nUJktJnDUtLVTzQYVgEP2kBFZcTUp8TkRQRsL0tLt3R0pWX1eHyvIyl9zvtC7KhCIZQynjnP8HOu2NOTk5dQ63W9HdOQwaZRoMy8E1d4JxSQoD0mRNO+sqaHQBLr0ykAGecp4p97mr0UN72x2347Y7Dr4qHwaPyyG9RKUAX1lZiWuu7rYZYQyBg1MRPMT36mOqgK37XZk2Kzls9UtrcPY5nqVKEtCSAPXyp5c5+Zy0Vj/62HFnn5qe4ZPCUgc/fFuFL1GRtdF32fnB2LynN5++3NrUp5z30zRfRVlZJz1B97EVAzz4miaz+e6ysjKHwgR1B9/u0aEphvu5hj1MNRNSN5BoCgyTLwcJJ7gyAfDV5WiuG3ghGiriqtv1vcNl00N75VVX4bEnFvf7MnFPf3EPVXulAE8ZGFddebXjMgng45IRnDTUL8uv3bVZllGyY6Lb596BeQsWeDQvAeA7b7+NRx9+xGW/jR9t6OSjoQYkwC3FKunR5L3QmMJDRcZ8t2cCzc0mrH5hNb766iuZHbz9kaCwsKV79uxxqERUAb7dbRlpafMZxxOkHyAJ8EEhSD71IgSEDXIN8JQHX10GU718AUgvPD9+n6Lur61O/CPnTJsqyKSIp1u1nveAUoCnlZx9VvcdMwF8kkiV9IfV79kOu0VZ/PqcqVPxgof6rLTGjzZsxD0LF7oEwddef5Wy4DovhXjhwyP6T0YXZc9Uu0gB7bighsZGPLX0Kfzy8y/ubxfnVs4xJ6cg/43DlS5Y9lnOTE2dDUac8UxSnp0UcZInnYdAN6XeAzlNkpzYcOBX2Jocq+0oVYzIpDqqCmWdrTbwyQO+ATwQEJ2IEBltYaULdFUb4a6vtzUT//vsM9y78G4nAXGaZ8mSJzBmLAm2tVlUTAyiY9xzRSm9rt5oR28nJO5BYSh3Vltbh4cefAgHDkiko3JexcFn5BiNTpwG6g6+3bMZBsMlDOw1AJJf/3J82gMd4Jvy9qC1m9iyL2RSvfGLNNDm8ATgL7vsCtAhXlcLiE5AiGGkX9zSmPMHrArDkZRHvvdvZXnzXRf33bff4p6Fd6O6yjnsedfCu3DWWQfrUijWTdk0Qk6vXbhGpyOFMo1QahLiHvo2xSa9no7bDh0E1tfVivi7lJF04R23z5VTdtpjt7GZuYW5jgdkh/Tq/PJ4+W+Q9NT08zSMrwPgOvbSPpVGH4jEcWcgNNF1OtZAB3hTcS4sZY7sdoY0g+AaGTt2rP9uiDqSWw94AvB0yEqHrV2NiMYI4KnoyVdryt+L1mrZKsvOab767ttOsWylc3+/eTPuvfseVJQ7ECWK7rNmzcIVV/qWwUXKTQTzQsVMSFUeLHBqOyAlVTPSX22Tt6QfXfuf4uvh4H/Emrr/W9v/H/wi6aBpLjTmgyT6pCwnJwe33nKryORxb/xb3to6I6e42Ni9zaH7+lJ6d3upXXpKyskapvkvGJN8v9PoA5AwZjLCkjJdrqyNTbIElm5hjF66jB6fxlJVApNxn8M8g6KiBFvg5CmyTA89vr7DYQKlik7ki+v/McOpzF0fGdsG8FovNG+6OdhUlA1LuROuuL0NL7/yCqaceYbsbSIagRaLRQDgT9u34/HHHncpwH3e+efh9ttvkx2vpxo4CNaTejGDeFvoAHXSMxZi4KyNEI3+otEw2Oisrr7eZWpk17V+/NEnWL16tSS6g+MtmwZz8vLynGTkVIBvd92wtLRj7RxEqiLJwkQi1IOPPQURbmKYA5UuuOMJIyWfxr93Ojxw9OAuWboUF196iZpJ01NI0mXc5qZGoehEIChnt992B/7+21EsXRcRI2Lw7lJ95cbs+jnJOJqLcxR3uefee3HTLTe7bU+ATl9gVPxDP1SBunv3HqxYvgJFRUVO/SZMmIBHHqXkt4FpDz30MH7+ySny4nALOMeiHGOeS8pJFeDbXTU8Le0IG8e3xAgs9agQwMeNnoTI9FEumw1Uyb6Oi7W3mFC/5ycHbVb6bMHCuzB7zhyfcpAH5q+o/6+qTXSbAN4qO/idc+dh3z7HNy5deHQbwOslM4Jlx6YGLVUlaO72RifV8dLLLsPSZU87NTE1N6OupgZmixlCDLtLTCIrK1sAPIUrutvIkSOx6tlnFK21vzWiFMnLL78craLgyrVxoBrcfkWO0egyj1IF+Ha/CZUnnf4nSqWVehDotTZm1AmIHn6cG4C3orbUCKtlYIludwJ8qwUN+38Fb3XQ9sUVV12FBx56UE2V7AUU8QTg77v3Puzc+bvDqnShkSJEowmUzAhWdCWe8NHQgGPHjcN7H/xbADgBuclsRk1VpQjFdBf27lhAdnY2lhPAZzsDPHHAvPmvN/zO7qjo4nu40WebPsOz3eieu0/JgVyLtXVcUTeKgo52KsC3e2LIkCGxwXr9ToAdTKp1cQPpYCpm1DhEjziYmtW1md1mRU1RHmzdlI96+FnoteFJZLkx+w/Ymh1TJU87/XSsWPWMyirZC3fCE4B//PHF+GHLDw6r0oZECIB3V6znySVYG+uENqtSo5z1jzd9Cis9Rw0NsoeMNK4UwBPZ3eoXX+iU7lO6jr7ejipYH7j/ARGekjRufzPbaOzGR3GwhwrwHgO8BlHDjkPsUa7lx0iNvrooFwT0A9FIi7OZMifqHDMzKMeZWCXpF061nvWAJwC/9Mml+Pbb7xwBPjisDeCDJUs+FF2EzdwshGCUWkxsDF544XmPWCULCgqwfNkKp1ATzUnslCtWLMeQJN/ZMZVeQ2+027Ztm3hraWqUkURkmJqdl+eWqEYFeE8BnmkwaOhoxI2e6PI+26ytqDI6Hmr1xgPRW3PQIbKpMAstVQ7KYCDSsc+//AKJQwbWL1pv+dWTeTwB+BdfXIOPNn7kMLwmMEQAvC5UuTiGu/UR4RjxE9FzocRIN+Dxxxd5RDpWXFwsAH737t1OU9B4jy56FKNG+SevX8k19HQbogim0AxRJLsLW4k1cF4YGBaa2Z2eoOv6VIBv9waJfgRqtbvkQjSUBzUo42gMPvZkl/e5xdyM2mJ5FfSefkh6bHzOYS4zwlziHA/9z4b/4tjjXJ9N9Nh6DsOB6UCSDlkpzCFnL7+8Fv/98L+OAB8QLA5ZdW7oNuTG7Po5afU27NvhJMbuboywsDAsXHgXTprgXhWte18pgPdmPE+ur7fbEqBv3/4Tnl31LGpqpOlOOMeTOca8+6XWqAL8Qe+wTEMaoZbrCqYuXqQUyYSxrnO+zQ11qK9wTufq7QelJ+dry5zY3532QmRHUJaEaj3rAbPJJPjDiahKzt5//328/hpRlHR50PUBCEkdCX2EZ+Ibruayt7aItFm7pY1mV86IAfKmm2bj3OnuRXM8AXiS07vttltxZpdqVrk1dP+c/Eh0wkRNTD9EDWw2W2C320SaJtEIO/hPw6DT6hAUHCTeXOktgr5o/CHjV1NTKzKGfvlFgnumbTF1dg07NTc3d5cK8ArveKYhLddXgG+qqQD9DGSjzAlKjaN4fFebMWsWHnz4oYF86X3i2jwB+I0bN2LNiy85ApROj5DUI0AFT75a26H7LietXnfjEl3BlVdeiWuvu0bx1FI7eBpv+nnTcdpppyIwMFBIAhJgk1AI1QkQ30ttbS0o5ZBCH2azSaQdEohbLC3tf5oFwFNGD+XeE7gL/ncC+FarU5iECpW07QAfFhqKiIhIccgbHR2FpORkjB49GoMHx3lVE/LmG2/i3//+QLbGgYN/CK32hu78792dqu7gu3hEKcCHJw9F/Ngp0LioBKwvL4K50ZH7Q/GT3E8aWhtqBMBT/LWrTZw0Cf96+61+chX9d5meAPy333yLpUuf6rYD1YoYPFEW+Gr0Jd+UuxvWBmUSlbTLPf/883HLre6LnTzZwVNbeisgcCeaAa1G25aC2UVb1Wpr24UT4HfwvHd8Tpz20jQAyjwkOG60WlEHQrv5tLQ0TDt3KqgQS6l9/fU3WPXMKpfKTl3H4Jw3cfBbc43GtwHY1R28Qg8rBXiiKaAQDRU9dTfKoLEqpE9VuKw+18zW3CAA3mZy1JAk4eEtP27zaufS5y6yDy/IE4DfunUbHlv0WLerYSIGT6RjvlpbVtU+tNYpf2s948wzRBzelQBGx3ooNEI7bvqhNM+PPvrYiVPH17X7q3+HKDd90egD9IgIj8CECSdh4qSJGDpUnnefvnh+/30XKOOJVKfkjHN8r+G2WVkFBdlybdUdfBcP+QrwtDuozNsP2hUMZCP+bwJ4oi3obr/s/A1RUVED+fIP+bVZLKThWSq4WuRsz549mD/PWWQjJGWEX4S33WVVSa2LdrUL775LxK+7G0noZWX9jf37D2DrD1uRn58v4uJ9yQjEY6JjEBMTjfDwCISGhSIxIRGjjhwpuOnp+Xcnz9f9OuiLjOLtb775L+TlKkrOMAH8kez8/BVyu3eaSwV4B4A3ZAHMNYtYl3bEJEk7eKIO7mqtLWbUFCrn5ehLD60na6G4a7ORcuGd6VvXv/cuxp/oukbAkznUtu494AnAG40FmH3jbKfBSNGJlJ26shx643NiT6WMKkt5geLuY8YcD6L5jYmJEX0I5HJzc7Hr913Yu3cf9h/Yj+qqatk4tOIJfWhIu3OKr2dkpCM5OQWxcbFi3RRjpxx82q3TYSuFZjw1ChNt2rQJ//1wA0g/VzIl8uDgO1vstukFBQWOecpuJlcB3gHg07YBkM3fIg6P8KShiDnyBOi6SPeZGmrQUFHi6X3ud+3pQSRGyRYXNLEPP/oI/jFjRr+7pv60YE8Avry8HLNm3uCUcROUkIbABIOgyPXJKG223OgR4RgVw40dNxZ6nQ6UNVJUVCj+pIPOFhn6XJ/WqrAzgfWIEcNFiGXE8BEYPHiwAHHalRMzZAedsMLhXDYjOcW1a1/B9h9/hMmk/A2Fg1+ak5//odK5VYDv4qmM1LTNjOEUxc7T6TEo4yjxQ0BfX1UGywA/YO3wjaCJrShwIh1zRyal1KdqO3kPEAhWlJaKjBA5Iy742269XWSSdLXA+FQEJaQLaltfzVJZDFMBpc32T6PDUQoXJSUl4dzp03D88ceL3bnUGYE3V0rZPQ0NDdix41esf3u9E42zzJh0Grw+25j/D0/mVgHecQdPFSEXeeJAaqsPCUd4yjBYNfo2AicX6umejtnX21sqCmEuzga9one1Y449Bv/ZsMHvvxx93R+9ub7W1hYRg6fDVjmjneLdC+9GYaFjbUZATKLQZfWH6EdLdZkI2fklHUXugvz8Oe3GjzzqSFx99dU4+uijvAq1SC2JvljLysqFIhPRNv+47UdxrkDhGc+M/2YFLs3Pz6dUbsWmAnxXgE9NWwMG5flbXd3MNNAEBIniEX1UPHSh4QP6iMNdLjzpshKZVFS070U0ip/iw6yhJwBfV1eHB0nTc7+jVJ5+0GCEpI7wi+gH8RJRJg23yRde+flWUcpJAwA6DKKijHoO1knewsBjGBDMgXQALnkZCOBTU1Nx9OijYUhNRUZmJlJSkhER4RmNA71VUeUpxdLLSstQWVWFqsoqUIiMfgjgKSNIYZy9u5uMHHxBTn7+RgDKOCHaR1ABvosrM1JT72NM86RPDyFjQkiBcowDE9Og0Xp++OLT/L3U2dpUj6acP0AHrl2NDqBee/MNkE6raj3jATqUpEpWoiyQs8aGRix96in88rNjZSRxwoemjwLzw/Ppri5Cbm1KPxec5+DbuB3bmZblaIASK1CqbdE26bQtthadzqbRaLjebLY1a7WdW+OAlgAdtKZArtPNA9hdUvMR0FOMnfLpRS57eJjIhgkNCUVwcFsyBYVxqGCqI0uuvr4BLa0tqKutE+Ddam0VZx1UHEX3SFTB+p5k3wxuX8QCAp7NysqST5vqdpEqwHcF+Dbh7f8offDk2jGdHoGDUxEYk9D2izSAQjf2FgsaD/wK4iLpalRJuOSppZg6bZqce9TPvfSATQB8KZqbZZgGAXFw+fxzz+Obb0jL5qARJ3xoxtGgZ9RXszbXix283Sy/Hpm5CJypSrCBc/4z07APuVXza05hDuUPev16kJmaOgZM8zqA0b5eay/3b+bgL+Xk59/n7fWrAN/ljqUlJKRpA4OoeMD3k6fOcZmgZaWYJ4Vv/CGy0MsPmevpOEf93p+dOEhoBzR33jzMkZBl6xPr78eLoMIY2sETq6ScUcn9a6++JgqFupomKBRhw471i2wfUQYThXR3jQC5tXV+znkjGPsTHH9y2D+xazQ78vLyypzIjhQP6NRQm5maeitnmicZ4Jx87/24PdkzDxxrso15JFfl9ZebCvCOt0iTYUjbw4AR/r5zdJhFQE+hG4rRk3h3f7fGrN9Br+ddjTIPrrjqSjy2eLFfyJf6u496Yv10QEcA39ToWEnsai4KE3zw7w9EIY0DwOsDETZijF9k++gtjgC++7Mgd+2ccxtj7CPY8Yldx37Mzc2lIhKvwUxqvrS0tEFau/1JMI13Z2xyF+OnzznF2Dm2ajhbgUDt/3kTlnH4ffTTugbMMBmpaYsYQ8+p+Go00AaFgtLUAiLj+nXYprngAFoqnZkzJ0+ZgqeXL8egqEED5rnoSxfSBvClaGqk80Vpoxjw55//n+A4cfjF12oRfsR4aAK802Wl7CnasROo03kM/b07+Zz82vBP6DRrcnJy6EI8TSuRG97p84yoqEiER7zNGJvucefe6MB5Eed4mFtMm3LLy8qMlyIAACAASURBVElRx6MDVVdLVHfw3bySnJw8NFCrI42z+B69pwzQhUYhOCkDmsBQMK22R6fricHN5QUwF2U5DX3c8cfhqeXLkZGR0RPTHvZjEmiXl5WiUQFvCTnr+++3CAra7iX/EaNOdBsyFOmvRLkhyLi4OEy3NtWBJPrs5kbYLWbFIh/ubhiz87uyCvJX9uYNTUpKignU6l5ijJGgA327kTAtvU73JhYS/zDluDZxoBEcmwH7ertG80NeXp7yqicFjuvNi1KwnEPfJC0tLUhn4wu4ht3rLrXKr6vUaBEwaDD0UYOhC4v0S16yX9cnMVhrfTWasp3pqFNSU/H08mUYd8IJvbWUw24e2sE31CtjLd3xyw4h/9ZdQIJCNBQ25K2tQrCDduBtP60CwG3mJsEYSiEYbqUsREdedF+dzsBnZ+Xnv+rrOJ72j4uLC4sMDjZwjWYYt9tHM2hoJxIFhnAORDPOYzhjIsXS07FdtOfgvAmMlQO8FEANB8rA2R9aO7a36rA/Ly/PmdTJDxPTECrAu3Bk+uD0eE2gfSE07Lb2b3g/udv9MER/oAuPAuUnCyGGfpBxQ5k09buJ3cHRKJ3sqeXLcM7UqT3ut8N1goqyMtTXKcOFP//8U0jelZYSvhw0QRfMNG3gLn6IVpcAnqIl/gVz1/eJT8zOz3d+gHr5pp4G6HJSU8O1Wm2E1m6PtnMerYE2hsMWBcaooIWS4kPAWThj0HEO+gLQdV8mg70eHI12wKxhlAnE6hnstXbK0+faMmZvKdNxXn2guJi+mXvkrMF5Tb3szP4yHX3LRwQHXwyw1WDMd3VihRdO6ZQE9EGJaSJW37eNo/b379te5bsYHbQ+9MjDuOa66wRHtmr+90BVRQVqa2sUVY9mZWWJHXxujkdFkP5ftMOIPKvFbj9VKWlWDy/G3fCUTacZOnSo1mw2ayIsFvEwN4eG6ux2u9PmOCAgwBZQV2ev1evtISEhtsisLPuvbXH0Hj9fcHcB6g5e5slpS50MXAKws8RrnF9TKN1PTjF5fVQCAuNTRCqbP0rKe+KXpGHfL0688DTPtdddh3vv/ydIUk01/3ugqrICdTU1igppCgsLxQ5+7969/l+IdyO22u18KdeyJf6OOXu3nIHbSwV4BfeW4vJazk8Cx9VgbAyAUe0HNAp6+9aEtVfFBgyKgzY0os8BPan5tNaWO13kyaecglXPPYvIQWomjW9PgOvetdXVqK6qVATwVCpPAL9rl6R8Z08s03lMzq0A+4zrNHfn5OQ48if0zgoOq1lUgPfgdg8dOjTQZrIdodFyIjyfDAYKMlOMroeNiXQ2bWik0NHUR8b0GaA3FefCUuYsVJCSkoL3P/yPoFpVzf8eqK2pQXVlhSKAJ5UgCtH8tP0n/y/EgxE5xaa5/aUW4BWjkdjJeiXQ78EKB15TFeC9u6fajIyMMJvJNEQXEDANYDcBGO7dUJ71YlodqAoxaHBKm2jyIT6MbakuR3P+bqeL0Gi12PS/zzBseK+4xTMnDoDWdMBKcXglrIQmk0kAPEnfHQrjQDPAN9gZe6GlpeWP4uJieRKdQ7HQATinCvB+uKlDhgwJCQgIOEVjx3zGcGx7rN53kg+ZtRHQBxLQR8QIVkB/cHt76g5rcwMa9+9w2W3ZypW46GKP2Zc9XcJh2b6hvh6V5WWKAJ7y2Angv/ryq970lZlzvg8attbS2vpJUVERVcT1RmpOb15jn59LBXj/3iLtUIPhGDtwDQM7DZyPhot0Kv9OCWgCQwQFAuXRa4PDe5UGgVIlG/b97LKK8Zprr8WixY/7+3LV8ahCprFR0BUo2cGTw5579jl89tn/FIV0ujuY+IXCwsJgtVkFc6IS4+Cftths1xcWFlYraa+26RkPqADfA36lWL3dbB4OjY7i9FcxYHwPTOM0JB3IakPCoQuNgC4yFjpKs+zhEI7d2oKmrF0uM2mOHj0aGz7+qDcu/bCbg6iCy0qKFeuWvrL2FWzYsFFRe6LOJfFoEsKgP+NiY0EsoQTwTyxeokgEm3M8bdfgETVL5tA+mirA96z/dWlpabFaOzsLjBPl5xG9UlzGNCJkow0ORcCgeOij4vwi7ODKVVT12JS7B9YG540a8Wvv/PMPwbGtmn89QGpOpcVFigCbZn7nnXfwzvp3nbRZO1YVEhKCUaNGYcyYMRg5aiTi4wcjJDgE+gC9Qy3D7BtvgtFolL0YDn5bTn7+S4cyB1x2kYdBAxXge+kmZ2RkRDKb7ToOtpABlFrSawniBPYk8BAYOwSaoBCRgSPy6v2wu+d2G0yFf6OlyrXY+IcbN4Jk/FTzrwdIQai4oAA2G1EIyBsxSq5b95aTqPX8BfMxceIEUa9AgtJy9uiji4TsnIy1cvCZOfn56+Uaqp/3rAdUgO9Z/zqNbjAYEnXANZyz8xkDkbX06vaWZAVFGCcsCprAICEzSD/eFlKRuo2lNB/mUudUSbr4++6/HzfeNLuXvTzwpyPloKICI0j8Q4l99tlnePmltU7hlQcfehAnnzxJyRCizRuvv4n33ntPuj3njXbwmblGo9/EcxQvUG3o4AEV4A/NA6HLTE5Og0Y3BQxXADi1typkOy+XMRG20QQEQxsYBBYYAm1gsAB/+pM4SpRaS2Uxmgv2u2x+zjnn4IWX1igdSm2n0AMk+lGYnydk4ZTYF198iRdXvwhKmexqngL8li1bsPjxJ1SAV+L0PtBGBfhDexO0mfGZMTzIeiYDe6DXYvSurpkAn0Bdo4VGpwMjsCfwD41sA/2AILchHXcC3DQNCRr/74v/Q2BQm66lav7zQH5uDqytyjirtm7dihXLVwrtUF8A3phvxOzZVPYhYeoO3n832ceRVID30YH+6t4tRh8n2Ov6kIm4vS4AmoAAMH0gNLpAaIKCBU+OrcUMS5lRMBJ2t9jYWKxbvx7DR6gFT/6+nQV5uU4xdXdz/PjjdixfthyN3VSgPN3BV1VVY/78+SgrJUU918aJ55yzmbnG3A/8fc3qeJ55QAV4z/zV460pRq+1syvB+DQwNoH1MaD31AFh4eFYvOQJTD/vPE+7qu1lPFBcWABKl1RixENDoRWiLfBlB9/Q0CBSJXfu3CkF8DYNZzOzjLlvKVmb2qbnPKACfM/51peRNRkZGcms1U559NPAQOjYL2Mcer0eN908B/PvussXf6h9XXigrLgYjQpk+6jrX3/txqJHF/kM8KQKRSLeH3/8icw9YXdk5+e+qKZJHtpHVwX4Q+t/udk1aWlpEbDiWI0GCxj41N6ojJVblKef0+596bKnEaTG4T11nWT7yvJy1BEnvAI7cOAAHnrwIdR2q0T1NERDlbObNm3CC8+vlpmVL2Z6/WJfRaMVXJraRMIDKsD3n8dDM9RgOJZzdh+YyLohHl7SkuzzRtJ9pPBEB66q+c8D1ZWVqKmuUjRgQUEB7l54j5Nsn6cAT5P99NNPgtumvs4x3NN1IRz89aDm5jv3VFQ0Klqg2qhHPKACfI+4tUcHbeO74fxSxjREWzy2dyiLvb+mVINBaLSOHTfO+0HUnk4eqKutFYRjSswdwP/z/n/itNNov6Dc/j7wtwD4vDzXtQ/tI31rtrZeVlRUpOwbSPn0aksPPKACvAfO6mNNdenp6UkaKz+RaXAqB84FkNIrVAgeOoKqJJ98+in1oNVDv8k1b2xoEHw0SqyiogJ3zp2HqipHvL1j7u2YPn26kiE621RXVwsBkV9//VWiH8+xApPy8/Ndlzh7NKPa2FsPqADvref6Tj8WHx8fEhgYGB/A2GQ72I29RW7miQsWLLwLs+fMAR26quYfDxAfDVWzKrG6ujrcesttqKysdGh+8y1zcNFFnlE6U5EVsVP+3/994ZadkgM2G/jR+fn5fUYnUImfBlobFeAH2h0FtBnJGaOgsV7FGLsQQBzASL2bsnAO2f2eNn06nnhyiWAlVM0/HmhtaYExT5mQNqVH3nLzrU4Af9Ocm3DJJRd7vKAP/v0frFu3TjIPn4Nfq/LReOxav3Y4ZL/wfr0KdTCXHkhOTg4O1GqPAzARYMcDLAWwp4EjvrezcYYOG4a331mP2Diq4VLNHx6w223IzcpSNBRRFBATJIVqutoVV16BWbNmKhqja6NfftmBp5Y+BcqLd2fczl/MKci/zePB1Q5+84AK8H5zZd8eKC4uLiw8MDwRGqtBw1ianbOhAB/KGBvFgTTWw+yWRB284ZOPMWLEiL7tqH62utysvxWLfvzjuutRVuZ4KHvJpZfgJi/I4CjUM/eOO51i+g7u4/gz25g3up+5dEAtVwX4AXU7FV8M5dcHaDSaQLvdHmyz2UK1XJus1SDNzngy4yyZMZ4CsDBwnswZ03aOzDlnQDUYajhQyjgPANNcrmTmJ5Y+iSuuvFJJU7WNQg8Yc3Pccrx3H8IVwJ911lm4a+EChbMdbEYygHRou3+/a5K59pY2U2tLQnFxsWPg3+PZ1A7eekAFeG89p/YTHkhPTDQwfcBOxliUnEvOO/98PPPcs3LN1M898ECR0Qiz2ZEh0l33GdfPREmJY1LLqaeeivsf+KcHMx5s+uKLL+KjjR9L9mV2dkFWQa50I69mVzsp8YAK8Eq8pLZx64HU1NQoPWNvA2yanJsSEhPx3ZbvFQlLyI2lft7mAUqTpHRJJTZ/3nzs2eOY1HLCCePwuJe6uVu+34LFi2Wpg5/PNubPVbI+tY3/PaACvP99eliNOGbMGH11ZeXdGrDFclk6jDF8+r/PMOIIUi5UzR8e8ISuYMH8u7B7926HaY888kisfGaFV0spLy/Hddf+Q7ov579lG/OpIE8Zr7FXK1E7ufOACvDqs+GzBzJSU6czpnm9LSVT2h55bBGu+4cMKMgNon7e6YHammpUdcuMceceVwCfkpqCV199xSuPUhyeAL57Zk63wUo1LXzy3yVqPrxXTvaxkwrwPjpQ7S5EPUbpoHmjXYJQ0iVnnnUWXnz5JdBuXjXfPeBJNevjjz2OH37Y6jBpfHw8/rXuTa/vhwKN1nowzMnOy5PR+fPdF+oIzh5Qf8vUp8JnDwwZMiQkWK9/CWDXyoVpkpKT8dEnH2NQlOyZrM/rOhwGsJhMKFRYzbrkiSexefNmB7fExcXhlVfXCtFtb2z9+new7l/rpLq2co7lOcY8Uizj3syh9vHeAyrAe+87tWcXD2Skps1jDEsgk09PwP7Ci6tx4kknqf7zgwdIfJuUnShcImeuAJ4Ut15Y/TyivPzC3bZtGxY9+pjk1Bz8Q02DflZWdZZ7+km5xaufe+UBFeC9cpvaqbsHMlJSxjGNdpNcHJ444Rfecw9meFE9qXrd2QMkuk3i28QPI2fPPfc8Nn1Kt+igRUdHYdnyZUhOTpbr7vLz4uJi3HjDbLn5t9sYZubl5e3zahK1k9ceUAHea9epHbt5QJ+RmvYrYzhayjMUe7/40ksFL41Op1Od6KMHCNhJuq/FYpEdae3aV/Dhfz50aBcVNQhPLn0S6enpsv1dNSB2ynnz5qO8rFyiPy/knM/IMRq/9moStZPXHlAB3mvXqR27eyAz1fA0GLtbzjMnjB8v+OGTU4jdWDVfPEAAT7nwSrRZXQF8REQEHnn0ERx11JFeLYNIzChE89dff0n1bwFns7PbNFrlY0lerUTt5MoDKsCrz4XfPJCWnDZeq8V2uQEpHEAKT+NPpPRo1XzxAEnokehHQzcxbVdjvvvue3jzjTcdPiJ2z3vvuxfjxpFujOfW1NSEVc+swvffb5HsbAdfrFUl/Dx3sI89VID30YFqdwcP6DIMadkMkNTmo9DMkqVP4qJLLvE6PU/1e5sH6HCVpPsoH17ONmzYgJfWvOzQLDQsFAsX3oUJEybIdXf5ucViweuvvY6NGz+S6/8e0+vmZGWpB61yjvLn5yrA+9Ob6ljIMKS9yIBb5Fwx84ZZuOvuu1UhbjlHyXxOAE/SfVUVUjHwtkEIhNe8uMZhREqPnHPzHEydeo5XK6FD3vffex/r1lH0RcI4/xV63bTs7Gz5hXq1ErWTKw+oAK8+F371QFpKytkajfYzBmikBh4zdixeWrsWUdFqPryvN4DCMxVlpbKpkt9+8y2WLn3KYTrKarrhxhtw/vnnebUMChF9+smnWL36Rbn+FczaenxWUVGhXEP1c/95QAV4//lSHQlAUlJScqBO/z0DJNMywsLCsPHTT5CWlqb6zUcPNDc1ory0VC5VEVu2/IDFjxNl0EEjnv5rr70WV1ypiPHZ5Uq/+uorodEqlYtPEn6waY7LKcz508fLVbt74AEV4D1wltpU3gNDhw6NsLe2rmFgV8u1poPWSy69VK6Z+rmMB8ymZgHwVPQkZbt27cI9d9/r0ESr1eLSSy/BrBtmee1nOmBdsXwFzGaz5BgcfHpOfr5jIr7Xs6odlXhABXglXlLbeOIBbVpq6m1apnkGMmGac6ZNxQsvyr7aezL3YdmWcuAJ4C0WaYDdt3cf7rxzniPAazS44MILMefmm7z2Hb0ZEMCTLKCUcTtm5RTkveH1RGpHjz2gArzHLlM7yHkgIzV1CgMjBivJ8sio6Ghs/mELQkJC5IZUP5fwgLW1FeVlpbK58Pl5+bjppjlOI3mr6tQx0Nat2wTAU8qkpNn5wuyCfO+4idUnwCsPqADvldvUTlIeMBgM6Tow2qmdKuepdevfxoSJE+WaqZ9LeIAOOmkH39QoLfxBOqrXXE18cI52+umnY+Hdd3ldWbx9+08C4KnoSQX4vvWoqgDft+7HQFmNLjM1bTUYbpQL01AGxz8ffHCgXPchu46KsjLU19VKzk856+efd4FTm5NPPlkAPGXUeGM/bPkByxWEaKDu4L1xr099VID3yX1qZ3ceyEhLm8ns/DkwFiblpaFDh+LTz//n9e5RvQNtHqipqkJNdZVsquTUc6aBdvxdbfz48QLgibbAE6ND3abGJmz+/nu8+uqraLG0SHbnHPNzjHmrPJlDbeubB1SA981/am83Hkgfkj5Co+ffABgi5aTomGi8+vrrGH3MMaovffBAQ30dSL6vO3h3H/KKy69Eba3jTn/s2DG4a+FdiI6Oll0BjV9WVg6j0Yh9e/fip59+Fn+Xy+BpG5hfnJ2fv0F2ErWB3zygArzfXKkO1M0DuoxUw+eMsSlSnqFKyrvvvQf/mDFDdaAPHiCyMSIdk6MNnn3jbBiNBQ4zjR49WuzgSd3JlYkYf3kF9u7Zg7379iEnO0eAOsXclfDQt2E7t9rttjG5hYV/+HCZalcPPaACvIcOU5sr90BGimEB0zDJrAmiDz7/wgsFN01gYKDywdWWDh6gHXRRgRE2q1XSM3fOnYd9+xxp2Ul4mwB+yJC2ly3KhiktLUVubh6ysrKQ9XcWSkpK0NzcLHLd5d4SXC2Ac/xtY/zU/Pz8EvXW9Z4HVIDvPV8fdjOlp6cbNDZ7FhiTJH4/7vjj8NTy5cjIyDjsfOSvC6adNCk7yYVKHnvscWztpstK5G+hoaHQaDRoaGgA8cv42zj4a0HNzfP2VFQ0+ntsdTz3HlABXn06etQDGYa07QwYLzUJycYRP/wpp53Wo2sZ6IOXFBWiWSYXfeXKZ/B/n/9f77qC80rOcHNOfv5/VT743nW9CvC96+/Dbrb0FMNdGg1bLnXhtHO85777hIyfqvLk/SNSVVmB2mpp2uB//Wsd3ln/jveTeNyTW+2cr7dYrQuLi4srPe6udvDJAyrA++Q+tbOcBzJTUo6CRrsDgGSAfeq507Bk6VKQAIVq3nmgsb4eZaXSIe6NGzdizYsveTeBd712c6vm4pyinAPedVd7+eIBFeB98Z7aV9YDw4cMibXpAv4LhpOlGickJuKDD/+DxPaDPtmB1QZOHmhpaRFxeCnb8v0WLF78RM97j3MrZ9jHbLqLsguzs3p+QnUGVx5QAV59LnrUA2lpaUEaOx5mDPcBkHze1rz8Ms48+6weXc9AHpwOWvOysySzXCiDhjJpetA4B8oY55/YWzVP5Jbk5vfgXOrQMh5QAV59RHraAyzDYLgYYK8wQFLd44KLLsKKZ1b29HoG9PhFxnxJ2t7i4hLceMONsvny3jiJc94Exj7mdvYe1/Lv8/LypLkTvJlE7eORB1SA98hdamNvPJCRnHE009pJ7fl4qf5h4eH45bdfodfrvZlG7QOgorwM9d0qVbs6hgjHbrv1dqdqVl+cxzkvAdj73M7e0AZp87Kysoj1jPsyptrXPx5QAd4/flRHkfBAcnJycIBW+yoDu0ouTPPK66/h9MmTVX966YGGujpBHezOampqcN+9/0ReXp43M5CiCJHOE/F7BTi22jTYYDKZtpSVlclwBXszndrHVw+oAO+rB9X+ijyQmZo2FwxPApAkf7/o4ouxbKVKGa7IqS4atVjMKMh3H/amQqYlS57Eb7/+Jj8F542csUJwlDMNyrgdWRz2PVyj+ctqte4vLCyUVviQn0Ft0cMeUAG+hx2sDt/mgfTk5NEare4LAK4JT9odlWow4N//+QCxcXGq67zwAFWhUhzeXTVqc7MJq1evxldffqVgdL6cMfZhK+dlZrO5vKysrFkNvShwWx9qogJ8H7oZA3wp2sxUw2YwJqnuQZS1y1euxOQzJDnKBrirvL88UneiilZKmXRl9O/r16/He+++LzuJjeG0vLy8zbIN1QZ91gMqwPfZWzPwFpaRlnYL45AUYSUR6OtnzMA/H7gfTKMZeE7ooSsiFsnmxgZUVVbBZnPPJUNEYZs2bcILL6yWPQbl3H5yjtH4Qw8tWR22FzygAnwvOFmdos0DKSkpQwKYZr+cCMikk08W3DSD3dDXqv486AFijySWR+KDN5tMiuh7v/9+i5DYI2ZIaeNTsvPzidNftX7qARXg++mN66/LzjSkkeDDhVLrT0pOwtPLl2P8iSf218vs8XXTjr2psRFNDQ2wWMwe5bX//vvvWL5sBSoqKiTXybj9siyj8T89fjHqBD3mARXge8y16sCuPJCRbLiYadmHUt4h8rGHHnkYV197LShko9pBD1C1KgF7bU01WltavOJmz83NFQBPXO9Sxjj7R5Yx9y3V//3XAyrA99971y9XPiIlZYiVabeDIUXqAs6eeg6WPv20Sj4mxJC4AHIKwdRWVykIrUg/GlVVVQLgf/tNJlWS495sY97T/fJBUxctPKACvPog9KoHRsXFhbWEhD7HgZlSExNH/Lr1b2P4iBG9ur6+NBkBe4vFApPJhKbGBljMZkUxdrlrIFGQZ1auwtfffC150Mo5VuUY8+bLjad+3nc9oAJ83703A3VlmgyDYQYDWw0gSOoiT5owAccceyxI8Yn+jImJAUn8DXSj3TpprDY3NYrdOoViFGufKnTOun+9hffff19avYnj39nGvCsUDqk264MeGPi/LX3Q6Yf7kjJTU8cAmjfAcLScL0gAJCQkBOERESDt0NOnTAYBf1JS0oADewJ2ohpoaKj3Or4u50/6nOb59NNNeO3V16TDPRy/ZBvzTlAyptqmb3pABfi+eV8G9Kri4uLCIkJCXwFAu0OPn0E6eM3IzMCESZMwcdIkDB82TGiKBgUFISAwsN8czHbE1mmHTmmOjQ0NXh2aSj0slG1jsVjET1lpGX7ZsQM//vgj8nLzZDNvOFCdk58Xq1av9t9fR49/ufrvpaor70seyExNm8MZVjAg1Jd1UcQmIiISQ4cNw4gjjkBmZgaGDElC7OA4xMXFibBOcHCwL1P4vS/FwAnUKfxiam7yW2ydFkqAXltbCzpIraqqRlFhkciWoZ+ioiKPv0CaLObBpaWl0vmUfveQOqC/PKACvL88qY7jkQcMBkO6jv9/e+fS20YVxfH/uZ7xI3ZKW7/dxB67RVSwQYQNi0rZIMSODwA71K/ABwCJFYgtG+imu+66YMUGwQpFXVEp0gRq2XGaxnGJE+zYnpmDzqW8hBLaxI9xfEcaeeM599zftf6+c+655+I7EK280IP/82WJ0adSKWRzOWSyGWQyWRSLRayWV2WjFa6trOBaqYTE0qk1z8bpkrYltWEkC6bf72lxHw6Gp+44fV4HZJPT453HaLVaaDQa2G610Hkm7iLyUlzsPBeB33Dr9QfnsWGenR0BI/CzY7/oLavr5codEH0waRAS0olGo/q2o1Ek4nHIEYG1Wk2HesqOg6rjaPEf52xfYt2Ss947OsLx4BiB77/wDPpPNjIzl1ruzUYTzWZTi/nW1s96s5J+IxiNdP0ZzxtBjlQa0zU8Ou6v7u7uPhmTPWNmygSMwE8ZuGnubwI3HGedGd8CCE3RGaliWSgU9F0qFZHN53H1ylVdNiG1nNJvA4oISkWgFOl6OfLWIJuzdIjE83Rao2TASCbMf8X2j5x2OQ4j4AAcsP4Uce52u+h0Ojg46Goxb+/tob2/r2PnIuQnFRCb1G+KQHfd+i/vT8q+sTt5AkbgJ8/YtHAyAatWcX4k4PV5giQLucmlJR3mkYVdyfRJJpdAIC3CfMphRrKw2vutp2PlEoOXxU/5Q5AZeKguRoOI33Pr9ecoHB8qz40z/yBgBN78HGZK4HrZuQ3ClzN1wjT+bwJy0AfoExW1vnBdd2DwzC8BI/DzO3YXwvNqtVpRfvD9uBdbLwScWXSC2QPhzsD3P2o2m51ZuGDaHB8BI/DjY2ksnYFAPp9PpmKJz0C4fZac+DM0aR45mUAfjPtWIvbh5ubm+dJvDOVQEDACH4phWGgnqLq6+jZR5GOAXyOic+XFLzTJs3c+AGOLFL52Hz36HIAJy5ydZaieNAIfquFYTGccx4krz3s5IHo1QpG3mLBOwE0AscUkMr1eM9Ajxj0R95fS6R82NjZCtto7PRYXsSUj8BdxVOe4T6VSaSmRSKT8gV9VCu8S4R0wvwkia467FT7XmT1W9I1i/hS2/ZPruhKSGV8Gffh6vJAeGYFfyGGfq05TpVIpKFa3iIJ1QN0icBqA1B+QGb7cocmjQn4rWgAAAUdJREFUDynZ4FnYpQfwUwbuUxB8tdVoPJTaYyH12bg1BgJG4McA0ZiYKoFIbWWlxsq+qQivMPMNAgogZBlIEyDFsS4BsKfqVTga8wEcgdEF0QHAh0xoE/MuEz1UHh5EkrENs4AajsGahhdG4KdB2bQxSQJULpcvW5aVUUGQDgKVIQRpBoqkUAT0XQAjx0COgCuTdGbCtiWM0mWgTYCkMP4Kxh6I95ioTQF1QMEhM3fB1gFsdAeDwf729vaBlMOZsG/GfAgJGIEP4aAYl85NgNbW1qydnR07Ho/b1vGxPYxGLWtkWVCDGCtVQUA5JhSAIEdQaRBnAJUHcxTgIhMlCbg8qdRNKcVLzD0dOiHaY8ahIuoyc5tFuIGnYDxRRIee4qYaqQ7FqW8Nh/7QsvzhcOjZtu1f6vdHveVlz3VdEXCZwZvLEPiLwO8zahc26wuhWQAAAABJRU5ErkJggg==;" vertex="1" parent="1">
          <mxGeometry x="210" y="15" width="108.46" height="150" as="geometry" />
        </mxCell>
        <mxCell id="ouYBEClxOfQiudUIluGu-20" value="" style="shape=flexArrow;endArrow=classic;html=1;strokeWidth=3;" edge="1" parent="1">
          <mxGeometry width="50" height="50" relative="1" as="geometry">
            <mxPoint x="318.46" y="89.5" as="sourcePoint" />
            <mxPoint x="508.46" y="89.5" as="targetPoint" />
          </mxGeometry>
        </mxCell>
        <mxCell id="ouYBEClxOfQiudUIluGu-21" value="" style="edgeStyle=elbowEdgeStyle;elbow=horizontal;endArrow=classic;html=1;strokeWidth=3;" edge="1" parent="1">
          <mxGeometry width="50" height="50" relative="1" as="geometry">
            <mxPoint x="564" y="90" as="sourcePoint" />
            <mxPoint x="614" y="40" as="targetPoint" />
          </mxGeometry>
        </mxCell>
        <mxCell id="ouYBEClxOfQiudUIluGu-22" value="" style="shape=curlyBracket;whiteSpace=wrap;html=1;rounded=1;strokeWidth=3;fillColor=none;" vertex="1" parent="1">
          <mxGeometry x="340" y="-51" width="20" height="120" as="geometry" />
        </mxCell>
        <mxCell id="ouYBEClxOfQiudUIluGu-23" value="&lt;span style=&quot;font-size: 13px&quot;&gt;&lt;b&gt;IMPORT DB&lt;/b&gt;&lt;/span&gt;" style="rounded=1;whiteSpace=wrap;html=1;strokeWidth=3;opacity=0;" vertex="1" parent="1">
          <mxGeometry x="350" y="-60" width="120" height="60" as="geometry" />
        </mxCell>
        <mxCell id="ouYBEClxOfQiudUIluGu-24" value="&lt;b&gt;&lt;font style=&quot;font-size: 13px&quot;&gt;GIT PULL&lt;/font&gt;&lt;/b&gt;" style="rounded=1;whiteSpace=wrap;html=1;strokeWidth=3;opacity=0;" vertex="1" parent="1">
          <mxGeometry x="350" width="120" height="60" as="geometry" />
        </mxCell>
        <mxCell id="ouYBEClxOfQiudUIluGu-25" value="" style="shape=curlyBracket;whiteSpace=wrap;html=1;rounded=1;strokeWidth=3;fillColor=none;" vertex="1" parent="1">
          <mxGeometry x="-228" y="-16.5" width="20" height="120" as="geometry" />
        </mxCell>
        <mxCell id="ouYBEClxOfQiudUIluGu-26" value="&lt;span style=&quot;font-size: 13px&quot;&gt;&lt;b&gt;EXPORT DB&lt;/b&gt;&lt;/span&gt;" style="rounded=1;whiteSpace=wrap;html=1;strokeWidth=3;opacity=0;" vertex="1" parent="1">
          <mxGeometry x="-218" y="-25.5" width="120" height="65.5" as="geometry" />
        </mxCell>
        <mxCell id="ouYBEClxOfQiudUIluGu-27" value="&lt;b&gt;&lt;font style=&quot;font-size: 13px&quot;&gt;GIT PUSH&lt;/font&gt;&lt;/b&gt;" style="rounded=1;whiteSpace=wrap;html=1;strokeWidth=3;opacity=0;" vertex="1" parent="1">
          <mxGeometry x="-218" y="34.5" width="120" height="60" as="geometry" />
        </mxCell>
      </root>
    </mxGraphModel>
  </diagram>
</mxfile>
